SplineFontDB: 3.2
FontName: Fanism
FullName: Fanism
FamilyName: Fanism
Weight: Book
Copyright: Copyright (c) 2019-2021, fANhAN iNSiDE
Version: 001.000
ItalicAngle: 0
UnderlinePosition: -101
UnderlineWidth: 51
Ascent: 820
Descent: 204
InvalidEm: 0
sfntRevision: 0x00010000
LayerCount: 2
Layer: 0 1 "Back" 1
Layer: 1 1 "Fore" 0
HasVMetrics: 1
XUID: [1021 327 -1561586756 14409]
StyleMap: 0x0000
FSType: 0
OS2Version: 4
OS2_WeightWidthSlopeOnly: 0
OS2_UseTypoMetrics: 1
CreationTime: 1555766522
ModificationTime: 1624746431
PfmFamily: 17
TTFWeight: 400
TTFWidth: 5
LineGap: 92
VLineGap: 92
Panose: 2 0 5 9 0 0 0 0 0 0
OS2TypoAscent: 820
OS2TypoAOffset: 0
OS2TypoDescent: -204
OS2TypoDOffset: 0
OS2TypoLinegap: 92
OS2WinAscent: 805
OS2WinAOffset: 0
OS2WinDescent: 189
OS2WinDOffset: 0
HheadAscent: 805
HheadAOffset: 0
HheadDescent: -189
HheadDOffset: 0
OS2SubXSize: 665
OS2SubYSize: 716
OS2SubXOff: 0
OS2SubYOff: 143
OS2SupXSize: 665
OS2SupYSize: 716
OS2SupXOff: 0
OS2SupYOff: 491
OS2StrikeYSize: 51
OS2StrikeYPos: 265
OS2Vendor: 'PfEd'
OS2CodePages: 00000001.00000000
OS2UnicodeRanges: 00000000.08000000.00000000.00000000
Lookup: 4 0 1 "'liga' Custom" { "'liga' Custom Signature"  } ['liga' ('DFLT' <'dflt' > 'egyp' <'dflt' > 'hani' <'dflt' > 'kana' <'dflt' > 'latn' <'dflt' > ) ]
Lookup: 4 0 1 "'liga' Cuneiform" { "'liga' Cuneiform-Kana"  } ['liga' ('DFLT' <'dflt' > 'egyp' <'dflt' > 'hani' <'dflt' > 'kana' <'dflt' > 'latn' <'dflt' > ) ]
Lookup: 4 0 1 "'liga' Hieroform" { "'liga' Hieroform-Latin"  } ['liga' ('DFLT' <'dflt' > 'egyp' <'dflt' > 'hani' <'dflt' > 'kana' <'dflt' > 'latn' <'dflt' > ) ]
Lookup: 1 0 0 "'ss02' Egyptian Transliteration" { "'ss02' Egyptian Transliteration Latin" ("tran") } ['ss02' ('DFLT' <'dflt' > 'egyp' <'dflt' > 'hani' <'dflt' > 'kana' <'dflt' > 'latn' <'dflt' > ) ]
Lookup: 1 0 0 "'ss03' Egyptian Hieratic" { "'ss03' Egyptian Hieratic Latin" ("hier") } ['ss03' ('DFLT' <'dflt' > 'egyp' <'dflt' > 'hani' <'dflt' > 'kana' <'dflt' > 'latn' <'dflt' > ) ]

StartChar: .notdef
Encoding: 1114112 -1 0
Width: 1024
Flags: W
LayerCount: 2
Fore
SplineSet
34 0 m 1,0,-1
 34 682 l 1,1,-1
 486 682 l 5,2,-1
 486 0 l 5,3,-1
 34 0 l 1,0,-1
68 34 m 1,4,-1
 452 34 l 5,5,-1
 452 648 l 5,6,-1
 68 648 l 1,7,-1
 68 34 l 1,4,-1
EndSplineSet
Validated: 1
EndChar

StartChar: uni9C81
Encoding: 40065 40065 3
Width: 1024
VWidth: 0
Flags: W
LayerCount: 2
Fore
SplineSet
937 409 m 1,0,1
 930 363 930 363 892.5 328 c 128,-1,2
 855 293 855 293 808 293 c 0,3,4
 788 293 788 293 768 301 c 0,5,6
 688 331 688 331 603 345 c 128,-1,7
 518 359 518 359 427 359 c 0,8,9
 367 359 367 359 302 352 c 0,10,11
 267 345 267 345 245 339 c 0,12,13
 180 322 180 322 122 301 c 1,14,15
 114 307 114 307 109.5 316.5 c 128,-1,16
 105 326 105 326 105 336 c 0,17,18
 105 356 105 356 116 374 c 128,-1,19
 127 392 127 392 143 404 c 1,20,21
 153 417 153 417 166.5 422.5 c 128,-1,22
 180 428 180 428 196 428 c 0,23,24
 209 428 209 428 234.5 423.5 c 128,-1,25
 260 419 260 419 261 419 c 0,26,27
 271 421 271 421 274 423 c 0,28,29
 281 429 281 429 281 439 c 2,30,-1
 281 487 l 2,31,32
 281 538 281 538 276.5 564 c 128,-1,33
 272 590 272 590 261 613 c 0,34,35
 259 624 259 624 259 627 c 0,36,37
 259 643 259 643 271.5 653 c 128,-1,38
 284 663 284 663 300 663 c 0,39,40
 317 663 317 663 330 653 c 128,-1,41
 343 643 343 643 343 624 c 0,42,43
 343 614 343 614 342.5 605 c 128,-1,44
 342 596 342 596 342 584 c 0,45,46
 342 544 342 544 344 508 c 128,-1,47
 346 472 346 472 353 429 c 1,48,49
 360 426 360 426 366.5 425 c 128,-1,50
 373 424 373 424 382 424 c 0,51,52
 388 424 388 424 398.5 425 c 128,-1,53
 409 426 409 426 413 426 c 0,54,55
 419 426 419 426 430 424 c 0,56,57
 440 426 440 426 443 428 c 0,58,59
 450 434 450 434 450 445 c 0,60,61
 450 473 450 473 451 526 c 128,-1,62
 452 579 452 579 452 604 c 0,63,64
 452 666 452 666 450.5 690.5 c 128,-1,65
 449 715 449 715 445 767 c 1,66,67
 448 787 448 787 462.5 796.5 c 128,-1,68
 477 806 477 806 495 806 c 0,69,70
 524 806 524 806 547 791 c 128,-1,71
 570 776 570 776 570 752 c 0,72,73
 570 748 570 748 568 741 c 0,74,75
 562 721 562 721 559 708 c 128,-1,76
 556 695 556 695 556 688 c 0,77,78
 556 675 556 675 562 669 c 128,-1,79
 568 663 568 663 583 665 c 0,80,81
 653 665 653 665 685.5 663.5 c 128,-1,82
 718 662 718 662 762 654 c 0,83,84
 764 650 764 650 764 648 c 0,85,86
 767 639 767 639 767 635 c 0,87,88
 767 624 767 624 762.5 616.5 c 128,-1,89
 758 609 758 609 747 603 c 1,90,-1
 568 603 l 1,91,-1
 558 598 l 1,92,-1
 553 439 l 1,93,94
 558 427 558 427 577 426 c 256,95,96
 596 425 596 425 606 424 c 0,97,98
 617 424 617 424 674.5 420 c 128,-1,99
 732 416 732 416 802 412.5 c 128,-1,100
 872 409 872 409 937 409 c 1,0,1
935 -95 m 1,101,102
 925 -129 925 -129 892.5 -158 c 128,-1,103
 860 -187 860 -187 823 -187 c 0,104,105
 810 -187 810 -187 801 -185 c 128,-1,106
 792 -183 792 -183 781 -177 c 0,107,108
 751 -149 751 -149 717 -102 c 0,109,110
 629 20 629 20 622 28 c 1,111,112
 611 28 611 28 604 11 c 0,113,114
 593 -17 593 -17 592 -18 c 0,115,116
 578 -65 578 -65 534 -108 c 0,117,118
 509 -132 509 -132 448 -177 c 1,119,120
 431 -182 431 -182 412 -182 c 0,121,122
 387 -182 387 -182 370.5 -171.5 c 128,-1,123
 354 -161 354 -161 351 -136 c 1,124,125
 366 -125 366 -125 402 -113 c 0,126,127
 422 -107 422 -107 433 -100 c 0,128,129
 442 -96 442 -96 447 -94 c 0,130,131
 478 -77 478 -77 494 -49 c 1,132,133
 463 -52 463 -52 433 -22 c 0,134,135
 410 2 410 2 387 28 c 1,136,137
 376 28 376 28 367 12 c 0,138,139
 356 -9 356 -9 351 -13 c 0,140,141
 320 -67 320 -67 286 -98 c 0,142,143
 240 -142 240 -142 188 -142 c 0,144,145
 177 -142 177 -142 172 -141 c 0,146,147
 145 -136 145 -136 130 -125 c 0,148,149
 110 -111 110 -111 110 -87 c 0,150,151
 110 -82 110 -82 110 -79 c 0,152,153
 188 -63 188 -63 247 -15 c 0,154,155
 313 37 313 37 331 110 c 0,156,157
 337 142 337 142 341 164 c 0,158,159
 351 229 351 229 351 284 c 1,160,161
 363 304 363 304 385 304 c 0,162,163
 406 304 406 304 421 289 c 128,-1,164
 436 274 436 274 433 253 c 0,165,166
 430 223 430 223 428 202 c 0,167,168
 420 141 420 141 407 90 c 1,169,170
 427 75 427 75 481 29 c 0,171,172
 514 1 514 1 525 -8 c 1,173,-1
 541 18 l 1,174,175
 556 61 556 61 561 109 c 128,-1,176
 566 157 566 157 566 218 c 2,177,-1
 566 284 l 1,178,179
 573 300 573 300 585.5 312 c 128,-1,180
 598 324 598 324 611 324 c 0,181,182
 623 324 623 324 633 315 c 0,183,184
 640 310 640 310 643 305 c 0,185,186
 654 291 654 291 654 273 c 0,187,188
 654 267 654 267 652.5 249 c 128,-1,189
 651 231 651 231 649 210 c 0,190,191
 643 150 643 150 633 95 c 1,192,193
 652 78 652 78 673 62 c 0,194,195
 721 25 721 25 781 -13 c 0,196,197
 864 -65 864 -65 935 -95 c 1,101,102
EndSplineSet
Validated: 33
EndChar

StartChar: uni540B
Encoding: 21515 21515 4
Width: 1024
VWidth: 2048
LayerCount: 2
Fore
SplineSet
309 439.5 m 128,-1,1
 265.5 439.5 265.5 439.5 265.5 491.5 c 0,2,3
 265.5 517 265.5 517 277 557 c 0,4,5
 291 605.5 291 605.5 293.5 621.5 c 2,6,-1
 297.5 649 l 1,7,-1
 260.5 644 l 2,8,9
 241.5 641.5 241.5 641.5 209.5 632 c 0,10,11
 155.5 616 155.5 616 110 616 c 0,12,13
 49.5 616 49.5 616 49.5 659.5 c 128,-1,14
 49.5 703 49.5 703 110 703 c 0,15,16
 155.5 703 155.5 703 209.5 687 c 0,17,18
 241.5 677.5 241.5 677.5 260.5 675 c 2,19,-1
 297.5 670 l 1,20,-1
 293.5 697.5 l 2,21,22
 291 713.5 291 713.5 277 762 c 0,23,24
 265.5 802 265.5 802 265.5 827.5 c 0,25,26
 265.5 879.5 265.5 879.5 309 879.5 c 128,-1,27
 352.5 879.5 352.5 879.5 352.5 827.5 c 0,28,29
 352.5 802 352.5 802 341 762 c 0,30,31
 327 712 327 712 324.5 697 c 2,32,-1
 320.5 671.5 l 1,33,34
 369 671.5 369 671.5 425.5 685.5 c 0,35,36
 484 700 484 700 512.5 720.5 c 1,37,38
 541 700 541 700 599.5 685.5 c 0,39,40
 656 671.5 656 671.5 704.5 671.5 c 1,41,-1
 700.5 697 l 2,42,43
 698 712 698 712 684 762 c 0,44,45
 672.5 802 672.5 802 672.5 827.5 c 0,46,47
 672.5 879.5 672.5 879.5 716 879.5 c 128,-1,48
 759.5 879.5 759.5 879.5 759.5 827.5 c 0,49,50
 759.5 802 759.5 802 748 762 c 0,51,52
 734 713.5 734 713.5 731.5 697.5 c 2,53,-1
 727.5 670 l 1,54,-1
 764.5 675 l 2,55,56
 783.5 677.5 783.5 677.5 815.5 687 c 0,57,58
 869.5 703 869.5 703 915 703 c 0,59,60
 975.5 703 975.5 703 975.5 659.5 c 128,-1,61
 975.5 616 975.5 616 915 616 c 0,62,63
 869.5 616 869.5 616 815.5 632 c 0,64,65
 783.5 641.5 783.5 641.5 764.5 644 c 2,66,-1
 727.5 649 l 1,67,-1
 731.5 621.5 l 2,68,69
 734 605.5 734 605.5 748 557 c 0,70,71
 759.5 517 759.5 517 759.5 491.5 c 0,72,73
 759.5 439.5 759.5 439.5 716 439.5 c 128,-1,74
 672.5 439.5 672.5 439.5 672.5 491.5 c 0,75,76
 672.5 517 672.5 517 684 557 c 0,77,78
 698 607 698 607 700.5 622 c 2,79,-1
 704.5 647.5 l 1,80,81
 656 647.5 656 647.5 599.5 633.5 c 0,82,83
 541 619 541 619 512.5 598.5 c 1,84,85
 484 619 484 619 425.5 633.5 c 0,86,87
 369 647.5 369 647.5 320.5 647.5 c 1,88,-1
 324.5 622 l 2,89,90
 327 607 327 607 341 557 c 0,91,92
 352.5 517 352.5 517 352.5 491.5 c 0,93,0
 352.5 439.5 352.5 439.5 309 439.5 c 128,-1,1
729 274 m 1,94,-1
 812 272 l 1,95,-1
 889.5 269.5 l 1,96,-1
 932.5 270 l 2,97,98
 936 270 936 270 946.5 268.5 c 0,99,100
 955.217948718 267.987179487 955.217948718 267.987179487 955.5 268 c 2,101,-1
 977.5 269 l 1,102,103
 984 265 984 265 985.25 257.75 c 0,104,105
 986 250 986 250 978.5 239.5 c 0,106,107
 940 183 940 183 919 166.25 c 0,108,109
 898 150 898 150 876.5 148.25 c 0,110,111
 856.701606733 146.980872226 856.701606733 146.980872226 829 156 c 2,112,-1
 786 170 l 2,113,114
 731.833333333 187.333333333 731.833333333 187.333333333 723 189.5 c 2,115,-1
 696.5 196 l 2,116,117
 690 198 690 198 687.75 196.25 c 0,118,119
 685.663019694 194.759299781 685.663019694 194.759299781 685.5 184 c 2,120,-1
 684.5 118 l 1,121,-1
 686.5 12.5 l 2,122,123
 687 -11 687 -11 686 -20.25 c 0,124,125
 686 -50 686 -50 673.75 -84.25 c 0,126,127
 662 -118 662 -118 621 -153 c 0,128,129
 581 -187 581 -187 467.5 -188.5 c 0,130,131
 360 -190 360 -190 312 -148.75 c 0,132,133
 264 -108 264 -108 250.25 -87 c 0,134,135
 237 -66 237 -66 228.75 -50 c 0,136,137
 220 -34 220 -34 220 -30.25 c 0,138,139
 220 -27 220 -27 219.25 -23.25 c 0,140,141
 219 -20 219 -20 224 -18.75 c 0,142,143
 229 -18 229 -18 237.5 -26.5 c 0,144,145
 258 -49 258 -49 300.25 -75.25 c 0,146,147
 341 -101 341 -101 418 -102 c 0,148,149
 452 -102 452 -102 496 -88.25 c 0,150,151
 540 -74 540 -74 556 -41.5 c 0,152,153
 574 -4 574 -4 576 15.75 c 0,154,155
 580 69 580 69 581.75 71.75 c 0,156,157
 583.5 74.2777777778 583.5 74.2777777778 583.5 131 c 2,158,-1
 583.5 167 l 2,159,160
 584 193 584 193 582 197.5 c 0,161,162
 580 203 580 203 575.25 204.75 c 0,163,164
 569.096711799 206.965183752 569.096711799 206.965183752 489 205.5 c 2,165,-1
 407 204 l 2,166,167
 363.078093306 202.5831643 363.078093306 202.5831643 291.25 192.25 c 0,168,169
 220 182 220 182 179.5 170.25 c 0,170,171
 139 159 139 159 107.25 145.75 c 0,172,173
 79 133 79 133 64 133.5 c 0,174,175
 43 134 43 134 40.5 154.25 c 0,176,177
 38 174 38 174 49.5 194 c 0,178,179
 64 220 64 220 86.75 242 c 0,180,181
 116 269 116 269 130.5 266.5 c 0,182,183
 134 266 134 266 145 262.75 c 0,184,185
 156 259 156 259 175.5 259 c 0,186,187
 208.28125 259 208.28125 259 250.5 262.5 c 2,188,-1
 347 270.5 l 2,189,190
 401 275 401 275 489.5 276 c 0,191,192
 514 276 514 276 559.5 274.5 c 0,193,194
 569 274 569 274 571.25 276.25 c 0,195,196
 574 278 574 278 573.75 282.75 c 0,197,198
 574 287 574 287 573.75 289.5 c 0,199,200
 574 292 574 292 573 300.5 c 128,-1,201
 572 309 572 309 572 320 c 2,202,-1
 570.5 344 l 2,203,204
 570 355 570 355 569.75 357.75 c 0,205,206
 570 364 570 364 570.5 371.5 c 0,207,208
 574 416 574 416 612 416 c 0,209,210
 636 416 636 416 659.5 402 c 0,211,212
 682 388 682 388 686.75 378.5 c 0,213,214
 691 368 691 368 691.5 360.5 c 0,215,-1
 692 351 l 2,216,-1
 690 326.5 l 1,217,-1
 689.5 304 l 1,218,-1
 689 290.5 l 2,219,220
 688 290 688 290 688.75 285.5 c 0,221,222
 689 282 689 282 691 279.25 c 0,223,224
 693.220183486 276.752293578 693.220183486 276.752293578 703 276 c 2,225,-1
 729 274 l 1,226,-1
 729 274 l 1,94,-1
336 136 m 1,227,228
 338 153 338 153 346.25 168.25 c 0,229,230
 354 184 354 184 379 184 c 0,231,232
 388 184 388 184 400.75 173.25 c 0,233,234
 414.494511526 160.542810099 414.494511526 160.542810099 416.5 157.5 c 2,235,-1
 431 135.5 l 2,236,237
 440 122 440 122 458.75 105.5 c 0,238,239
 479 88 479 88 491.75 81.5 c 0,240,241
 504 75 504 75 508.5 71.75 c 0,242,243
 512 68 512 68 512.75 64.25 c 0,244,245
 513 60 513 60 504.5 55.5 c 0,246,247
 490 48 490 48 459.5 47.5 c 0,248,249
 422 47 422 47 388.25 64 c 0,250,251
 354 81 354 81 346.25 99 c 0,252,253
 338 117 338 117 336 136 c 1,227,228
EndSplineSet
Validated: 2085
EndChar

StartChar: uni544E
Encoding: 21582 21582 5
Width: 1024
VWidth: 0
LayerCount: 2
Fore
SplineSet
309 439.5 m 128,-1,1
 265.5 439.5 265.5 439.5 265.5 491.5 c 0,2,3
 265.5 517 265.5 517 277 557 c 0,4,5
 291 605.5 291 605.5 293.5 621.5 c 2,6,-1
 297.5 649 l 1,7,-1
 260.5 644 l 2,8,9
 241.5 641.5 241.5 641.5 209.5 632 c 0,10,11
 155.5 616 155.5 616 110 616 c 0,12,13
 49.5 616 49.5 616 49.5 659.5 c 128,-1,14
 49.5 703 49.5 703 110 703 c 0,15,16
 155.5 703 155.5 703 209.5 687 c 0,17,18
 241.5 677.5 241.5 677.5 260.5 675 c 2,19,-1
 297.5 670 l 1,20,-1
 293.5 697.5 l 2,21,22
 291 713.5 291 713.5 277 762 c 0,23,24
 265.5 802 265.5 802 265.5 827.5 c 0,25,26
 265.5 879.5 265.5 879.5 309 879.5 c 128,-1,27
 352.5 879.5 352.5 879.5 352.5 827.5 c 0,28,29
 352.5 802 352.5 802 341 762 c 0,30,31
 327 712 327 712 324.5 697 c 2,32,-1
 320.5 671.5 l 1,33,34
 369 671.5 369 671.5 425.5 685.5 c 0,35,36
 484 700 484 700 512.5 720.5 c 1,37,38
 541 700 541 700 599.5 685.5 c 0,39,40
 656 671.5 656 671.5 704.5 671.5 c 1,41,-1
 700.5 697 l 2,42,43
 698 712 698 712 684 762 c 0,44,45
 672.5 802 672.5 802 672.5 827.5 c 0,46,47
 672.5 879.5 672.5 879.5 716 879.5 c 128,-1,48
 759.5 879.5 759.5 879.5 759.5 827.5 c 0,49,50
 759.5 802 759.5 802 748 762 c 0,51,52
 734 713.5 734 713.5 731.5 697.5 c 2,53,-1
 727.5 670 l 1,54,-1
 764.5 675 l 2,55,56
 783.5 677.5 783.5 677.5 815.5 687 c 0,57,58
 869.5 703 869.5 703 915 703 c 0,59,60
 975.5 703 975.5 703 975.5 659.5 c 128,-1,61
 975.5 616 975.5 616 915 616 c 0,62,63
 869.5 616 869.5 616 815.5 632 c 0,64,65
 783.5 641.5 783.5 641.5 764.5 644 c 2,66,-1
 727.5 649 l 1,67,-1
 731.5 621.5 l 2,68,69
 734 605.5 734 605.5 748 557 c 0,70,71
 759.5 517 759.5 517 759.5 491.5 c 0,72,73
 759.5 439.5 759.5 439.5 716 439.5 c 128,-1,74
 672.5 439.5 672.5 439.5 672.5 491.5 c 0,75,76
 672.5 517 672.5 517 684 557 c 0,77,78
 698 607 698 607 700.5 622 c 2,79,-1
 704.5 647.5 l 1,80,81
 656 647.5 656 647.5 599.5 633.5 c 0,82,83
 541 619 541 619 512.5 598.5 c 1,84,85
 484 619 484 619 425.5 633.5 c 0,86,87
 369 647.5 369 647.5 320.5 647.5 c 1,88,-1
 324.5 622 l 2,89,90
 327 607 327 607 341 557 c 0,91,92
 352.5 517 352.5 517 352.5 491.5 c 0,93,0
 352.5 439.5 352.5 439.5 309 439.5 c 128,-1,1
817 -184.5 m 1,94,95
 802 -182 802 -182 787.5 -177 c 0,96,97
 772.389967638 -171.789644013 772.389967638 -171.789644013 744.5 -143 c 2,98,-1
 682.5 -79 l 2,99,100
 612 -6 612 -6 548.75 40.75 c 0,101,102
 485 88 485 88 461.5 101.5 c 0,103,104
 438 114 438 114 418.75 119.25 c 0,105,106
 401 124 401 124 398 140 c 0,107,108
 396 150 396 150 406.75 158 c 0,109,110
 417 166 417 166 416.5 166.25 c 0,111,112
 416 166 416 166 412 166.5 c 2,113,-1
 408 166.5 l 1,114,-1
 394.5 165.5 l 1,115,-1
 386 164 l 2,116,117
 378 163 378 163 372.25 160.25 c 0,118,119
 366 158 366 158 364.75 156.75 c 0,120,121
 363 156 363 156 360.25 152 c 0,122,123
 358 148 358 148 356 134.5 c 0,124,125
 354 120 354 120 347.75 82.25 c 0,126,127
 341 44 341 44 314.5 -19.5 c 128,-1,128
 288 -83 288 -83 253 -109.5 c 128,-1,129
 218 -136 218 -136 183.25 -150.25 c 0,130,131
 148 -164 148 -164 127 -164 c 0,132,133
 81 -164 81 -164 58.75 -131 c 0,134,135
 36 -98 36 -98 38 -89 c 0,136,137
 40 -82 40 -82 96.5 -75 c 0,138,139
 154 -68 154 -68 199.25 -15.5 c 0,140,141
 245 37 245 37 258.75 69.75 c 0,142,143
 272 102 272 102 276 138.25 c 0,144,145
 280 174 280 174 279.75 195.5 c 0,146,147
 280 217 280 217 279 233 c 0,148,149
 277 255 277 255 273 277.5 c 0,150,151
 268.394736842 303.75 268.394736842 303.75 265 314.5 c 2,152,-1
 256 343 l 2,153,154
 253 352 253 352 254 358 c 0,155,156
 254 368 254 368 260.25 379.25 c 0,157,158
 266 390 266 390 279.5 394.75 c 0,159,160
 292 400 292 400 300.5 399.5 c 0,161,162
 308 399 308 399 315 396.5 c 128,-1,163
 322 394 322 394 334.5 386 c 0,164,165
 346 378 346 378 352.5 375.25 c 0,166,167
 355 374 355 374 385.5 372.5 c 0,168,169
 396 372 396 372 441.25 374 c 0,170,171
 504 377 504 377 522.5 376.5 c 0,172,173
 556 376 556 376 598.75 374.75 c 0,174,175
 642 374 642 374 655 373 c 0,176,177
 664 372 664 372 670.75 374 c 0,178,179
 677 376 677 376 691.25 383.5 c 0,180,181
 706 392 706 392 719 391.5 c 0,182,183
 737 391 737 391 758 377.75 c 0,184,185
 782 362 782 362 779 338 c 0,186,187
 778 330 778 330 771.75 309 c 0,188,189
 765 288 765 288 762.25 274.25 c 0,190,191
 760 260 760 260 760 229.25 c 0,192,193
 760 198 760 198 755 185.5 c 0,194,195
 743 158 743 158 714.25 153.5 c 0,196,197
 686 149 686 149 671 154 c 2,198,-1
 660.5 157.5 l 2,199,200
 643.423076923 163.5 643.423076923 163.5 615.5 163.5 c 2,201,-1
 532 163.5 l 2,202,203
 491.787234043 163.946808511 491.787234043 163.946808511 486 162.5 c 0,204,205
 480 161 480 161 482.25 160 c 0,206,207
 483 160 483 160 490 155.5 c 0,208,209
 492 154 492 154 497.75 151 c 0,210,211
 503 148 503 148 532.5 132.25 c 0,212,213
 562 116 562 116 641.25 72.25 c 0,214,215
 720 28 720 28 761 9 c 128,-1,216
 802 -10 802 -10 865.75 -32 c 0,217,218
 930 -54 930 -54 945.75 -55.75 c 0,219,220
 962 -58 962 -58 968.75 -60.25 c 0,221,222
 976 -63 976 -63 976.25 -66 c 0,223,224
 976 -69 976 -69 975.5 -71.5 c 0,225,226
 970 -86 970 -86 960.75 -102 c 0,227,228
 952 -118 952 -118 919.75 -142 c 0,229,230
 888 -166 888 -166 866 -172.5 c 0,231,232
 844 -180 844 -180 817 -184.5 c 1,94,95
523.5 222.5 m 1,233,234
 636 225 636 225 654.25 231 c 0,235,236
 673 237 673 237 674.25 247.5 c 0,237,238
 676 258 676 258 675.5 274.5 c 0,239,240
 675 298 675 298 671.5 306 c 128,-1,241
 668 314 668 314 653.5 316 c 0,242,243
 632.607508532 318.532423208 632.607508532 318.532423208 594.5 319 c 2,244,-1
 513 320 l 2,245,246
 393.899371677 321.026729555 393.899371677 321.026729555 375.5 310.25 c 0,247,248
 358.494998275 300.289927561 358.494998275 300.289927561 358 279.5 c 2,249,-1
 357.5 258.5 l 1,250,-1
 357.5 252 l 2,251,252
 358 238 358 238 361.5 230.75 c 0,253,254
 365.909054163 223.156628941 365.909054163 223.156628941 403.5 223 c 2,255,-1
 523.5 222.5 l 1,233,234
EndSplineSet
Validated: 2081
EndChar

StartChar: uni358A
Encoding: 13706 13706 6
Width: 1024
VWidth: 0
LayerCount: 2
Fore
SplineSet
309 439.5 m 128,-1,1
 265.5 439.5 265.5 439.5 265.5 491.5 c 0,2,3
 265.5 517 265.5 517 277 557 c 0,4,5
 291 605.5 291 605.5 293.5 621.5 c 2,6,-1
 297.5 649 l 1,7,-1
 260.5 644 l 2,8,9
 241.5 641.5 241.5 641.5 209.5 632 c 0,10,11
 155.5 616 155.5 616 110 616 c 0,12,13
 49.5 616 49.5 616 49.5 659.5 c 128,-1,14
 49.5 703 49.5 703 110 703 c 0,15,16
 155.5 703 155.5 703 209.5 687 c 0,17,18
 241.5 677.5 241.5 677.5 260.5 675 c 2,19,-1
 297.5 670 l 1,20,-1
 293.5 697.5 l 2,21,22
 291 713.5 291 713.5 277 762 c 0,23,24
 265.5 802 265.5 802 265.5 827.5 c 0,25,26
 265.5 879.5 265.5 879.5 309 879.5 c 128,-1,27
 352.5 879.5 352.5 879.5 352.5 827.5 c 0,28,29
 352.5 802 352.5 802 341 762 c 0,30,31
 327 712 327 712 324.5 697 c 2,32,-1
 320.5 671.5 l 1,33,34
 369 671.5 369 671.5 425.5 685.5 c 0,35,36
 484 700 484 700 512.5 720.5 c 1,37,38
 541 700 541 700 599.5 685.5 c 0,39,40
 656 671.5 656 671.5 704.5 671.5 c 1,41,-1
 700.5 697 l 2,42,43
 698 712 698 712 684 762 c 0,44,45
 672.5 802 672.5 802 672.5 827.5 c 0,46,47
 672.5 879.5 672.5 879.5 716 879.5 c 128,-1,48
 759.5 879.5 759.5 879.5 759.5 827.5 c 0,49,50
 759.5 802 759.5 802 748 762 c 0,51,52
 734 713.5 734 713.5 731.5 697.5 c 2,53,-1
 727.5 670 l 1,54,-1
 764.5 675 l 2,55,56
 783.5 677.5 783.5 677.5 815.5 687 c 0,57,58
 869.5 703 869.5 703 915 703 c 0,59,60
 975.5 703 975.5 703 975.5 659.5 c 128,-1,61
 975.5 616 975.5 616 915 616 c 0,62,63
 869.5 616 869.5 616 815.5 632 c 0,64,65
 783.5 641.5 783.5 641.5 764.5 644 c 2,66,-1
 727.5 649 l 1,67,-1
 731.5 621.5 l 2,68,69
 734 605.5 734 605.5 748 557 c 0,70,71
 759.5 517 759.5 517 759.5 491.5 c 0,72,73
 759.5 439.5 759.5 439.5 716 439.5 c 128,-1,74
 672.5 439.5 672.5 439.5 672.5 491.5 c 0,75,76
 672.5 517 672.5 517 684 557 c 0,77,78
 698 607 698 607 700.5 622 c 2,79,-1
 704.5 647.5 l 1,80,81
 656 647.5 656 647.5 599.5 633.5 c 0,82,83
 541 619 541 619 512.5 598.5 c 1,84,85
 484 619 484 619 425.5 633.5 c 0,86,87
 369 647.5 369 647.5 320.5 647.5 c 1,88,-1
 324.5 622 l 2,89,90
 327 607 327 607 341 557 c 0,91,92
 352.5 517 352.5 517 352.5 491.5 c 0,93,0
 352.5 439.5 352.5 439.5 309 439.5 c 128,-1,1
455 108.5 m 1,94,-1
 440.5 116 l 2,95,96
 406.275972427 134.31708518 406.275972427 134.31708518 381.5 138 c 2,97,-1
 344.5 143.5 l 2,98,99
 337 145 337 145 327.5 150.25 c 0,100,101
 319 156 319 156 318 171 c 128,-1,102
 317 186 317 186 332.75 196.75 c 0,103,104
 348 208 348 208 366.5 208 c 0,105,106
 376 208 376 208 385.25 205.5 c 0,107,108
 394 203 394 203 423.25 191 c 0,109,110
 452 179 452 179 460 174 c 128,-1,111
 468 169 468 169 470.5 169.5 c 128,-1,112
 473 170 473 170 477.25 174.75 c 0,113,114
 479.559001513 177.47881997 479.559001513 177.47881997 481 196.5 c 2,115,-1
 483.5 229.5 l 2,116,117
 484 232 484 232 478.75 237 c 0,118,119
 476 240 476 240 464 240.5 c 0,120,121
 443 241 443 241 371.5 238.25 c 0,122,123
 298.145978153 235.006454816 298.145978153 235.006454816 270.5 226.5 c 2,124,-1
 244.5 218.5 l 2,125,126
 209 208 209 208 197.75 219.5 c 0,127,128
 186 232 186 232 185.75 243.25 c 0,129,130
 185 255 185 255 195.5 270.5 c 0,131,132
 212 295 212 295 238.5 308.75 c 0,133,134
 265.511111111 322.746666667 265.511111111 322.746666667 288 316 c 2,135,-1
 308 310 l 2,136,137
 325 305 325 305 441 301 c 0,138,139
 470 300 470 300 474.5 306.25 c 0,140,141
 479 312 479 312 479.5 322.5 c 0,142,143
 480 334 480 334 476.25 357 c 0,144,145
 473 380 473 380 473.5 390.5 c 0,146,147
 474 406 474 406 481 415.75 c 0,148,149
 488 426 488 426 512.5 425.5 c 0,150,151
 528 425 528 425 543 416.75 c 0,152,153
 558 408 558 408 565.75 394.5 c 0,154,155
 574 380 574 380 576.75 359 c 0,156,157
 580 338 580 338 580.25 323.75 c 0,158,159
 580 310 580 310 583.25 307.75 c 0,160,161
 586 306 586 306 609.75 305.25 c 0,162,163
 634 305 634 305 693 301.75 c 0,164,165
 752 298 752 298 799.25 300.25 c 0,166,167
 846 302 846 302 855.75 287.75 c 0,168,169
 866 274 866 274 865.5 263.5 c 0,170,171
 865 234 865 234 839.5 234.25 c 0,172,173
 828.408284024 234.00887574 828.408284024 234.00887574 809.5 234.5 c 2,174,-1
 732.5 236.5 l 1,175,-1
 722.5 236.5 l 1,176,-1
 606.5 234.5 l 1,177,-1
 592.5 235 l 2,178,179
 586 235 586 235 582 232.5 c 128,-1,180
 578 230 578 230 577.5 213.5 c 0,181,182
 576 197 576 197 575.75 189 c 0,183,184
 575.040229885 180.482758621 575.040229885 180.482758621 572.5 167 c 2,185,-1
 566 132.5 l 2,186,187
 565 128 565 128 565.25 126.5 c 0,188,189
 566 124 566 124 566.25 121.5 c 0,190,191
 566.809825674 119.633914422 566.809825674 119.633914422 575 115 c 2,192,-1
 651 72 l 2,193,194
 731.615384615 31.6923076923 731.615384615 31.6923076923 747.25 24.25 c 0,195,196
 815 -8 815 -8 879.5 -29 c 128,-1,197
 944 -50 944 -50 958.75 -51.75 c 0,198,199
 974 -54 974 -54 977.75 -56.75 c 0,200,201
 982 -60 982 -60 982.75 -64.5 c 0,202,203
 984 -69 984 -69 978 -76.5 c 0,204,205
 961 -100 961 -100 931.5 -125.25 c 0,206,207
 902 -150 902 -150 872 -161.5 c 0,208,209
 842 -172 842 -172 828 -172 c 0,210,211
 808 -172 808 -172 788 -161.5 c 128,-1,212
 768 -151 768 -151 751.5 -136.5 c 0,213,214
 739.935267857 -126.337053571 739.935267857 -126.337053571 687 -77.5 c 2,215,-1
 609.5 -6 l 2,216,217
 549 50 549 50 542.75 50.5 c 0,218,219
 537.421834061 50.9633187773 537.421834061 50.9633187773 532 43 c 2,220,-1
 516 19.5 l 2,221,222
 506 4 506 4 446.5 -43.25 c 0,223,224
 391 -88 391 -88 317.75 -106 c 0,225,226
 244 -124 244 -124 201 -124 c 0,227,228
 170 -124 170 -124 115.5 -115.5 c 128,-1,229
 61 -107 61 -107 52.25 -88.25 c 0,230,231
 44 -70 44 -70 43.5 -61.5 c 0,232,233
 44 -48 44 -48 48.75 -46.25 c 0,234,235
 62.4320652174 -42.8940217391 62.4320652174 -42.8940217391 66 -43 c 2,236,-1
 116.5 -44.5 l 2,237,238
 200 -47 200 -47 258.5 -33 c 128,-1,239
 317 -19 317 -19 355 -1.25 c 0,240,241
 393 16 393 16 415 36.75 c 0,242,243
 437 57 437 57 449.5 76.5 c 128,-1,244
 461.901768173 95.8467583497 461.901768173 95.8467583497 461 97.5 c 2,245,-1
 455 108.5 l 1,246,-1
 455 108.5 l 1,94,-1
EndSplineSet
Validated: 37
EndChar

StartChar: uni5521
Encoding: 21793 21793 7
Width: 1024
VWidth: 0
LayerCount: 2
Fore
SplineSet
773 677 m 1,0,1
 790.5 674 790.5 674 808.5 666.75 c 128,-1,2
 826.5 659.5 826.5 659.5 830 643 c 128,-1,3
 833.5 626.5 833.5 626.5 833.5 623 c 0,4,5
 833 621 833 621 833 618 c 2,6,-1
 828.5 584.5 l 2,7,8
 825 556.5 825 556.5 824.75 520 c 128,-1,9
 824.5 483.5 824.5 483.5 827 438 c 0,10,11
 828 409 828 409 830.75 372 c 128,-1,12
 833.5 335 833.5 335 833.5 317.5 c 0,13,14
 833 297 833 297 826.5 281.5 c 128,-1,15
 820 266 820 266 800.5 257.5 c 128,-1,16
 781 249 781 249 766.25 248.75 c 128,-1,17
 751.5 248.5 751.5 248.5 745.5 254.5 c 0,18,19
 740 259 740 259 738 267.5 c 128,-1,20
 736 276 736 276 735.75 285.25 c 128,-1,21
 735.5 294.5 735.5 294.5 736 296 c 2,22,-1
 738.5 369 l 2,23,24
 738.5 370 738.5 370 738.25 379.25 c 128,-1,25
 738 388.5 738 388.5 735.5 388 c 128,-1,26
 733 387.5 733 387.5 729 385.5 c 2,27,-1
 722 381.5 l 2,28,29
 716.5 378.5 716.5 378.5 711 378.5 c 0,30,31
 708 378 708 378 690.75 385 c 128,-1,32
 673.5 392 673.5 392 639.5 426 c 128,-1,33
 605.5 460 605.5 460 602.25 460.25 c 128,-1,34
 599 460.5 599 460.5 593 451 c 2,35,-1
 577 426 l 2,36,37
 552 390 552 390 515.75 365.75 c 128,-1,38
 479.5 341.5 479.5 341.5 460.25 358 c 128,-1,39
 441 374.5 441 374.5 441.25 379.75 c 128,-1,40
 441.5 385 441.5 385 452 392.5 c 2,41,-1
 474 407.5 l 2,42,43
 481.5 412.5 481.5 412.5 488.5 419.75 c 128,-1,44
 495.5 427 495.5 427 495.75 429.75 c 128,-1,45
 496 432.5 496 432.5 489.5 438 c 2,46,-1
 448.5 467.5 l 2,47,48
 442 472.5 442 472.5 439.5 472.5 c 0,49,50
 435.5 472 435.5 472 429.5 464 c 2,51,-1
 408.5 430.5 l 2,52,53
 370.5 372.5 370.5 372.5 313 373 c 0,54,55
 306.5 373 306.5 373 294 380 c 0,56,57
 291 379.5 291 379.5 282 359.25 c 128,-1,58
 273 339 273 339 267.75 329.5 c 128,-1,59
 262.5 320 262.5 320 236.75 295.5 c 128,-1,60
 211 271 211 271 174 271.5 c 0,61,62
 117.5 272 117.5 272 107 300.75 c 128,-1,63
 96.5 329.5 96.5 329.5 97 333 c 0,64,65
 97 342 97 342 104.5 346.75 c 128,-1,66
 112 351.5 112 351.5 141.25 360.25 c 128,-1,67
 170.5 369 170.5 369 197.5 410.25 c 128,-1,68
 224.5 451.5 224.5 451.5 231.25 480.75 c 128,-1,69
 238 510 238 510 238 537 c 0,70,71
 237.5 555.5 237.5 555.5 235.25 573.5 c 128,-1,72
 233 591.5 233 591.5 228.75 612.75 c 128,-1,73
 224.5 634 224.5 634 225.5 645 c 0,74,75
 226.5 663.5 226.5 663.5 238.5 673 c 128,-1,76
 250.5 682.5 250.5 682.5 264 682.25 c 128,-1,77
 277.5 682 277.5 682 287.5 677 c 2,78,-1
 304 668 l 2,79,80
 311 664 311 664 349.25 665.75 c 128,-1,81
 387.5 667.5 387.5 667.5 390.5 671 c 0,82,83
 392 672.5 392 672.5 392 677.25 c 2,84,-1
 392 683 l 1,85,-1
 392 704.5 l 1,86,-1
 391 719 l 2,87,88
 390 731 390 731 388 733.75 c 128,-1,89
 386 736.5 386 736.5 373 737 c 0,90,91
 344.5 737 344.5 737 266.75 730.5 c 128,-1,92
 189 724 189 724 163.75 717.75 c 128,-1,93
 138.5 711.5 138.5 711.5 115 703.25 c 128,-1,94
 91.5 695 91.5 695 81.5 696 c 0,95,96
 70 696.5 70 696.5 65.5 701.75 c 128,-1,97
 61 707 61 707 61 716.5 c 128,-1,98
 61 726 61 726 66.5 737.5 c 0,99,100
 79.5 763 79.5 763 112 784 c 128,-1,101
 144.5 805 144.5 805 174.5 806 c 0,102,103
 182 806 182 806 207.75 801.75 c 128,-1,104
 233.5 797.5 233.5 797.5 267 797.5 c 0,105,106
 297.5 797 297.5 797 367 800.5 c 128,-1,107
 436.5 804 436.5 804 506 803.5 c 2,108,-1
 649.5 801.5 l 2,109,110
 763.5 799.5 763.5 799.5 812.5 797.5 c 128,-1,111
 861.5 795.5 861.5 795.5 904 796.5 c 2,112,-1
 949.5 797.5 l 2,113,114
 961.5 797.5 961.5 797.5 962.5 790.5 c 128,-1,115
 963.5 783.5 963.5 783.5 958 774.5 c 0,116,117
 923 719.5 923 719.5 891.75 705 c 128,-1,118
 860.5 690.5 860.5 690.5 846.5 691 c 0,119,120
 834.5 691 834.5 691 816.5 697.5 c 2,121,-1
 788 708 l 2,122,123
 757.5 718.5 757.5 718.5 717.25 727.25 c 128,-1,124
 677 736 677 736 652 735.5 c 0,125,126
 640 735 640 735 639 732.25 c 128,-1,127
 638 729.5 638 729.5 638 725.5 c 2,128,-1
 638 699 l 1,129,-1
 638 680 l 2,130,131
 638 669.5 638 669.5 640 667.25 c 128,-1,132
 642 665 642 665 676.5 662.5 c 2,133,-1
 708.5 660 l 1,134,-1
 723.5 658.5 l 2,135,136
 725.5 658.5 725.5 658.5 742.5 666 c 128,-1,137
 759.5 673.5 759.5 673.5 773 677 c 1,0,1
304 433 m 0,138,139
 305.5 431.5 305.5 431.5 315 434 c 128,-1,140
 324.5 436.5 324.5 436.5 348.75 459.25 c 128,-1,141
 373 482 373 482 381 526.5 c 128,-1,142
 389 571 389 571 389.5 588 c 128,-1,143
 390 605 390 605 387.5 608 c 0,144,145
 384.5 610.5 384.5 610.5 350.5 611.5 c 0,146,147
 324.5 612 324.5 612 318 602.75 c 128,-1,148
 311.5 593.5 311.5 593.5 311.75 573.5 c 128,-1,149
 312 553.5 312 553.5 311 521 c 0,150,151
 308.5 471 308.5 471 304.75 453 c 128,-1,152
 301 435 301 435 304 433 c 0,138,139
454 541 m 1,153,-1
 461.5 532 l 1,154,-1
 492.5 501 l 1,155,-1
 518 477 l 2,156,157
 524 471 524 471 526.5 470.5 c 128,-1,158
 529 470 529 470 533 484.5 c 0,159,160
 541 513 541 513 546.75 537.25 c 128,-1,161
 552.5 561.5 552.5 561.5 552.5 593 c 0,162,163
 552 602.5 552 602.5 547.5 607.5 c 128,-1,164
 543 612.5 543 612.5 504 611.5 c 2,165,-1
 474.5 610.5 l 2,166,167
 466.5 610 466.5 610 463.5 607.25 c 128,-1,168
 460.5 604.5 460.5 604.5 459.75 591.25 c 128,-1,169
 459 578 459 578 457.5 569.5 c 2,170,-1
 454 549 l 1,171,-1
 454 541 l 1,153,-1
553.5 735.5 m 1,172,-1
 538.5 737 l 1,173,-1
 511 737.5 l 1,174,-1
 490.5 737 l 2,175,176
 469 736 469 736 466.25 732.5 c 128,-1,177
 463.5 729 463.5 729 464 724 c 2,178,-1
 465 704.5 l 1,179,-1
 464 685 l 2,180,181
 463.5 684 463.5 684 463.75 678 c 128,-1,182
 464 672 464 672 467.5 669.5 c 128,-1,183
 471 667 471 667 476.5 667 c 2,184,-1
 509.5 666.5 l 1,185,-1
 544 665.5 l 2,186,187
 550.5 665 550.5 665 552.75 667.25 c 128,-1,188
 555 669.5 555 669.5 555.5 681.5 c 2,189,-1
 556 708 l 1,190,-1
 555.5 725 l 1,191,-1
 553.5 735.5 l 1,172,-1
622.5 532 m 2,192,-1
 627.5 532.5 l 2,193,194
 632.5 533 632.5 533 644.5 523.25 c 128,-1,195
 656.5 513.5 656.5 513.5 673.75 490.5 c 128,-1,196
 691 467.5 691 467.5 712 446.5 c 128,-1,197
 733 425.5 733 425.5 735.75 426 c 128,-1,198
 738.5 426.5 738.5 426.5 739 438 c 2,199,-1
 740 475.5 l 1,200,-1
 741 582 l 2,201,202
 741 594.5 741 594.5 733.5 601.25 c 128,-1,203
 726 608 726 608 683.25 608.75 c 128,-1,204
 640.5 609.5 640.5 609.5 637.25 607.25 c 128,-1,205
 634 605 634 605 624.25 568 c 128,-1,206
 614.5 531 614.5 531 622.5 532 c 2,192,-1
309 -190.5 m 0,207,208
 264 -190 264 -190 265.5 -138.5 c 0,209,210
 266 -113 266 -113 277 -73 c 0,211,212
 291.813513514 -20.0945945946 291.813513514 -20.0945945946 293.5 -8.5 c 2,213,-1
 297.5 19 l 1,214,-1
 260.5 14 l 2,215,216
 241 11 241 11 209.5 2 c 0,217,218
 156 -14 156 -14 110 -14 c 0,219,220
 50 -14 50 -14 49.5 29.5 c 0,221,222
 50 73 50 73 110 73 c 0,223,224
 156 73 156 73 209.5 57 c 0,225,226
 243.423076923 47.3076923077 243.423076923 47.3076923077 260.5 45 c 2,227,-1
 297.5 40 l 1,228,-1
 293.5 67.5 l 2,229,230
 291 82 291 82 277 132 c 0,231,232
 266 172 266 172 265.5 197.5 c 0,233,234
 266 250 266 250 309 249.5 c 0,235,236
 354 250 354 250 352.5 197.5 c 0,237,238
 352 172 352 172 341 132 c 0,239,240
 326.161538462 77.5923076923 326.161538462 77.5923076923 324.5 67 c 2,241,-1
 320.5 41.5 l 1,242,243
 369 42 369 42 425.5 55.5 c 0,244,245
 484 70 484 70 512.5 90.5 c 1,246,247
 541 70 541 70 599.5 55.5 c 0,248,249
 656 42 656 42 704.5 41.5 c 1,250,-1
 700.5 67 l 2,251,252
 697 87 697 87 684 132 c 0,253,254
 672 172 672 172 672.5 197.5 c 0,255,256
 672 249 672 249 716 249.5 c 0,257,258
 758 250 758 250 759.5 197.5 c 0,259,260
 760 172 760 172 748 132 c 0,261,262
 733.186486486 79.0945945946 733.186486486 79.0945945946 731.5 67.5 c 2,263,-1
 727.5 40 l 1,264,-1
 764.5 45 l 2,265,266
 784 48 784 48 815.5 57 c 0,267,268
 870 73 870 73 915 73 c 0,269,270
 976 73 976 73 975.5 29.5 c 0,271,272
 976 -14 976 -14 915 -14 c 0,273,274
 870 -14 870 -14 815.5 2 c 0,275,276
 781.576923077 11.6923076923 781.576923077 11.6923076923 764.5 14 c 2,277,-1
 727.5 19 l 1,278,-1
 731.5 -8.5 l 2,279,280
 734 -23 734 -23 748 -73 c 0,281,282
 760 -113 760 -113 759.5 -138.5 c 0,283,284
 760 -191 760 -191 716 -190.5 c 0,285,286
 674 -190 674 -190 672.5 -138.5 c 0,287,288
 672 -117 672 -117 684 -73 c 0,289,290
 698.838461538 -18.5923076923 698.838461538 -18.5923076923 700.5 -8 c 2,291,-1
 704.5 17.5 l 1,292,293
 656 18 656 18 599.5 3.5 c 0,294,295
 541 -11 541 -11 512.5 -31.5 c 1,296,297
 484 -11 484 -11 425.5 3.5 c 0,298,299
 369 18 369 18 320.5 17.5 c 1,300,-1
 324.5 -8 l 2,301,302
 326 -18 326 -18 341 -73 c 0,303,304
 352 -113 352 -113 352.5 -138.5 c 0,305,306
 352 -191 352 -191 309 -190.5 c 0,207,208
EndSplineSet
Validated: 3105
EndChar

StartChar: uni55D9
Encoding: 21977 21977 8
Width: 1024
VWidth: 0
LayerCount: 2
Fore
SplineSet
251.5 580 m 1,0,1
 249.5 619.5 249.5 619.5 245.5 642.75 c 128,-1,2
 241.5 666 241.5 666 230.5 691 c 128,-1,3
 219.5 716 219.5 716 220.5 726 c 0,4,5
 220.5 733.5 220.5 733.5 229 748.75 c 128,-1,6
 237.5 764 237.5 764 271.5 765 c 0,7,8
 278 765 278 765 286 764 c 128,-1,9
 294 763 294 763 322.75 758.25 c 128,-1,10
 351.5 753.5 351.5 753.5 392 753.5 c 0,11,12
 421 753 421 753 476.75 756 c 128,-1,13
 532.5 759 532.5 759 566 768.25 c 128,-1,14
 599.5 777.5 599.5 777.5 612.5 783 c 128,-1,15
 625.5 788.5 625.5 788.5 647 799.75 c 128,-1,16
 668.5 811 668.5 811 674 811.5 c 0,17,18
 677.5 811.5 677.5 811.5 691.75 807 c 128,-1,19
 706 802.5 706 802.5 726.5 787.5 c 128,-1,20
 747 772.5 747 772.5 746.5 750.5 c 0,21,22
 746 743.5 746 743.5 740.5 733 c 128,-1,23
 735 722.5 735 722.5 676.5 715.5 c 2,24,-1
 636 710.5 l 1,25,-1
 580.5 704 l 2,26,27
 545 699.5 545 699.5 468.25 695.75 c 128,-1,28
 391.5 692 391.5 692 373.5 692 c 2,29,-1
 348 692 l 2,30,31
 332.5 692 332.5 692 325.5 683.25 c 128,-1,32
 318.5 674.5 318.5 674.5 320 670.75 c 128,-1,33
 321.5 667 321.5 667 322 667 c 2,34,-1
 322.5 652 l 2,35,36
 322.5 640.5 322.5 640.5 323.75 635.5 c 128,-1,37
 325 630.5 325 630.5 327.25 628.75 c 128,-1,38
 329.5 627 329.5 627 335 627.5 c 2,39,-1
 360.5 630 l 1,40,-1
 446 636 l 1,41,-1
 514.5 641 l 1,42,-1
 612.5 644 l 1,43,-1
 675 646 l 2,44,45
 697.5 646.5 697.5 646.5 723 646.25 c 128,-1,46
 748.5 646 748.5 646 792.5 644.25 c 128,-1,47
 836.5 642.5 836.5 642.5 871 642 c 2,48,-1
 903 641.5 l 1,49,-1
 936.5 641 l 2,50,51
 942.5 640.5 942.5 640.5 950.5 639.75 c 128,-1,52
 958.5 639 958.5 639 965.5 639.5 c 128,-1,53
 972.5 640 972.5 640 974 640 c 0,54,55
 976 639 976 639 976.25 636.5 c 128,-1,56
 976.5 634 976.5 634 976.5 633.5 c 0,57,58
 976 628 976 628 971.25 605.5 c 128,-1,59
 966.5 583 966.5 583 940.75 562.25 c 128,-1,60
 915 541.5 915 541.5 894.75 533 c 128,-1,61
 874.5 524.5 874.5 524.5 861.5 525 c 128,-1,62
 848.5 525.5 848.5 525.5 825.5 531.5 c 2,63,-1
 784.5 541.5 l 1,64,-1
 734 554.5 l 2,65,66
 676 569 676 569 649.5 567 c 0,67,68
 642 566 642 566 638.25 562.5 c 128,-1,69
 634.5 559 634.5 559 633.5 551.25 c 128,-1,70
 632.5 543.5 632.5 543.5 633 534 c 2,71,-1
 633.5 518.5 l 1,72,-1
 634.5 463.5 l 1,73,-1
 636.5 425 l 1,74,-1
 640 343 l 1,75,-1
 644 290 l 2,76,77
 644 286.5 644 286.5 643.25 270.25 c 128,-1,78
 642.5 254 642.5 254 636.75 242.5 c 128,-1,79
 631 231 631 231 616.75 219.25 c 128,-1,80
 602.5 207.5 602.5 207.5 573 207.5 c 0,81,82
 544.5 207 544.5 207 537 223 c 128,-1,83
 529.5 239 529.5 239 529.25 254.75 c 128,-1,84
 529 270.5 529 270.5 530.5 299 c 0,85,86
 531 316.5 531 316.5 532.25 354.75 c 128,-1,87
 533.5 393 533.5 393 533.75 417.75 c 128,-1,88
 534 442.5 534 442.5 534 448 c 2,89,-1
 533 502.5 l 1,90,-1
 532 545.5 l 2,91,92
 531.5 558.5 531.5 558.5 526 563.5 c 128,-1,93
 520.5 568.5 520.5 568.5 503 569.5 c 2,94,-1
 469.5 570.5 l 2,95,96
 467 570.5 467 570.5 445.25 570 c 128,-1,97
 423.5 569.5 423.5 569.5 382 563.75 c 128,-1,98
 340.5 558 340.5 558 334.5 554.5 c 128,-1,99
 328.5 551 328.5 551 325.75 546.5 c 128,-1,100
 323 542 323 542 322.5 528.75 c 128,-1,101
 322 515.5 322 515.5 319.75 489 c 128,-1,102
 317.5 462.5 317.5 462.5 310.25 421 c 128,-1,103
 303 379.5 303 379.5 270.75 347.5 c 128,-1,104
 238.5 315.5 238.5 315.5 192.75 298.25 c 128,-1,105
 147 281 147 281 126.5 281.5 c 0,106,107
 99.5 281.5 99.5 281.5 77.75 300.75 c 128,-1,108
 56 320 56 320 50.25 333 c 128,-1,109
 44.5 346 44.5 346 44 349 c 128,-1,110
 43.5 352 43.5 352 43.5 354.25 c 128,-1,111
 43.5 356.5 43.5 356.5 45 359 c 0,112,113
 47 362 47 362 52 363.5 c 128,-1,114
 57 365 57 365 85 369.75 c 128,-1,115
 113 374.5 113 374.5 151.25 396 c 128,-1,116
 189.5 417.5 189.5 417.5 203.5 432.5 c 128,-1,117
 217.5 447.5 217.5 447.5 230 476 c 128,-1,118
 242.5 504.5 242.5 504.5 246 527 c 128,-1,119
 249.5 549.5 249.5 549.5 251.5 580 c 1,0,1
309 -170.5 m 0,120,121
 264 -170 264 -170 265.5 -118.5 c 0,122,123
 266 -93 266 -93 277 -53 c 0,124,125
 291.813513514 -0.0945945945947 291.813513514 -0.0945945945947 293.5 11.5 c 2,126,-1
 297.5 39 l 1,127,-1
 260.5 34 l 2,128,129
 243 32 243 32 209.5 22 c 0,130,131
 156 6 156 6 110 6 c 0,132,133
 50 6 50 6 49.5 49.5 c 0,134,135
 50 93 50 93 110 93 c 0,136,137
 156 93 156 93 209.5 77 c 0,138,139
 240.766666667 67.6666666667 240.766666667 67.6666666667 260.5 65 c 2,140,-1
 297.5 60 l 1,141,-1
 293.5 87.5 l 2,142,143
 291 102 291 102 277 152 c 0,144,145
 266 192 266 192 265.5 217.5 c 0,146,147
 266 270 266 270 309 269.5 c 0,148,149
 354 270 354 270 352.5 217.5 c 0,150,151
 352 192 352 192 341 152 c 0,152,153
 325.787066246 95.2050473186 325.787066246 95.2050473186 324.5 87 c 2,154,-1
 320.5 61.5 l 1,155,156
 369 62 369 62 425.5 75.5 c 0,157,158
 484 90 484 90 512.5 110.5 c 1,159,160
 541 90 541 90 599.5 75.5 c 0,161,162
 656 62 656 62 704.5 61.5 c 1,163,-1
 700.5 87 l 2,164,165
 697 107 697 107 684 152 c 0,166,167
 672 192 672 192 672.5 217.5 c 0,168,169
 672 269 672 269 716 269.5 c 0,170,171
 758 270 758 270 759.5 217.5 c 0,172,173
 760 192 760 192 748 152 c 0,174,175
 733.186486486 99.0945945946 733.186486486 99.0945945946 731.5 87.5 c 2,176,-1
 727.5 60 l 1,177,-1
 764.5 65 l 2,178,179
 782 67 782 67 815.5 77 c 0,180,181
 870 93 870 93 915 93 c 0,182,183
 976 93 976 93 975.5 49.5 c 0,184,185
 976 6 976 6 915 6 c 0,186,187
 870 6 870 6 815.5 22 c 0,188,189
 784.233333333 31.3333333333 784.233333333 31.3333333333 764.5 34 c 2,190,-1
 727.5 39 l 1,191,-1
 731.5 11.5 l 2,192,193
 734 -3 734 -3 748 -53 c 0,194,195
 760 -93 760 -93 759.5 -118.5 c 0,196,197
 760 -171 760 -171 716 -170.5 c 0,198,199
 674 -170 674 -170 672.5 -118.5 c 0,200,201
 672 -97 672 -97 684 -53 c 0,202,203
 699.212933754 3.79495268139 699.212933754 3.79495268139 700.5 12 c 2,204,-1
 704.5 37.5 l 1,205,206
 656 38 656 38 599.5 23.5 c 0,207,208
 541 9 541 9 512.5 -11.5 c 1,209,210
 484 9 484 9 425.5 23.5 c 0,211,212
 369 38 369 38 320.5 37.5 c 1,213,-1
 324.5 12 l 2,214,215
 326 3 326 3 341 -53 c 0,216,217
 352 -93 352 -93 352.5 -118.5 c 0,218,219
 352 -171 352 -171 309 -170.5 c 0,120,121
EndSplineSet
Validated: 33
EndChar

StartChar: uni547E
Encoding: 21630 21630 9
Width: 1024
VWidth: 0
LayerCount: 2
Fore
SplineSet
370.5 709 m 2,0,1
 370 713 370 713 368.25 716.75 c 128,-1,2
 366.5 720.5 366.5 720.5 356.5 720.5 c 0,3,4
 293 718.5 293 718.5 248.5 708.75 c 128,-1,5
 204 699 204 699 187.75 692.75 c 128,-1,6
 171.5 686.5 171.5 686.5 163.25 687.75 c 128,-1,7
 155 689 155 689 150 696.5 c 128,-1,8
 145 704 145 704 145.5 712.5 c 0,9,10
 145.5 716 145.5 716 149.25 731.5 c 128,-1,11
 153 747 153 747 178.25 772.5 c 128,-1,12
 203.5 798 203.5 798 247 798 c 0,13,14
 255.5 797.5 255.5 797.5 282.25 793.5 c 128,-1,15
 309 789.5 309 789.5 353.5 791 c 2,16,-1
 539.5 797 l 2,17,18
 616.5 799 616.5 799 678.5 799.5 c 2,19,-1
 864.5 798 l 2,20,21
 884 798 884 798 940.5 799 c 0,22,23
 972 799.5 972 799.5 973.5 797.75 c 128,-1,24
 975 796 975 796 975 792.5 c 0,25,26
 974.5 791 974.5 791 973.5 784.75 c 128,-1,27
 972.5 778.5 972.5 778.5 967.25 759.75 c 128,-1,28
 962 741 962 741 934.5 716.5 c 128,-1,29
 907 692 907 692 887 691.5 c 128,-1,30
 867 691 867 691 843.5 695.5 c 2,31,-1
 777.5 707.5 l 2,32,33
 711 719.5 711 719.5 686.5 722.5 c 128,-1,34
 662 725.5 662 725.5 578.5 726.5 c 0,35,36
 539.5 726.5 539.5 726.5 512.75 723 c 128,-1,37
 486 719.5 486 719.5 484 717.25 c 128,-1,38
 482 715 482 715 480.5 704.25 c 128,-1,39
 479 693.5 479 693.5 474.5 673 c 128,-1,40
 470 652.5 470 652.5 465.5 637 c 2,41,-1
 456 606 l 1,42,-1
 449.5 587.5 l 1,43,-1
 446.5 578 l 1,44,-1
 458.5 586.5 l 2,45,46
 467.5 592.5 467.5 592.5 483 593 c 0,47,48
 487.5 593 487.5 593 490.75 592 c 128,-1,49
 494 591 494 591 517.25 580.5 c 128,-1,50
 540.5 570 540.5 570 582.5 573.5 c 2,51,-1
 612.5 576 l 2,52,53
 635.5 577.5 635.5 577.5 651.75 577.75 c 128,-1,54
 668 578 668 578 694.5 574.75 c 128,-1,55
 721 571.5 721 571.5 728.5 572 c 0,56,57
 741.5 572.5 741.5 572.5 762.5 578 c 128,-1,58
 783.5 583.5 783.5 583.5 792.5 583.5 c 0,59,60
 801 583 801 583 816.25 578.5 c 128,-1,61
 831.5 574 831.5 574 842.5 563.75 c 128,-1,62
 853.5 553.5 853.5 553.5 856.5 543.5 c 128,-1,63
 859.5 533.5 859.5 533.5 860 522.75 c 128,-1,64
 860.5 512 860.5 512 851 452 c 0,65,66
 847 428 847 428 845 388.5 c 128,-1,67
 843 349 843 349 842 334 c 128,-1,68
 841 319 841 319 833.75 305.5 c 128,-1,69
 826.5 292 826.5 292 809 283.5 c 128,-1,70
 791.5 275 791.5 275 773 282 c 2,71,-1
 753.5 289 l 2,72,73
 730.5 297 730.5 297 688.5 296.5 c 2,74,-1
 627.5 295.5 l 2,75,76
 625.5 295 625.5 295 614.25 295.25 c 128,-1,77
 603 295.5 603 295.5 572 298 c 128,-1,78
 541 300.5 541 300.5 525.5 293 c 2,79,-1
 499.5 280 l 2,80,81
 467 263.5 467 263.5 452.75 285 c 128,-1,82
 438.5 306.5 438.5 306.5 435.5 322.5 c 128,-1,83
 432.5 338.5 432.5 338.5 430.25 362 c 128,-1,84
 428 385.5 428 385.5 427.5 414 c 2,85,-1
 426 462 l 1,86,-1
 423.5 497.5 l 1,87,-1
 421.5 516 l 1,88,-1
 420 526.5 l 1,89,-1
 416 520 l 1,90,-1
 410 507 l 2,91,92
 366 412 366 412 287.75 366.25 c 128,-1,93
 209.5 320.5 209.5 320.5 156.5 321.5 c 0,94,95
 133.5 321.5 133.5 321.5 101.5 331 c 128,-1,96
 69.5 340.5 69.5 340.5 55 359.25 c 128,-1,97
 40.5 378 40.5 378 41.5 389 c 0,98,99
 42 395.5 42 395.5 45.25 398.25 c 128,-1,100
 48.5 401 48.5 401 93.25 404.25 c 128,-1,101
 138 407.5 138 407.5 223 442 c 128,-1,102
 308 476.5 308 476.5 334.25 551.5 c 128,-1,103
 360.5 626.5 360.5 626.5 364.5 652.75 c 128,-1,104
 368.5 679 368.5 679 369.5 694.5 c 2,105,-1
 370 702.5 l 1,106,-1
 370.5 709 l 2,0,1
527.5 446.5 m 0,107,108
 527.5 424 527.5 424 529.25 406.5 c 128,-1,109
 531 389 531 389 539.25 383 c 128,-1,110
 547.5 377 547.5 377 553 375 c 128,-1,111
 558.5 373 558.5 373 598 373 c 0,112,113
 625 372.5 625 372.5 653.75 372.25 c 128,-1,114
 682.5 372 682.5 372 692 372 c 0,115,116
 729 371.5 729 371.5 734.75 375.5 c 128,-1,117
 740.5 379.5 740.5 379.5 743.75 388.75 c 128,-1,118
 747 398 747 398 748 410.5 c 2,119,-1
 751 456 l 2,120,121
 752 477 752 477 752.25 486.5 c 128,-1,122
 752.5 496 752.5 496 750 501 c 0,123,124
 743.5 512.5 743.5 512.5 720.5 513.5 c 2,125,-1
 682 514.5 l 1,126,-1
 643 516 l 2,127,128
 637.5 516 637.5 516 593.5 513.75 c 128,-1,129
 549.5 511.5 549.5 511.5 541.75 508 c 128,-1,130
 534 504.5 534 504.5 531 499.5 c 128,-1,131
 528 494.5 528 494.5 527.5 480.5 c 2,132,-1
 527 469 l 2,133,134
 526.5 461.5 526.5 461.5 527.5 446.5 c 0,107,108
309 -188.5 m 0,135,136
 264 -188 264 -188 265.5 -136.5 c 0,137,138
 266 -111 266 -111 277 -71 c 0,139,140
 291.358190709 -21.2249388753 291.358190709 -21.2249388753 293.5 -6.5 c 2,141,-1
 297.5 21 l 1,142,-1
 260.5 16 l 2,143,144
 243 14 243 14 209.5 4 c 0,145,146
 156 -12 156 -12 110 -12 c 0,147,148
 50 -12 50 -12 49.5 31.5 c 0,149,150
 50 75 50 75 110 75 c 0,151,152
 156 75 156 75 209.5 59 c 0,153,154
 240.766666667 49.6666666667 240.766666667 49.6666666667 260.5 47 c 2,155,-1
 297.5 42 l 1,156,-1
 293.5 69.5 l 2,157,158
 292 82 292 82 277 134 c 0,159,160
 266 174 266 174 265.5 199.5 c 0,161,162
 266 252 266 252 309 251.5 c 0,163,164
 354 252 354 252 352.5 199.5 c 0,165,166
 352 174 352 174 341 134 c 0,167,168
 326.046511628 78.8590116279 326.046511628 78.8590116279 324.5 69 c 2,169,-1
 320.5 43.5 l 1,170,171
 369 44 369 44 425.5 57.5 c 0,172,173
 484 72 484 72 512.5 92.5 c 1,174,175
 541 72 541 72 599.5 57.5 c 0,176,177
 656 44 656 44 704.5 43.5 c 1,178,-1
 700.5 69 l 2,179,180
 698 87 698 87 684 134 c 0,181,182
 672 174 672 174 672.5 199.5 c 0,183,184
 672 251 672 251 716 251.5 c 0,185,186
 758 252 758 252 759.5 199.5 c 0,187,188
 760 174 760 174 748 134 c 0,189,190
 733.641809291 84.2249388753 733.641809291 84.2249388753 731.5 69.5 c 2,191,-1
 727.5 42 l 1,192,-1
 764.5 47 l 2,193,194
 782 49 782 49 815.5 59 c 0,195,196
 870 75 870 75 915 75 c 0,197,198
 976 75 976 75 975.5 31.5 c 0,199,200
 976 -12 976 -12 915 -12 c 0,201,202
 870 -12 870 -12 815.5 4 c 0,203,204
 784.233333333 13.3333333333 784.233333333 13.3333333333 764.5 16 c 2,205,-1
 727.5 21 l 1,206,-1
 731.5 -6.5 l 2,207,208
 733 -19 733 -19 748 -71 c 0,209,210
 760 -111 760 -111 759.5 -136.5 c 0,211,212
 760 -189 760 -189 716 -188.5 c 0,213,214
 674 -188 674 -188 672.5 -136.5 c 0,215,216
 672 -115 672 -115 684 -71 c 0,217,218
 698.953488372 -15.8590116279 698.953488372 -15.8590116279 700.5 -6 c 2,219,-1
 704.5 19.5 l 1,220,221
 656 20 656 20 599.5 5.5 c 0,222,223
 541 -9 541 -9 512.5 -29.5 c 1,224,225
 484 -9 484 -9 425.5 5.5 c 0,226,227
 369 20 369 20 320.5 19.5 c 1,228,-1
 324.5 -6 l 2,229,230
 325 -12 325 -12 341 -71 c 0,231,232
 352 -111 352 -111 352.5 -136.5 c 0,233,234
 352 -189 352 -189 309 -188.5 c 0,135,136
EndSplineSet
Validated: 2081
EndChar

StartChar: uni544F
Encoding: 21583 21583 10
Width: 1024
VWidth: 0
LayerCount: 2
Fore
SplineSet
309 379.5 m 128,-1,1
 265.5 379.5 265.5 379.5 265.5 431.5 c 0,2,3
 265.5 457 265.5 457 277 497 c 0,4,5
 291 545.5 291 545.5 293.5 561.5 c 2,6,-1
 297.5 589 l 1,7,-1
 260.5 584 l 2,8,9
 241.5 581.5 241.5 581.5 209.5 572 c 0,10,11
 155.5 556 155.5 556 110 556 c 0,12,13
 49.5 556 49.5 556 49.5 599.5 c 128,-1,14
 49.5 643 49.5 643 110 643 c 0,15,16
 155.5 643 155.5 643 209.5 627 c 0,17,18
 241.5 617.5 241.5 617.5 260.5 615 c 2,19,-1
 297.5 610 l 1,20,-1
 293.5 637.5 l 2,21,22
 291 653.5 291 653.5 277 702 c 0,23,24
 265.5 742 265.5 742 265.5 767.5 c 0,25,26
 265.5 819.5 265.5 819.5 309 819.5 c 128,-1,27
 352.5 819.5 352.5 819.5 352.5 767.5 c 0,28,29
 352.5 742 352.5 742 341 702 c 0,30,31
 327 652 327 652 324.5 637 c 2,32,-1
 320.5 611.5 l 1,33,34
 369 611.5 369 611.5 425.5 625.5 c 0,35,36
 484 640 484 640 512.5 660.5 c 1,37,38
 541 640 541 640 599.5 625.5 c 0,39,40
 656 611.5 656 611.5 704.5 611.5 c 1,41,-1
 700.5 637 l 2,42,43
 698 652 698 652 684 702 c 0,44,45
 672.5 742 672.5 742 672.5 767.5 c 0,46,47
 672.5 819.5 672.5 819.5 716 819.5 c 128,-1,48
 759.5 819.5 759.5 819.5 759.5 767.5 c 0,49,50
 759.5 742 759.5 742 748 702 c 0,51,52
 734 653.5 734 653.5 731.5 637.5 c 2,53,-1
 727.5 610 l 1,54,-1
 764.5 615 l 2,55,56
 783.5 617.5 783.5 617.5 815.5 627 c 0,57,58
 869.5 643 869.5 643 915 643 c 0,59,60
 975.5 643 975.5 643 975.5 599.5 c 128,-1,61
 975.5 556 975.5 556 915 556 c 0,62,63
 869.5 556 869.5 556 815.5 572 c 0,64,65
 783.5 581.5 783.5 581.5 764.5 584 c 2,66,-1
 727.5 589 l 1,67,-1
 731.5 561.5 l 2,68,69
 734 545.5 734 545.5 748 497 c 0,70,71
 759.5 457 759.5 457 759.5 431.5 c 0,72,73
 759.5 379.5 759.5 379.5 716 379.5 c 128,-1,74
 672.5 379.5 672.5 379.5 672.5 431.5 c 0,75,76
 672.5 457 672.5 457 684 497 c 0,77,78
 698 547 698 547 700.5 562 c 2,79,-1
 704.5 587.5 l 1,80,81
 656 587.5 656 587.5 599.5 573.5 c 0,82,83
 541 559 541 559 512.5 538.5 c 1,84,85
 484 559 484 559 425.5 573.5 c 0,86,87
 369 587.5 369 587.5 320.5 587.5 c 1,88,-1
 324.5 562 l 2,89,90
 327 547 327 547 341 497 c 0,91,92
 352.5 457 352.5 457 352.5 431.5 c 0,93,0
 352.5 379.5 352.5 379.5 309 379.5 c 128,-1,1
584.5 120.5 m 2,94,95
 585 126 585 126 585 128.75 c 0,96,97
 586 134 586 134 582.25 137 c 0,98,99
 579.132653061 139.87755102 579.132653061 139.87755102 567.5 140 c 2,100,-1
 520 140.5 l 1,101,-1
 464 138.5 l 2,102,103
 451 138 451 138 448 135.25 c 0,104,105
 445.075829384 133.056872038 445.075829384 133.056872038 444.5 122.5 c 2,106,-1
 443 95 l 2,107,108
 440 49 440 49 414.5 -16.25 c 0,109,110
 388 -82 388 -82 320.5 -120.5 c 0,111,112
 255 -157 255 -157 208.5 -156.5 c 0,113,114
 182 -156 182 -156 166 -146.5 c 0,115,116
 150 -138 150 -138 144.75 -131.75 c 0,117,118
 140 -126 140 -126 133 -114 c 128,-1,119
 126 -102 126 -102 127 -98.5 c 0,120,121
 128 -94 128 -94 131 -91 c 128,-1,122
 134 -88 134 -88 158 -85.25 c 0,123,124
 182 -82 182 -82 253 -49 c 128,-1,125
 324 -16 324 -16 342.25 21 c 0,126,127
 360 58 360 58 363.75 79.75 c 0,128,129
 368 102 368 102 367 113.75 c 0,130,131
 366 126 366 126 361 130.75 c 0,132,133
 355.406091371 135.644670051 355.406091371 135.644670051 338 135 c 2,134,-1
 297.5 133.5 l 2,135,136
 245.450637312 132.040672074 245.450637312 132.040672074 157.5 102.5 c 2,137,-1
 92 80.5 l 2,138,139
 54 68 54 68 45.25 81 c 0,140,141
 36 94 36 94 36.5 108 c 0,142,143
 36 129 36 129 45 145.25 c 0,144,145
 54 162 54 162 78 184.75 c 0,146,147
 103.302874082 208.281672896 103.302874082 208.281672896 117.5 204 c 2,148,-1
 149 194.5 l 2,149,150
 157 192 157 192 169.75 192.25 c 0,151,152
 185 192 185 192 272 201.25 c 0,153,154
 359 210 359 210 363.25 216 c 0,155,156
 368 222 368 222 367.5 234 c 128,-1,157
 367 246 367 246 364.75 253.5 c 0,158,159
 362 261 362 261 358.25 264 c 0,160,161
 353.409257004 267.68818514 353.409257004 267.68818514 344 267.5 c 2,162,-1
 294 266.5 l 2,163,164
 249 266 249 266 207.5 281.75 c 0,165,166
 166 298 166 298 163 314.25 c 0,167,168
 160 331 160 331 160.5 334.5 c 0,169,170
 160 346 160 346 170.5 347.5 c 0,171,172
 175 348 175 348 186.5 342.5 c 128,-1,173
 198 337 198 337 234.5 329.5 c 0,174,175
 266 323 266 323 316.5 322.5 c 0,176,177
 360 322 360 322 389.25 331.25 c 0,178,179
 419 340 419 340 437 349.5 c 128,-1,180
 455 359 455 359 469.25 369.75 c 0,181,182
 484 380 484 380 489.75 383 c 0,183,184
 496 386 496 386 503.5 386 c 0,185,186
 524 386 524 386 533.75 371.25 c 0,187,188
 544 356 544 356 544.5 341.75 c 0,189,190
 546 327 546 327 516 306.5 c 0,191,192
 498 294 498 294 473.25 283.75 c 0,193,194
 449 274 449 274 446.5 270.25 c 0,195,196
 444 266 444 266 443.75 263 c 0,197,198
 443.982758621 260.206896552 443.982758621 260.206896552 444 259.5 c 2,199,-1
 444.5 239 l 2,200,201
 445 224 445 224 447.5 220.75 c 0,202,203
 452 214 452 214 463.75 216.75 c 0,204,205
 465 217 465 217 512.5 217.5 c 2,206,-1
 575 218.5 l 2,207,208
 581.711864407 219.338983051 581.711864407 219.338983051 583.75 220.75 c 0,209,210
 587 223 587 223 587 234.5 c 0,211,212
 586 274 586 274 581.5 300.75 c 0,213,214
 577 331 577 331 578 351.5 c 0,215,216
 581 402 581 402 624.5 402 c 0,217,218
 641 402 641 402 659 391.5 c 0,219,220
 677 380 677 380 687.5 363.5 c 0,221,222
 698 346 698 346 699 331.75 c 0,223,224
 699.993000875 317.103237095 699.993000875 317.103237095 695 281 c 2,225,-1
 688.5 234 l 2,226,227
 688 227 688 227 687.75 224.25 c 0,228,229
 688 220 688 220 690 216.75 c 0,230,231
 692 214 692 214 701.25 214.5 c 0,232,233
 719.124780316 215.003514938 719.124780316 215.003514938 762 213 c 2,234,-1
 815.5 210.5 l 1,235,-1
 893 205.5 l 2,236,237
 908 205 908 205 920 205.75 c 0,238,239
 942 208 942 208 956.5 206.5 c 0,240,241
 962 206 962 206 967.5 204 c 0,242,243
 972 202 972 202 972.75 198.5 c 0,244,245
 972.989795918 196.102040816 972.989795918 196.102040816 970.5 190.5 c 2,246,-1
 952.5 150 l 2,247,248
 944 131 944 131 916 106.75 c 0,249,250
 890 84 890 84 859.5 82 c 0,251,252
 839 80 839 80 765.5 104.5 c 0,253,254
 692 128 692 128 690.5 128.25 c 0,255,256
 689 128 689 128 686.5 126.25 c 0,257,258
 684.402061856 125.201030928 684.402061856 125.201030928 684.5 111 c 2,259,-1
 685 38.5 l 1,260,-1
 688.5 -24 l 1,261,-1
 695.5 -95 l 2,262,263
 696 -100 696 -100 696.25 -122 c 0,264,265
 696 -140 696 -140 695 -147.5 c 0,266,267
 692 -166 692 -166 681.5 -176.75 c 0,268,269
 672 -188 672 -188 650 -197 c 128,-1,270
 628 -206 628 -206 613.5 -205 c 0,271,272
 592 -204 592 -204 586.25 -192 c 0,273,274
 578.810209424 -173.528795812 578.810209424 -173.528795812 579 -167 c 2,275,-1
 581.5 -81 l 1,276,-1
 582.5 -29 l 1,277,-1
 584 50 l 1,278,-1
 584.5 120.5 l 2,94,95
EndSplineSet
Validated: 33
EndChar

StartChar: uni561D
Encoding: 22045 22045 11
Width: 1024
VWidth: 0
LayerCount: 2
Fore
SplineSet
740 14.7998046875 m 1,0,-1
 695.5 25.2001953125 l 1,1,-1
 655 33.2001953125 l 2,2,3
 644 35.2001953125 644 35.2001953125 638.25 34.599609375 c 128,-1,4
 632.5 34 632.5 34 631.75 20.599609375 c 128,-1,5
 631 7.2001953125 631 7.2001953125 633.5 -8.400390625 c 0,6,7
 633.5 -11.2001953125 633.5 -11.2001953125 636.5 -58.7998046875 c 128,-1,8
 639.5 -106.400390625 639.5 -106.400390625 639.5 -113.200195312 c 0,9,10
 639 -122.400390625 639 -122.400390625 635.75 -130.200195312 c 128,-1,11
 632.5 -138 632.5 -138 623.25 -144.400390625 c 128,-1,12
 614 -150.799804688 614 -150.799804688 601 -155.599609375 c 128,-1,13
 588 -160.400390625 588 -160.400390625 577.5 -159.599609375 c 0,14,15
 560.5 -158.799804688 560.5 -158.799804688 553.75 -150 c 128,-1,16
 547 -141.200195312 547 -141.200195312 545.75 -126.799804688 c 128,-1,17
 544.5 -112.400390625 544.5 -112.400390625 544.5 -89.2001953125 c 2,18,-1
 544.5 -16.7998046875 l 2,19,20
 544.5 8.7998046875 544.5 8.7998046875 543.5 20.2001953125 c 128,-1,21
 542.5 31.599609375 542.5 31.599609375 539.25 34.599609375 c 128,-1,22
 536 37.599609375 536 37.599609375 522.5 37.599609375 c 0,23,24
 494 37.2001953125 494 37.2001953125 401 30.400390625 c 128,-1,25
 308 23.599609375 308 23.599609375 243.5 13.599609375 c 128,-1,26
 179 3.599609375 179 3.599609375 131.5 -9.7998046875 c 128,-1,27
 84 -23.2001953125 84 -23.2001953125 67.5 -22.7998046875 c 0,28,29
 41.5 -22.400390625 41.5 -22.400390625 41.25 -5.599609375 c 128,-1,30
 41 11.2001953125 41 11.2001953125 41 13.599609375 c 0,31,32
 41.5 27.599609375 41.5 27.599609375 55.75 49.7998046875 c 128,-1,33
 70 72 70 72 93.25 78.599609375 c 128,-1,34
 116.5 85.2001953125 116.5 85.2001953125 141.5 83.2001953125 c 2,35,-1
 174.5 80.400390625 l 2,36,37
 211 77.2001953125 211 77.2001953125 242.5 77.2001953125 c 0,38,39
 250 76.7998046875 250 76.7998046875 388 81.2001953125 c 128,-1,40
 526 85.599609375 526 85.599609375 532 86.2001953125 c 128,-1,41
 538 86.7998046875 538 86.7998046875 540.25 88.2001953125 c 128,-1,42
 542.5 89.599609375 542.5 89.599609375 543 96.2001953125 c 128,-1,43
 543.5 102.799804688 543.5 102.799804688 544 105.200195312 c 2,44,-1
 543.5 116 l 1,45,-1
 542 149.599609375 l 2,46,47
 540.5 175.599609375 540.5 175.599609375 538.25 207.200195312 c 128,-1,48
 536 238.799804688 536 238.799804688 536.5 252.799804688 c 0,49,50
 536.5 262.799804688 536.5 262.799804688 537.25 281.400390625 c 128,-1,51
 538 300 538 300 545 312 c 128,-1,52
 552 324 552 324 571.75 324.599609375 c 128,-1,53
 591.5 325.200195312 591.5 325.200195312 608.5 315.599609375 c 0,54,55
 622 307.599609375 622 307.599609375 628.75 296.799804688 c 128,-1,56
 635.5 286 635.5 286 635.75 275 c 128,-1,57
 636 264 636 264 632 235.200195312 c 0,58,59
 629.5 220 629.5 220 628 183.599609375 c 128,-1,60
 626.5 147.200195312 626.5 147.200195312 626.75 124.799804688 c 128,-1,61
 627 102.400390625 627 102.400390625 626.75 97.2001953125 c 128,-1,62
 626.5 92 626.5 92 630 90.400390625 c 0,63,64
 635.5 86.7998046875 635.5 86.7998046875 806.5 85.2001953125 c 2,65,-1
 887 84.400390625 l 1,66,-1
 930.5 84 l 2,67,68
 932 83.599609375 932 83.599609375 939.5 83.7998046875 c 128,-1,69
 947 84 947 84 960.5 85.2001953125 c 128,-1,70
 974 86.400390625 974 86.400390625 976.25 83.7998046875 c 128,-1,71
 978.5 81.2001953125 978.5 81.2001953125 976.5 74.7998046875 c 0,72,73
 969.5 56.7998046875 969.5 56.7998046875 947 27.400390625 c 128,-1,74
 924.5 -2 924.5 -2 895.25 -10.400390625 c 128,-1,75
 866 -18.7998046875 866 -18.7998046875 799 -0.7998046875 c 2,76,-1
 740 14.7998046875 l 1,0,-1
297 189.599609375 m 1,77,-1
 339 180 l 1,78,-1
 394.5 170.400390625 l 1,79,-1
 421.5 165.200195312 l 1,80,-1
 446 161.599609375 l 2,81,82
 464.5 158.799804688 464.5 158.799804688 460 144.799804688 c 0,83,84
 457.5 137.200195312 457.5 137.200195312 443.75 130.799804688 c 128,-1,85
 430 124.400390625 430 124.400390625 306.5 125.200195312 c 0,86,87
 229 125.200195312 229 125.200195312 214.75 135.799804688 c 128,-1,88
 200.5 146.400390625 200.5 146.400390625 200 156.200195312 c 128,-1,89
 199.5 166 199.5 166 210 177.599609375 c 0,90,91
 236 206 236 206 267.5 197.599609375 c 2,92,-1
 297 189.599609375 l 1,77,-1
316 305.599609375 m 0,93,94
 325.5 305.200195312 325.5 305.200195312 337.25 302.799804688 c 128,-1,95
 349 300.400390625 349 300.400390625 383.75 286.599609375 c 128,-1,96
 418.5 272.799804688 418.5 272.799804688 463.25 261.799804688 c 128,-1,97
 508 250.799804688 508 250.799804688 508 240.400390625 c 0,98,99
 507.5 230 507.5 230 485.25 225.200195312 c 128,-1,100
 463 220.400390625 463 220.400390625 438 220.799804688 c 0,101,102
 403.5 220.799804688 403.5 220.799804688 349 225.799804688 c 128,-1,103
 294.5 230.799804688 294.5 230.799804688 277 241.799804688 c 128,-1,104
 259.5 252.799804688 259.5 252.799804688 259.25 263.799804688 c 128,-1,105
 259 274.799804688 259 274.799804688 265 283.599609375 c 0,106,107
 280 306 280 306 316 305.599609375 c 0,93,94
309 359.5 m 0,108,109
 264 360 264 360 265.5 411.5 c 0,110,111
 266 437 266 437 277 477 c 0,112,113
 291.813513514 529.905405405 291.813513514 529.905405405 293.5 541.5 c 2,114,-1
 297.5 569 l 1,115,-1
 260.5 564 l 2,116,117
 243 562 243 562 209.5 552 c 0,118,119
 156 536 156 536 110 536 c 0,120,121
 50 536 50 536 49.5 579.5 c 0,122,123
 50 623 50 623 110 623 c 0,124,125
 156 623 156 623 209.5 607 c 0,126,127
 240.766666667 597.666666667 240.766666667 597.666666667 260.5 595 c 2,128,-1
 297.5 590 l 1,129,-1
 293.5 617.5 l 2,130,131
 291 632 291 632 277 682 c 0,132,133
 266 722 266 722 265.5 747.5 c 0,134,135
 266 800 266 800 309 799.5 c 0,136,137
 354 800 354 800 352.5 747.5 c 0,138,139
 352 722 352 722 341 682 c 0,140,141
 325.787066246 625.205047319 325.787066246 625.205047319 324.5 617 c 2,142,-1
 320.5 591.5 l 1,143,144
 369 592 369 592 425.5 605.5 c 0,145,146
 484 620 484 620 512.5 640.5 c 1,147,148
 541 620 541 620 599.5 605.5 c 0,149,150
 656 592 656 592 704.5 591.5 c 1,151,-1
 700.5 617 l 2,152,153
 697 637 697 637 684 682 c 0,154,155
 672 722 672 722 672.5 747.5 c 0,156,157
 672 799 672 799 716 799.5 c 0,158,159
 758 800 758 800 759.5 747.5 c 0,160,161
 760 722 760 722 748 682 c 0,162,163
 733.186486486 629.094594595 733.186486486 629.094594595 731.5 617.5 c 2,164,-1
 727.5 590 l 1,165,-1
 764.5 595 l 2,166,167
 782 597 782 597 815.5 607 c 0,168,169
 870 623 870 623 915 623 c 0,170,171
 976 623 976 623 975.5 579.5 c 0,172,173
 976 536 976 536 915 536 c 0,174,175
 870 536 870 536 815.5 552 c 0,176,177
 784.233333333 561.333333333 784.233333333 561.333333333 764.5 564 c 2,178,-1
 727.5 569 l 1,179,-1
 731.5 541.5 l 2,180,181
 734 527 734 527 748 477 c 0,182,183
 760 437 760 437 759.5 411.5 c 0,184,185
 760 359 760 359 716 359.5 c 0,186,187
 674 360 674 360 672.5 411.5 c 0,188,189
 672 433 672 433 684 477 c 0,190,191
 699.212933754 533.794952681 699.212933754 533.794952681 700.5 542 c 2,192,-1
 704.5 567.5 l 1,193,194
 656 568 656 568 599.5 553.5 c 0,195,196
 541 539 541 539 512.5 518.5 c 1,197,198
 484 539 484 539 425.5 553.5 c 0,199,200
 369 568 369 568 320.5 567.5 c 1,201,-1
 324.5 542 l 2,202,203
 326 533 326 533 341 477 c 0,204,205
 352 437 352 437 352.5 411.5 c 0,206,207
 352 359 352 359 309 359.5 c 0,108,109
EndSplineSet
Validated: 2081
EndChar

StartChar: u1F6C7
Encoding: 128711 128711 12
Width: 1024
LayerCount: 2
Fore
SplineSet
921.5 291 m 128,-1,1
 921.5 120.5 921.5 120.5 802 1 c 128,-1,2
 682.5 -118.5 682.5 -118.5 512 -118.5 c 128,-1,3
 341.5 -118.5 341.5 -118.5 222 1 c 128,-1,4
 102.5 120.5 102.5 120.5 102.5 291 c 128,-1,5
 102.5 461.5 102.5 461.5 222 581 c 128,-1,6
 341.5 700.5 341.5 700.5 512 700.5 c 128,-1,7
 682.5 700.5 682.5 700.5 802 581 c 128,-1,0
 921.5 461.5 921.5 461.5 921.5 291 c 128,-1,1
856 291 m 0,8,9
 856 434.5 856 434.5 755.75 534.75 c 128,-1,10
 655.5 635 655.5 635 512 635 c 0,11,12
 384.5 635 384.5 635 288 552.5 c 1,13,-1
 773 67.5 l 1,14,15
 856 164 856 164 856 291 c 0,8,9
724.5 21 m 1,16,-1
 241.5 504 l 1,17,18
 168 410.5 168 410.5 168 291 c 0,19,20
 168 147.5 168 147.5 268.25 47.25 c 128,-1,21
 368.5 -53 368.5 -53 512 -53 c 0,22,23
 631 -53 631 -53 724.5 21 c 1,16,-1
EndSplineSet
Validated: 2049
EndChar

StartChar: u1F01D
Encoding: 127005 127005 13
Width: 1024
Flags: W
LayerCount: 2
Fore
SplineSet
894 -121 m 2,0,1
 894 -195 894 -195 825 -195 c 2,2,-1
 199 -195 l 2,3,4
 130 -195 130 -195 130 -121 c 2,5,-1
 130 705 l 2,6,7
 130 779 130 779 199 779 c 2,8,-1
 825 779 l 2,9,10
 894 779 894 779 894 705 c 2,11,-1
 894 -121 l 2,0,1
877 -121 m 2,12,-1
 877 705 l 2,13,14
 877 762 877 762 825 762 c 2,15,-1
 199 762 l 2,16,17
 147 762 147 762 147 705 c 2,18,-1
 147 -121 l 2,19,20
 147 -178 147 -178 199 -178 c 2,21,-1
 825 -178 l 2,22,23
 877 -178 877 -178 877 -121 c 2,12,-1
801 589.5 m 128,-1,25
 801 532 801 532 760.25 491.25 c 128,-1,26
 719.5 450.5 719.5 450.5 662 450.5 c 128,-1,27
 604.5 450.5 604.5 450.5 563.75 491.25 c 128,-1,28
 523 532 523 532 523 589.5 c 128,-1,29
 523 647 523 647 563.75 687.75 c 128,-1,30
 604.5 728.5 604.5 728.5 662 728.5 c 128,-1,31
 719.5 728.5 719.5 728.5 760.25 687.75 c 128,-1,24
 801 647 801 647 801 589.5 c 128,-1,25
501 589.5 m 128,-1,33
 501 532 501 532 460.25 491.25 c 128,-1,34
 419.5 450.5 419.5 450.5 362 450.5 c 128,-1,35
 304.5 450.5 304.5 450.5 263.75 491.25 c 128,-1,36
 223 532 223 532 223 589.5 c 128,-1,37
 223 647 223 647 263.75 687.75 c 128,-1,38
 304.5 728.5 304.5 728.5 362 728.5 c 128,-1,39
 419.5 728.5 419.5 728.5 460.25 687.75 c 128,-1,32
 501 647 501 647 501 589.5 c 128,-1,33
651 289.5 m 128,-1,41
 651 232 651 232 610.25 191.25 c 128,-1,42
 569.5 150.5 569.5 150.5 512 150.5 c 128,-1,43
 454.5 150.5 454.5 150.5 413.75 191.25 c 128,-1,44
 373 232 373 232 373 289.5 c 128,-1,45
 373 347 373 347 413.75 387.75 c 128,-1,46
 454.5 428.5 454.5 428.5 512 428.5 c 128,-1,47
 569.5 428.5 569.5 428.5 610.25 387.75 c 128,-1,40
 651 347 651 347 651 289.5 c 128,-1,41
801 -10.5 m 128,-1,49
 801 -68 801 -68 760.25 -108.75 c 128,-1,50
 719.5 -149.5 719.5 -149.5 662 -149.5 c 128,-1,51
 604.5 -149.5 604.5 -149.5 563.75 -108.75 c 128,-1,52
 523 -68 523 -68 523 -10.5 c 128,-1,53
 523 47 523 47 563.75 87.75 c 128,-1,54
 604.5 128.5 604.5 128.5 662 128.5 c 128,-1,55
 719.5 128.5 719.5 128.5 760.25 87.75 c 128,-1,48
 801 47 801 47 801 -10.5 c 128,-1,49
501 -10.5 m 128,-1,57
 501 -68 501 -68 460.25 -108.75 c 128,-1,58
 419.5 -149.5 419.5 -149.5 362 -149.5 c 128,-1,59
 304.5 -149.5 304.5 -149.5 263.75 -108.75 c 128,-1,60
 223 -68 223 -68 223 -10.5 c 128,-1,61
 223 47 223 47 263.75 87.75 c 128,-1,62
 304.5 128.5 304.5 128.5 362 128.5 c 128,-1,63
 419.5 128.5 419.5 128.5 460.25 87.75 c 128,-1,56
 501 47 501 47 501 -10.5 c 128,-1,57
791 589.5 m 128,-1,65
 791 643 791 643 753.25 680.75 c 128,-1,66
 715.5 718.5 715.5 718.5 662 718.5 c 128,-1,67
 608.5 718.5 608.5 718.5 570.75 680.75 c 128,-1,68
 533 643 533 643 533 589.5 c 128,-1,69
 533 536 533 536 570.75 498.25 c 128,-1,70
 608.5 460.5 608.5 460.5 662 460.5 c 128,-1,71
 715.5 460.5 715.5 460.5 753.25 498.25 c 128,-1,64
 791 536 791 536 791 589.5 c 128,-1,65
491 589.5 m 128,-1,73
 491 643 491 643 453.25 680.75 c 128,-1,74
 415.5 718.5 415.5 718.5 362 718.5 c 128,-1,75
 308.5 718.5 308.5 718.5 270.75 680.75 c 128,-1,76
 233 643 233 643 233 589.5 c 128,-1,77
 233 536 233 536 270.75 498.25 c 128,-1,78
 308.5 460.5 308.5 460.5 362 460.5 c 128,-1,79
 415.5 460.5 415.5 460.5 453.25 498.25 c 128,-1,72
 491 536 491 536 491 589.5 c 128,-1,73
641 289.5 m 128,-1,81
 641 343 641 343 603.25 380.75 c 128,-1,82
 565.5 418.5 565.5 418.5 512 418.5 c 128,-1,83
 458.5 418.5 458.5 418.5 420.75 380.75 c 128,-1,84
 383 343 383 343 383 289.5 c 128,-1,85
 383 236 383 236 420.75 198.25 c 128,-1,86
 458.5 160.5 458.5 160.5 512 160.5 c 128,-1,87
 565.5 160.5 565.5 160.5 603.25 198.25 c 128,-1,80
 641 236 641 236 641 289.5 c 128,-1,81
791 -10.5 m 128,-1,89
 791 43 791 43 753.25 80.75 c 128,-1,90
 715.5 118.5 715.5 118.5 662 118.5 c 128,-1,91
 608.5 118.5 608.5 118.5 570.75 80.75 c 128,-1,92
 533 43 533 43 533 -10.5 c 128,-1,93
 533 -64 533 -64 570.75 -101.75 c 128,-1,94
 608.5 -139.5 608.5 -139.5 662 -139.5 c 128,-1,95
 715.5 -139.5 715.5 -139.5 753.25 -101.75 c 128,-1,88
 791 -64 791 -64 791 -10.5 c 128,-1,89
491 -10.5 m 128,-1,97
 491 43 491 43 453.25 80.75 c 128,-1,98
 415.5 118.5 415.5 118.5 362 118.5 c 128,-1,99
 308.5 118.5 308.5 118.5 270.75 80.75 c 128,-1,100
 233 43 233 43 233 -10.5 c 128,-1,101
 233 -64 233 -64 270.75 -101.75 c 128,-1,102
 308.5 -139.5 308.5 -139.5 362 -139.5 c 128,-1,103
 415.5 -139.5 415.5 -139.5 453.25 -101.75 c 128,-1,96
 491 -64 491 -64 491 -10.5 c 128,-1,97
776 589.5 m 128,-1,105
 776 542.5 776 542.5 742.5 509 c 128,-1,106
 709 475.5 709 475.5 662 475.5 c 128,-1,107
 615 475.5 615 475.5 581.5 509 c 128,-1,108
 548 542.5 548 542.5 548 589.5 c 128,-1,109
 548 636.5 548 636.5 581.5 670 c 128,-1,110
 615 703.5 615 703.5 662 703.5 c 128,-1,111
 709 703.5 709 703.5 742.5 670 c 128,-1,104
 776 636.5 776 636.5 776 589.5 c 128,-1,105
476 589.5 m 128,-1,113
 476 542.5 476 542.5 442.5 509 c 128,-1,114
 409 475.5 409 475.5 362 475.5 c 128,-1,115
 315 475.5 315 475.5 281.5 509 c 128,-1,116
 248 542.5 248 542.5 248 589.5 c 128,-1,117
 248 636.5 248 636.5 281.5 670 c 128,-1,118
 315 703.5 315 703.5 362 703.5 c 128,-1,119
 409 703.5 409 703.5 442.5 670 c 128,-1,112
 476 636.5 476 636.5 476 589.5 c 128,-1,113
626 289.5 m 128,-1,121
 626 242.5 626 242.5 592.5 209 c 128,-1,122
 559 175.5 559 175.5 512 175.5 c 128,-1,123
 465 175.5 465 175.5 431.5 209 c 128,-1,124
 398 242.5 398 242.5 398 289.5 c 128,-1,125
 398 336.5 398 336.5 431.5 370 c 128,-1,126
 465 403.5 465 403.5 512 403.5 c 128,-1,127
 559 403.5 559 403.5 592.5 370 c 128,-1,120
 626 336.5 626 336.5 626 289.5 c 128,-1,121
776 -10.5 m 128,-1,129
 776 -57.5 776 -57.5 742.5 -91 c 128,-1,130
 709 -124.5 709 -124.5 662 -124.5 c 128,-1,131
 615 -124.5 615 -124.5 581.5 -91 c 128,-1,132
 548 -57.5 548 -57.5 548 -10.5 c 128,-1,133
 548 36.5 548 36.5 581.5 70 c 128,-1,134
 615 103.5 615 103.5 662 103.5 c 128,-1,135
 709 103.5 709 103.5 742.5 70 c 128,-1,128
 776 36.5 776 36.5 776 -10.5 c 128,-1,129
476 -10.5 m 128,-1,137
 476 -57.5 476 -57.5 442.5 -91 c 128,-1,138
 409 -124.5 409 -124.5 362 -124.5 c 128,-1,139
 315 -124.5 315 -124.5 281.5 -91 c 128,-1,140
 248 -57.5 248 -57.5 248 -10.5 c 128,-1,141
 248 36.5 248 36.5 281.5 70 c 128,-1,142
 315 103.5 315 103.5 362 103.5 c 128,-1,143
 409 103.5 409 103.5 442.5 70 c 128,-1,136
 476 36.5 476 36.5 476 -10.5 c 128,-1,137
766 589.5 m 128,-1,145
 766 632.5 766 632.5 735.5 663 c 128,-1,146
 705 693.5 705 693.5 662 693.5 c 128,-1,147
 619 693.5 619 693.5 588.5 663 c 128,-1,148
 558 632.5 558 632.5 558 589.5 c 128,-1,149
 558 546.5 558 546.5 588.5 516 c 128,-1,150
 619 485.5 619 485.5 662 485.5 c 128,-1,151
 705 485.5 705 485.5 735.5 516 c 128,-1,144
 766 546.5 766 546.5 766 589.5 c 128,-1,145
466 589.5 m 128,-1,153
 466 632.5 466 632.5 435.5 663 c 128,-1,154
 405 693.5 405 693.5 362 693.5 c 128,-1,155
 319 693.5 319 693.5 288.5 663 c 128,-1,156
 258 632.5 258 632.5 258 589.5 c 128,-1,157
 258 546.5 258 546.5 288.5 516 c 128,-1,158
 319 485.5 319 485.5 362 485.5 c 128,-1,159
 405 485.5 405 485.5 435.5 516 c 128,-1,152
 466 546.5 466 546.5 466 589.5 c 128,-1,153
616 289.5 m 128,-1,161
 616 332.5 616 332.5 585.5 363 c 128,-1,162
 555 393.5 555 393.5 512 393.5 c 128,-1,163
 469 393.5 469 393.5 438.5 363 c 128,-1,164
 408 332.5 408 332.5 408 289.5 c 128,-1,165
 408 246.5 408 246.5 438.5 216 c 128,-1,166
 469 185.5 469 185.5 512 185.5 c 128,-1,167
 555 185.5 555 185.5 585.5 216 c 128,-1,160
 616 246.5 616 246.5 616 289.5 c 128,-1,161
766 -10.5 m 128,-1,169
 766 32.5 766 32.5 735.5 63 c 128,-1,170
 705 93.5 705 93.5 662 93.5 c 128,-1,171
 619 93.5 619 93.5 588.5 63 c 128,-1,172
 558 32.5 558 32.5 558 -10.5 c 128,-1,173
 558 -53.5 558 -53.5 588.5 -84 c 128,-1,174
 619 -114.5 619 -114.5 662 -114.5 c 128,-1,175
 705 -114.5 705 -114.5 735.5 -84 c 128,-1,168
 766 -53.5 766 -53.5 766 -10.5 c 128,-1,169
466 -10.5 m 128,-1,177
 466 32.5 466 32.5 435.5 63 c 128,-1,178
 405 93.5 405 93.5 362 93.5 c 128,-1,179
 319 93.5 319 93.5 288.5 63 c 128,-1,180
 258 32.5 258 32.5 258 -10.5 c 128,-1,181
 258 -53.5 258 -53.5 288.5 -84 c 128,-1,182
 319 -114.5 319 -114.5 362 -114.5 c 128,-1,183
 405 -114.5 405 -114.5 435.5 -84 c 128,-1,176
 466 -53.5 466 -53.5 466 -10.5 c 128,-1,177
760 588.5 m 0,184,185
 760 561 760 561 731 561 c 2,186,-1
 711.5 561 l 1,187,188
 725.5 537 725.5 537 725.5 529 c 0,189,190
 725.5 500 725.5 500 695.5 500 c 0,191,192
 680.5 500 680.5 500 662 532.5 c 1,193,194
 644 501 644 501 628 501 c 0,195,196
 598 501 598 501 598 528 c 0,197,198
 598 536.5 598 536.5 612.5 561 c 1,199,-1
 593 561 l 2,200,201
 564 561 564 561 564 590.5 c 0,202,203
 564 618 564 618 593 618 c 2,204,-1
 612.5 618 l 1,205,206
 598.5 642 598.5 642 598.5 650 c 0,207,208
 598.5 679 598.5 679 628.5 679 c 0,209,210
 643.5 679 643.5 679 662 646.5 c 1,211,212
 680 678 680 678 696 678 c 0,213,214
 726 678 726 678 726 651 c 0,215,216
 726 642.5 726 642.5 711.5 618 c 1,217,-1
 731 618 l 2,218,219
 760 618 760 618 760 588.5 c 0,184,185
460 588.5 m 0,220,221
 460 561 460 561 431 561 c 2,222,-1
 411.5 561 l 1,223,224
 425.5 537 425.5 537 425.5 529 c 0,225,226
 425.5 500 425.5 500 395.5 500 c 0,227,228
 380.5 500 380.5 500 362 532.5 c 1,229,230
 344 501 344 501 328 501 c 0,231,232
 298 501 298 501 298 528 c 0,233,234
 298 536.5 298 536.5 312.5 561 c 1,235,-1
 293 561 l 2,236,237
 264 561 264 561 264 590.5 c 0,238,239
 264 618 264 618 293 618 c 2,240,-1
 312.5 618 l 1,241,242
 298.5 642 298.5 642 298.5 650 c 0,243,244
 298.5 679 298.5 679 328.5 679 c 0,245,246
 343.5 679 343.5 679 362 646.5 c 1,247,248
 380 678 380 678 396 678 c 0,249,250
 426 678 426 678 426 651 c 0,251,252
 426 642.5 426 642.5 411.5 618 c 1,253,-1
 431 618 l 2,254,255
 460 618 460 618 460 588.5 c 0,220,221
610 288.5 m 0,256,257
 610 261 610 261 581 261 c 2,258,-1
 561.5 261 l 1,259,260
 575.5 237 575.5 237 575.5 229 c 0,261,262
 575.5 200 575.5 200 545.5 200 c 0,263,264
 530.5 200 530.5 200 512 232.5 c 1,265,266
 494 201 494 201 478 201 c 0,267,268
 448 201 448 201 448 228 c 0,269,270
 448 236.5 448 236.5 462.5 261 c 1,271,-1
 443 261 l 2,272,273
 414 261 414 261 414 290.5 c 0,274,275
 414 318 414 318 443 318 c 2,276,-1
 462.5 318 l 1,277,278
 448.5 342 448.5 342 448.5 350 c 0,279,280
 448.5 379 448.5 379 478.5 379 c 0,281,282
 493.5 379 493.5 379 512 346.5 c 1,283,284
 530 378 530 378 546 378 c 0,285,286
 576 378 576 378 576 351 c 0,287,288
 576 342.5 576 342.5 561.5 318 c 1,289,-1
 581 318 l 2,290,291
 610 318 610 318 610 288.5 c 0,256,257
760 -11.5 m 0,292,293
 760 -39 760 -39 731 -39 c 2,294,-1
 711.5 -39 l 1,295,296
 725.5 -63 725.5 -63 725.5 -71 c 0,297,298
 725.5 -100 725.5 -100 695.5 -100 c 0,299,300
 680.5 -100 680.5 -100 662 -67.5 c 1,301,302
 644 -99 644 -99 628 -99 c 0,303,304
 598 -99 598 -99 598 -72 c 0,305,306
 598 -63.5 598 -63.5 612.5 -39 c 1,307,-1
 593 -39 l 2,308,309
 564 -39 564 -39 564 -9.5 c 0,310,311
 564 18 564 18 593 18 c 2,312,-1
 612.5 18 l 1,313,314
 598.5 42 598.5 42 598.5 50 c 0,315,316
 598.5 79 598.5 79 628.5 79 c 0,317,318
 643.5 79 643.5 79 662 46.5 c 1,319,320
 680 78 680 78 696 78 c 0,321,322
 726 78 726 78 726 51 c 0,323,324
 726 42.5 726 42.5 711.5 18 c 1,325,-1
 731 18 l 2,326,327
 760 18 760 18 760 -11.5 c 0,292,293
460 -11.5 m 0,328,329
 460 -39 460 -39 431 -39 c 2,330,-1
 411.5 -39 l 1,331,332
 425.5 -63 425.5 -63 425.5 -71 c 0,333,334
 425.5 -100 425.5 -100 395.5 -100 c 0,335,336
 380.5 -100 380.5 -100 362 -67.5 c 1,337,338
 344 -99 344 -99 328 -99 c 0,339,340
 298 -99 298 -99 298 -72 c 0,341,342
 298 -63.5 298 -63.5 312.5 -39 c 1,343,-1
 293 -39 l 2,344,345
 264 -39 264 -39 264 -9.5 c 0,346,347
 264 18 264 18 293 18 c 2,348,-1
 312.5 18 l 1,349,350
 298.5 42 298.5 42 298.5 50 c 0,351,352
 298.5 79 298.5 79 328.5 79 c 0,353,354
 343.5 79 343.5 79 362 46.5 c 1,355,356
 380 78 380 78 396 78 c 0,357,358
 426 78 426 78 426 51 c 0,359,360
 426 42.5 426 42.5 411.5 18 c 1,361,-1
 431 18 l 2,362,363
 460 18 460 18 460 -11.5 c 0,328,329
750 589.5 m 128,-1,365
 750 608 750 608 731 608 c 2,366,-1
 694 608 l 1,367,-1
 712.5 640 l 2,368,369
 716 646 716 646 716 651 c 0,370,371
 716 668.5 716 668.5 696.5 668.5 c 0,372,373
 686.5 668.5 686.5 668.5 680.5 658.5 c 2,374,-1
 662 626.5 l 1,375,-1
 643.5 658.5 l 2,376,377
 637.5 669 637.5 669 628.5 669 c 0,378,379
 608.5 669 608.5 669 608.5 650 c 0,380,381
 608.5 645 608.5 645 611.5 640 c 2,382,-1
 630 608 l 1,383,-1
 593 608 l 2,384,385
 574 608 574 608 574 589.5 c 128,-1,386
 574 571 574 571 593 571 c 2,387,-1
 630 571 l 1,388,-1
 611.5 539 l 2,389,390
 608 533 608 533 608 528 c 0,391,392
 608 510.5 608 510.5 627.5 510.5 c 0,393,394
 637.5 510.5 637.5 510.5 643.5 520.5 c 2,395,-1
 662 552.5 l 1,396,-1
 680.5 520.5 l 2,397,398
 686.5 510 686.5 510 695.5 510 c 0,399,400
 715.5 510 715.5 510 715.5 529 c 0,401,402
 715.5 534 715.5 534 712.5 539 c 2,403,-1
 694 571 l 1,404,-1
 731 571 l 2,405,364
 750 571 750 571 750 589.5 c 128,-1,365
450 589.5 m 128,-1,407
 450 608 450 608 431 608 c 2,408,-1
 394 608 l 1,409,-1
 412.5 640 l 2,410,411
 416 646 416 646 416 651 c 0,412,413
 416 668.5 416 668.5 396.5 668.5 c 0,414,415
 386.5 668.5 386.5 668.5 380.5 658.5 c 2,416,-1
 362 626.5 l 1,417,-1
 343.5 658.5 l 2,418,419
 337.5 669 337.5 669 328.5 669 c 0,420,421
 308.5 669 308.5 669 308.5 650 c 0,422,423
 308.5 645 308.5 645 311.5 640 c 2,424,-1
 330 608 l 1,425,-1
 293 608 l 2,426,427
 274 608 274 608 274 589.5 c 128,-1,428
 274 571 274 571 293 571 c 2,429,-1
 330 571 l 1,430,-1
 311.5 539 l 2,431,432
 308 533 308 533 308 528 c 0,433,434
 308 510.5 308 510.5 327.5 510.5 c 0,435,436
 337.5 510.5 337.5 510.5 343.5 520.5 c 2,437,-1
 362 552.5 l 1,438,-1
 380.5 520.5 l 2,439,440
 386.5 510 386.5 510 395.5 510 c 0,441,442
 415.5 510 415.5 510 415.5 529 c 0,443,444
 415.5 534 415.5 534 412.5 539 c 2,445,-1
 394 571 l 1,446,-1
 431 571 l 2,447,406
 450 571 450 571 450 589.5 c 128,-1,407
600 289.5 m 128,-1,449
 600 308 600 308 581 308 c 2,450,-1
 544 308 l 1,451,-1
 562.5 340 l 2,452,453
 566 346 566 346 566 351 c 0,454,455
 566 368.5 566 368.5 546.5 368.5 c 0,456,457
 536.5 368.5 536.5 368.5 530.5 358.5 c 2,458,-1
 512 326.5 l 1,459,-1
 493.5 358.5 l 2,460,461
 487.5 369 487.5 369 478.5 369 c 0,462,463
 458.5 369 458.5 369 458.5 350 c 0,464,465
 458.5 345 458.5 345 461.5 340 c 2,466,-1
 480 308 l 1,467,-1
 443 308 l 2,468,469
 424 308 424 308 424 289.5 c 128,-1,470
 424 271 424 271 443 271 c 2,471,-1
 480 271 l 1,472,-1
 461.5 239 l 2,473,474
 458 233 458 233 458 228 c 0,475,476
 458 210.5 458 210.5 477.5 210.5 c 0,477,478
 487.5 210.5 487.5 210.5 493.5 220.5 c 2,479,-1
 512 252.5 l 1,480,-1
 530.5 220.5 l 2,481,482
 536.5 210 536.5 210 545.5 210 c 0,483,484
 565.5 210 565.5 210 565.5 229 c 0,485,486
 565.5 234 565.5 234 562.5 239 c 2,487,-1
 544 271 l 1,488,-1
 581 271 l 2,489,448
 600 271 600 271 600 289.5 c 128,-1,449
750 -10.5 m 128,-1,491
 750 8 750 8 731 8 c 2,492,-1
 694 8 l 1,493,-1
 712.5 40 l 2,494,495
 716 46 716 46 716 51 c 0,496,497
 716 68.5 716 68.5 696.5 68.5 c 0,498,499
 686.5 68.5 686.5 68.5 680.5 58.5 c 2,500,-1
 662 26.5 l 1,501,-1
 643.5 58.5 l 2,502,503
 637.5 69 637.5 69 628.5 69 c 0,504,505
 608.5 69 608.5 69 608.5 50 c 0,506,507
 608.5 45 608.5 45 611.5 40 c 2,508,-1
 630 8 l 1,509,-1
 593 8 l 2,510,511
 574 8 574 8 574 -10.5 c 128,-1,512
 574 -29 574 -29 593 -29 c 2,513,-1
 630 -29 l 1,514,-1
 611.5 -61 l 2,515,516
 608 -67 608 -67 608 -72 c 0,517,518
 608 -89.5 608 -89.5 627.5 -89.5 c 0,519,520
 637.5 -89.5 637.5 -89.5 643.5 -79.5 c 2,521,-1
 662 -47.5 l 1,522,-1
 680.5 -79.5 l 2,523,524
 686.5 -90 686.5 -90 695.5 -90 c 0,525,526
 715.5 -90 715.5 -90 715.5 -71 c 0,527,528
 715.5 -66 715.5 -66 712.5 -61 c 2,529,-1
 694 -29 l 1,530,-1
 731 -29 l 2,531,490
 750 -29 750 -29 750 -10.5 c 128,-1,491
450 -10.5 m 128,-1,533
 450 8 450 8 431 8 c 2,534,-1
 394 8 l 1,535,-1
 412.5 40 l 2,536,537
 416 46 416 46 416 51 c 0,538,539
 416 68.5 416 68.5 396.5 68.5 c 0,540,541
 386.5 68.5 386.5 68.5 380.5 58.5 c 2,542,-1
 362 26.5 l 1,543,-1
 343.5 58.5 l 2,544,545
 337.5 69 337.5 69 328.5 69 c 0,546,547
 308.5 69 308.5 69 308.5 50 c 0,548,549
 308.5 45 308.5 45 311.5 40 c 2,550,-1
 330 8 l 1,551,-1
 293 8 l 2,552,553
 274 8 274 8 274 -10.5 c 128,-1,554
 274 -29 274 -29 293 -29 c 2,555,-1
 330 -29 l 1,556,-1
 311.5 -61 l 2,557,558
 308 -67 308 -67 308 -72 c 0,559,560
 308 -89.5 308 -89.5 327.5 -89.5 c 0,561,562
 337.5 -89.5 337.5 -89.5 343.5 -79.5 c 2,563,-1
 362 -47.5 l 1,564,-1
 380.5 -79.5 l 2,565,566
 386.5 -90 386.5 -90 395.5 -90 c 0,567,568
 415.5 -90 415.5 -90 415.5 -71 c 0,569,570
 415.5 -66 415.5 -66 412.5 -61 c 2,571,-1
 394 -29 l 1,572,-1
 431 -29 l 2,573,532
 450 -29 450 -29 450 -10.5 c 128,-1,533
692 589.5 m 128,-1,575
 692 559.5 692 559.5 662 559.5 c 128,-1,576
 632 559.5 632 559.5 632 589.5 c 128,-1,577
 632 619.5 632 619.5 662 619.5 c 128,-1,574
 692 619.5 692 619.5 692 589.5 c 128,-1,575
392 589.5 m 128,-1,579
 392 559.5 392 559.5 362 559.5 c 128,-1,580
 332 559.5 332 559.5 332 589.5 c 128,-1,581
 332 619.5 332 619.5 362 619.5 c 128,-1,578
 392 619.5 392 619.5 392 589.5 c 128,-1,579
542 289.5 m 128,-1,583
 542 259.5 542 259.5 512 259.5 c 128,-1,584
 482 259.5 482 259.5 482 289.5 c 128,-1,585
 482 319.5 482 319.5 512 319.5 c 128,-1,582
 542 319.5 542 319.5 542 289.5 c 128,-1,583
692 -10.5 m 128,-1,587
 692 -40.5 692 -40.5 662 -40.5 c 128,-1,588
 632 -40.5 632 -40.5 632 -10.5 c 128,-1,589
 632 19.5 632 19.5 662 19.5 c 128,-1,586
 692 19.5 692 19.5 692 -10.5 c 128,-1,587
392 -10.5 m 128,-1,591
 392 -40.5 392 -40.5 362 -40.5 c 128,-1,592
 332 -40.5 332 -40.5 332 -10.5 c 128,-1,593
 332 19.5 332 19.5 362 19.5 c 128,-1,590
 392 19.5 392 19.5 392 -10.5 c 128,-1,591
682 589.5 m 128,-1,595
 682 609.5 682 609.5 662 609.5 c 128,-1,596
 642 609.5 642 609.5 642 589.5 c 128,-1,597
 642 569.5 642 569.5 662 569.5 c 128,-1,594
 682 569.5 682 569.5 682 589.5 c 128,-1,595
382 589.5 m 128,-1,599
 382 609.5 382 609.5 362 609.5 c 128,-1,600
 342 609.5 342 609.5 342 589.5 c 128,-1,601
 342 569.5 342 569.5 362 569.5 c 128,-1,598
 382 569.5 382 569.5 382 589.5 c 128,-1,599
532 289.5 m 128,-1,603
 532 309.5 532 309.5 512 309.5 c 128,-1,604
 492 309.5 492 309.5 492 289.5 c 128,-1,605
 492 269.5 492 269.5 512 269.5 c 128,-1,602
 532 269.5 532 269.5 532 289.5 c 128,-1,603
682 -10.5 m 128,-1,607
 682 9.5 682 9.5 662 9.5 c 128,-1,608
 642 9.5 642 9.5 642 -10.5 c 128,-1,609
 642 -30.5 642 -30.5 662 -30.5 c 128,-1,606
 682 -30.5 682 -30.5 682 -10.5 c 128,-1,607
382 -10.5 m 128,-1,611
 382 9.5 382 9.5 362 9.5 c 128,-1,612
 342 9.5 342 9.5 342 -10.5 c 128,-1,613
 342 -30.5 342 -30.5 362 -30.5 c 128,-1,610
 382 -30.5 382 -30.5 382 -10.5 c 128,-1,611
672 589.5 m 128,-1,615
 672 579.5 672 579.5 662 579.5 c 128,-1,616
 652 579.5 652 579.5 652 589.5 c 128,-1,617
 652 599.5 652 599.5 662 599.5 c 128,-1,614
 672 599.5 672 599.5 672 589.5 c 128,-1,615
372 589.5 m 128,-1,619
 372 579.5 372 579.5 362 579.5 c 128,-1,620
 352 579.5 352 579.5 352 589.5 c 128,-1,621
 352 599.5 352 599.5 362 599.5 c 128,-1,618
 372 599.5 372 599.5 372 589.5 c 128,-1,619
522 289.5 m 128,-1,623
 522 279.5 522 279.5 512 279.5 c 128,-1,624
 502 279.5 502 279.5 502 289.5 c 128,-1,625
 502 299.5 502 299.5 512 299.5 c 128,-1,622
 522 299.5 522 299.5 522 289.5 c 128,-1,623
672 -10.5 m 128,-1,627
 672 -20.5 672 -20.5 662 -20.5 c 128,-1,628
 652 -20.5 652 -20.5 652 -10.5 c 128,-1,629
 652 -0.5 652 -0.5 662 -0.5 c 128,-1,626
 672 -0.5 672 -0.5 672 -10.5 c 128,-1,627
372 -10.5 m 128,-1,631
 372 -20.5 372 -20.5 362 -20.5 c 128,-1,632
 352 -20.5 352 -20.5 352 -10.5 c 128,-1,633
 352 -0.5 352 -0.5 362 -0.5 c 128,-1,630
 372 -0.5 372 -0.5 372 -10.5 c 128,-1,631
EndSplineSet
Validated: 3073
EndChar

StartChar: b
Encoding: 98 98 14
Width: 546
Flags: W
LayerCount: 2
Fore
SplineSet
446 152 m 0,0,1
 446 34.5 446 34.5 129.5 17 c 1,2,-1
 100 45 l 1,3,-1
 100 474 l 1,4,-1
 129.5 502 l 1,5,6
 446 484 446 484 446 366.5 c 0,7,8
 446 292.5 446 292.5 332.5 259.5 c 1,9,10
 446 226 446 226 446 152 c 0,0,1
390 366.5 m 0,11,12
 390 403 390 403 292.5 425 c 0,13,14
 233 439 233 439 156 444 c 1,15,-1
 156 289 l 1,16,17
 390 306 390 306 390 366.5 c 0,11,12
390 152 m 0,18,19
 390 213 390 213 156 230 c 1,20,-1
 156 75 l 1,21,22
 390 90.5 390 90.5 390 152 c 0,18,19
EndSplineSet
Validated: 2049
Substitution2: "'ss04' Egyptian Hieroform Latin" u130C0
Substitution2: "'ss03' Egyptian Hieratic Latin" b.hier
Substitution2: "'ss02' Egyptian Transliteration Latin" b.tran
Substitution2: "'ss01' Hierography-bopomofo" u130C0
EndChar

StartChar: u130C0
Encoding: 78016 78016 15
Width: 552
Flags: W
LayerCount: 2
Fore
SplineSet
480.569335938 787.5 m 1,0,-1
 430.569335938 786 l 1,1,2
 431.569335938 740 431.569335938 740 433.819335938 625.5 c 128,-1,3
 436.069335938 511 436.069335938 511 437.319335938 429 c 128,-1,4
 438.569335938 347 438.569335938 347 439.819335938 254.75 c 128,-1,5
 441.069335938 162.5 441.069335938 162.5 440.819335938 111.25 c 128,-1,6
 440.569335938 60 440.569335938 60 438.069335938 57 c 2,7,-1
 266.069335938 -76.5 l 1,8,9
 210.569335938 -124 210.569335938 -124 117.569335938 -145 c 1,10,-1
 121.569335938 -145 l 2,11,12
 132.069335938 -145 132.069335938 -145 144.319335938 -143.75 c 128,-1,13
 156.569335938 -142.5 156.569335938 -142.5 165.069335938 -141.25 c 128,-1,14
 173.569335938 -140 173.569335938 -140 188.069335938 -137.5 c 128,-1,15
 202.569335938 -135 202.569335938 -135 209.569335938 -134 c 0,16,17
 221.569335938 -133 221.569335938 -133 279.819335938 -125 c 128,-1,18
 338.069335938 -117 338.069335938 -117 369.569335938 -117 c 2,19,-1
 374.069335938 -117 l 1,20,-1
 378.569335938 -117 l 2,21,22
 391.569335938 -117 391.569335938 -117 404.319335938 -121 c 128,-1,23
 417.069335938 -125 417.069335938 -125 433.569335938 -132.75 c 128,-1,24
 450.069335938 -140.5 450.069335938 -140.5 457.069335938 -143 c 0,25,26
 464.069335938 -147 464.069335938 -147 469.069335938 -147 c 0,27,28
 487.069335938 -147 487.069335938 -147 498.569335938 -110 c 1,29,30
 500.069335938 -98 500.069335938 -98 493.319335938 -77 c 128,-1,31
 486.569335938 -56 486.569335938 -56 485.569335938 -49 c 2,32,-1
 475.069335938 68 l 1,33,34
 476.569335938 307.5 476.569335938 307.5 480.569335938 787.5 c 1,0,-1
509.569335938 820 m 1,35,36
 512.069335938 820 512.069335938 820 513.069335938 768.25 c 128,-1,37
 514.069335938 716.5 514.069335938 716.5 513.319335938 625 c 128,-1,38
 512.569335938 533.5 512.569335938 533.5 511.569335938 444.5 c 128,-1,39
 510.569335938 355.5 510.569335938 355.5 509.319335938 243.25 c 128,-1,40
 508.069335938 131 508.069335938 131 507.569335938 75 c 0,41,42
 508.569335938 55.5 508.569335938 55.5 511.819335938 19.25 c 128,-1,43
 515.069335938 -17 515.069335938 -17 515.569335938 -25.5 c 0,44,45
 515.569335938 -39.5 515.569335938 -39.5 524.819335938 -68.5 c 128,-1,46
 534.069335938 -97.5 534.069335938 -97.5 531.569335938 -114 c 0,47,48
 522.569335938 -157 522.569335938 -157 493.569335938 -175.5 c 0,49,50
 483.069335938 -180 483.069335938 -180 473.069335938 -180 c 0,51,52
 466.069335938 -180 466.069335938 -180 457.569335938 -177.75 c 128,-1,53
 449.069335938 -175.5 449.069335938 -175.5 443.819335938 -173.25 c 128,-1,54
 438.569335938 -171 438.569335938 -171 428.319335938 -166.25 c 128,-1,55
 418.069335938 -161.5 418.069335938 -161.5 415.069335938 -160 c 0,56,57
 395.569335938 -149.5 395.569335938 -149.5 367.569335938 -149.5 c 0,58,59
 356.569335938 -149.5 356.569335938 -149.5 321.569335938 -153 c 0,60,61
 198.569335938 -169 198.569335938 -169 184.569335938 -171.5 c 0,62,63
 151.069335938 -177.5 151.069335938 -177.5 124.569335938 -177.5 c 0,64,65
 72.5693359375 -177.5 72.5693359375 -177.5 32.5693359375 -156.5 c 0,66,67
 19.0693359375 -149 19.0693359375 -149 20.0693359375 -132.25 c 128,-1,68
 21.0693359375 -115.5 21.0693359375 -115.5 32.5693359375 -107 c 0,69,70
 40.5693359375 -103 40.5693359375 -103 50.0693359375 -103 c 128,-1,71
 59.5693359375 -103 59.5693359375 -103 78.0693359375 -108 c 128,-1,72
 96.5693359375 -113 96.5693359375 -113 105.569335938 -113 c 0,73,74
 171.569335938 -101 171.569335938 -101 222.569335938 -68 c 1,75,-1
 410.069335938 75.5 l 1,76,-1
 398.569335938 784.5 l 1,77,-1
 398.319335938 789 l 1,78,-1
 398.069335938 794.25 l 1,79,-1
 398.069335938 799 l 2,80,81
 398.069335938 802.5 398.069335938 802.5 398.569335938 804 c 128,-1,82
 399.069335938 805.5 399.069335938 805.5 400.069335938 808.25 c 128,-1,83
 401.069335938 811 401.069335938 811 402.319335938 812.5 c 128,-1,84
 403.569335938 814 403.569335938 814 405.819335938 815.5 c 128,-1,85
 408.069335938 817 408.069335938 817 410.569335938 817.5 c 0,86,87
 427.069335938 818.5 427.069335938 818.5 464.069335938 819 c 128,-1,88
 501.069335938 819.5 501.069335938 819.5 509.569335938 820 c 1,89,-1
 509.569335938 820 l 1,35,36
EndSplineSet
Validated: 33
EndChar

StartChar: p
Encoding: 112 112 16
Width: 546
Flags: W
LayerCount: 2
Fore
SplineSet
446 349.5 m 0,0,1
 446 220.5 446 220.5 156 198.5 c 1,2,-1
 156 17 l 1,3,-1
 100 17 l 1,4,-1
 100 474 l 1,5,-1
 130 502 l 1,6,7
 446 482 446 482 446 349.5 c 0,0,1
390 349.5 m 0,8,9
 390 425.5 390 425.5 156 444 c 1,10,-1
 156 254.5 l 1,11,12
 390 274 390 274 390 349.5 c 0,8,9
EndSplineSet
Validated: 1
Substitution2: "'ss04' Egyptian Hieroform Latin" u132AA
Substitution2: "'ss03' Egyptian Hieratic Latin" p.hier
Substitution2: "'ss02' Egyptian Transliteration Latin" p.tran
Substitution2: "'ss01' Hierography-bopomofo" u132AA
EndChar

StartChar: u132AA
Encoding: 78506 78506 17
Width: 316
Flags: W
LayerCount: 2
Fore
SplineSet
261.5 243.5 m 1,0,-1
 53 242 l 1,1,-1
 54.5 -145.5 l 1,2,-1
 258 -142 l 1,3,-1
 261.5 243.5 l 1,0,-1
296 276.5 m 1,4,-1
 291 -175 l 1,5,-1
 21.5 -180 l 1,6,-1
 20 275 l 1,7,-1
 296 276.5 l 1,4,-1
EndSplineSet
Validated: 1
EndChar

StartChar: m
Encoding: 109 109 18
Width: 648
Flags: W
LayerCount: 2
Fore
SplineSet
548.5 17 m 1,0,-1
 492.5 17 l 1,1,-1
 492.5 404 l 1,2,-1
 346 218.5 l 1,3,-1
 302 218.5 l 1,4,-1
 156 404 l 1,5,-1
 156 17 l 1,6,-1
 100 17 l 1,7,-1
 100 484.5 l 1,8,-1
 150 502 l 1,9,-1
 324 281 l 1,10,-1
 498.5 502 l 1,11,-1
 548.5 484.5 l 1,12,-1
 548.5 17 l 1,0,-1
EndSplineSet
Validated: 1
Substitution2: "'ss04' Egyptian Hieroform Latin" u13153
Substitution2: "'ss03' Egyptian Hieratic Latin" m.hier
Substitution2: "'ss02' Egyptian Transliteration Latin" m.tran
Substitution2: "'ss01' Hierography-bopomofo" u13153
EndChar

StartChar: u13153
Encoding: 78163 78163 19
Width: 944
Flags: W
LayerCount: 2
Fore
SplineSet
225.35546875 649 m 0,0,1
 229.35546875 649 229.35546875 649 237.35546875 645.5 c 128,-1,2
 245.35546875 642 245.35546875 642 249.35546875 642 c 0,3,4
 253.85546875 642 253.85546875 642 257.85546875 645.5 c 1,5,-1
 257.85546875 645.5 l 1,6,7
 261.85546875 637 261.85546875 637 246.60546875 628 c 128,-1,8
 231.35546875 619 231.35546875 619 219.35546875 618.5 c 0,9,10
 217.85546875 618.5 217.85546875 618.5 216.85546875 619 c 0,11,12
 202.35546875 621 202.35546875 621 205.85546875 630.5 c 0,13,14
 209.35546875 641 209.35546875 641 225.35546875 649 c 0,0,1
115.85546875 644 m 0,15,16
 118.35546875 644 118.35546875 644 120.60546875 643 c 128,-1,17
 122.85546875 642 122.85546875 642 124.60546875 641 c 128,-1,18
 126.35546875 640 126.35546875 640 128.85546875 638 c 128,-1,19
 131.35546875 636 131.35546875 636 132.35546875 635 c 0,20,21
 133.35546875 635 133.35546875 635 134.35546875 634.5 c 0,22,23
 151.85546875 632 151.85546875 632 138.85546875 623.5 c 0,24,25
 125.35546875 615 125.35546875 615 112.35546875 615 c 2,26,-1
 111.35546875 615 l 1,27,28
 94.85546875 618.5 94.85546875 618.5 97.85546875 629.5 c 128,-1,29
 100.85546875 640.5 100.85546875 640.5 115.85546875 644 c 0,15,16
261.85546875 783.5 m 1,30,31
 229.35546875 771.5 229.35546875 771.5 190.35546875 771.5 c 2,32,-1
 176.35546875 771.5 l 2,33,34
 175.35546875 771.5 175.35546875 771.5 173.35546875 771.25 c 128,-1,35
 171.35546875 771 171.35546875 771 169.85546875 771 c 0,36,37
 162.85546875 771 162.85546875 771 147.60546875 775 c 128,-1,38
 132.35546875 779 132.35546875 779 125.85546875 779 c 0,39,40
 110.35546875 779 110.35546875 779 105.85546875 763 c 1,41,42
 98.85546875 754 98.85546875 754 102.35546875 754 c 0,43,44
 103.85546875 754 103.85546875 754 109.35546875 755.25 c 128,-1,45
 114.85546875 756.5 114.85546875 756.5 118.35546875 756.5 c 0,46,47
 119.85546875 756.5 119.85546875 756.5 122.85546875 755.5 c 0,48,49
 134.85546875 752 134.85546875 752 147.85546875 743.25 c 128,-1,50
 160.85546875 734.5 160.85546875 734.5 167.60546875 728.25 c 128,-1,51
 174.35546875 722 174.35546875 722 187.85546875 708.5 c 1,52,53
 188.35546875 709.5 188.35546875 709.5 196.60546875 718.5 c 128,-1,54
 204.85546875 727.5 204.85546875 727.5 206.85546875 729.75 c 128,-1,55
 208.85546875 732 208.85546875 732 216.10546875 738.75 c 128,-1,56
 223.35546875 745.5 223.35546875 745.5 227.85546875 748 c 128,-1,57
 232.35546875 750.5 232.35546875 750.5 239.10546875 753.75 c 128,-1,58
 245.85546875 757 245.85546875 757 252.85546875 758 c 0,59,60
 260.35546875 758 260.35546875 758 266.35546875 755 c 128,-1,61
 272.35546875 752 272.35546875 752 277.10546875 745.75 c 128,-1,62
 281.85546875 739.5 281.85546875 739.5 284.60546875 735.25 c 128,-1,63
 287.35546875 731 287.35546875 731 291.85546875 721.75 c 128,-1,64
 296.35546875 712.5 296.35546875 712.5 297.85546875 710 c 0,65,66
 300.35546875 704.5 300.35546875 704.5 306.85546875 690 c 128,-1,67
 313.35546875 675.5 313.35546875 675.5 316.35546875 667.75 c 128,-1,68
 319.35546875 660 319.35546875 660 323.35546875 647.75 c 128,-1,69
 327.35546875 635.5 327.35546875 635.5 328.60546875 624.5 c 128,-1,70
 329.85546875 613.5 329.85546875 613.5 328.35546875 602.5 c 0,71,72
 312.85546875 543 312.85546875 543 341.85546875 540 c 1,73,74
 338.85546875 558 338.85546875 558 335.10546875 594.75 c 128,-1,75
 331.35546875 631.5 331.35546875 631.5 328.85546875 649.5 c 0,76,77
 321.85546875 712 321.85546875 712 261.85546875 783.5 c 1,30,31
252.85546875 741 m 1,78,79
 243.85546875 738.5 243.85546875 738.5 235.35546875 732.5 c 128,-1,80
 226.85546875 726.5 226.85546875 726.5 222.10546875 721.75 c 128,-1,81
 217.35546875 717 217.35546875 717 208.85546875 707 c 128,-1,82
 200.35546875 697 200.35546875 697 196.85546875 693.5 c 0,83,84
 192.35546875 690.5 192.35546875 690.5 188.35546875 690.5 c 0,85,86
 179.85546875 690.5 179.85546875 690.5 165.60546875 706.75 c 128,-1,87
 151.35546875 723 151.35546875 723 143.85546875 725.5 c 1,88,89
 133.35546875 739 133.35546875 739 117.85546875 739 c 0,90,91
 106.35546875 739 106.35546875 739 97.10546875 731.75 c 128,-1,92
 87.85546875 724.5 87.85546875 724.5 84.35546875 712.5 c 0,93,94
 82.35546875 704.5 82.35546875 704.5 76.85546875 688.75 c 128,-1,95
 71.35546875 673 71.35546875 673 68.60546875 661 c 128,-1,96
 65.85546875 649 65.85546875 649 65.85546875 637.5 c 2,97,-1
 65.85546875 637 l 1,98,-1
 70.35546875 645 l 2,99,100
 74.85546875 653 74.85546875 653 82.35546875 662 c 128,-1,101
 89.85546875 671 89.85546875 671 96.85546875 672.5 c 0,102,103
 103.85546875 673.5 103.85546875 673.5 106.85546875 673.5 c 0,104,105
 129.85546875 673.5 129.85546875 673.5 166.35546875 644.5 c 1,106,107
 171.35546875 637 171.35546875 637 175.85546875 637 c 0,108,109
 180.85546875 637 180.85546875 637 189.60546875 649.25 c 128,-1,110
 198.35546875 661.5 198.35546875 661.5 202.85546875 664.5 c 1,111,112
 216.35546875 684.5 216.35546875 684.5 239.35546875 684.5 c 0,113,114
 254.85546875 684.5 254.85546875 684.5 266.35546875 673.5 c 0,115,116
 267.85546875 672.5 267.85546875 672.5 271.10546875 670.75 c 128,-1,117
 274.35546875 669 274.35546875 669 275.60546875 668 c 128,-1,118
 276.85546875 667 276.85546875 667 279.35546875 665.25 c 128,-1,119
 281.85546875 663.5 281.85546875 663.5 282.85546875 662.25 c 128,-1,120
 283.85546875 661 283.85546875 661 284.85546875 659.25 c 128,-1,121
 285.85546875 657.5 285.85546875 657.5 285.35546875 655.75 c 128,-1,122
 284.85546875 654 284.85546875 654 283.85546875 651.5 c 128,-1,123
 282.85546875 649 282.85546875 649 280.35546875 646.5 c 1,124,125
 274.85546875 647.5 274.85546875 647.5 260.10546875 657.75 c 128,-1,126
 245.35546875 668 245.35546875 668 237.35546875 668 c 0,127,128
 230.35546875 668 230.35546875 668 224.35546875 662.5 c 0,129,130
 200.35546875 641.5 200.35546875 641.5 185.85546875 615.5 c 0,131,132
 185.35546875 613 185.35546875 613 187.10546875 609.25 c 128,-1,133
 188.85546875 605.5 188.85546875 605.5 191.60546875 600.75 c 128,-1,134
 194.35546875 596 194.35546875 596 195.35546875 593.5 c 0,135,136
 200.85546875 583.5 200.85546875 583.5 198.85546875 578.25 c 128,-1,137
 196.85546875 573 196.85546875 573 190.35546875 563.5 c 128,-1,138
 183.85546875 554 183.85546875 554 182.85546875 548 c 1,139,-1
 159.35546875 579 l 1,140,141
 166.35546875 600 166.35546875 600 168.85546875 610 c 0,142,143
 171.85546875 617.5 171.85546875 617.5 166.10546875 623.75 c 128,-1,144
 160.35546875 630 160.35546875 630 150.10546875 636 c 128,-1,145
 139.85546875 642 139.85546875 642 136.85546875 645.5 c 0,146,147
 124.35546875 655.5 124.35546875 655.5 110.85546875 655.5 c 0,148,149
 88.35546875 655.5 88.35546875 655.5 81.85546875 631.5 c 0,150,151
 81.35546875 624 81.35546875 624 80.60546875 620 c 128,-1,152
 79.85546875 616 79.85546875 616 76.85546875 611.75 c 128,-1,153
 73.85546875 607.5 73.85546875 607.5 68.35546875 607.5 c 0,154,155
 66.35546875 607.5 66.35546875 607.5 65.35546875 608 c 1,156,-1
 65.35546875 608 l 1,157,158
 68.35546875 550 68.35546875 550 78.35546875 526 c 0,159,160
 80.35546875 517 80.35546875 517 87.10546875 511.75 c 128,-1,161
 93.85546875 506.5 93.85546875 506.5 99.35546875 505 c 128,-1,162
 104.85546875 503.5 104.85546875 503.5 116.60546875 501.75 c 128,-1,163
 128.35546875 500 128.35546875 500 132.35546875 499 c 0,164,165
 137.35546875 497.5 137.35546875 497.5 142.35546875 497.5 c 0,166,167
 152.35546875 497.5 152.35546875 497.5 159.85546875 504.25 c 128,-1,168
 167.35546875 511 167.35546875 511 175.10546875 522.5 c 128,-1,169
 182.85546875 534 182.85546875 534 186.85546875 538 c 1,170,171
 191.85546875 535 191.85546875 535 209.85546875 518.25 c 128,-1,172
 227.85546875 501.5 227.85546875 501.5 242.35546875 498.5 c 0,173,174
 245.35546875 497.5 245.35546875 497.5 250.85546875 497.5 c 0,175,176
 261.85546875 497.5 261.85546875 497.5 271.85546875 504.25 c 128,-1,177
 281.85546875 511 281.85546875 511 293.10546875 522.5 c 128,-1,178
 304.35546875 534 304.35546875 534 310.35546875 538 c 0,179,180
 310.35546875 540 310.35546875 540 306.85546875 561 c 128,-1,181
 303.35546875 582 303.35546875 582 308.85546875 588 c 1,182,183
 310.35546875 593 310.35546875 593 311.10546875 598.5 c 128,-1,184
 311.85546875 604 311.85546875 604 312.35546875 608.5 c 128,-1,185
 312.85546875 613 312.85546875 613 311.85546875 619.25 c 128,-1,186
 310.85546875 625.5 310.85546875 625.5 310.60546875 629.25 c 128,-1,187
 310.35546875 633 310.35546875 633 308.35546875 639.5 c 128,-1,188
 306.35546875 646 306.35546875 646 305.60546875 649 c 128,-1,189
 304.85546875 652 304.85546875 652 302.10546875 659.25 c 128,-1,190
 299.35546875 666.5 299.35546875 666.5 298.35546875 668.75 c 128,-1,191
 297.35546875 671 297.35546875 671 294.10546875 678.75 c 128,-1,192
 290.85546875 686.5 290.85546875 686.5 290.35546875 688 c 0,193,194
 287.35546875 693 287.35546875 693 281.35546875 707 c 128,-1,195
 275.35546875 721 275.35546875 721 268.85546875 729.75 c 128,-1,196
 262.35546875 738.5 262.35546875 738.5 252.85546875 741 c 1,78,79
173.85546875 355.5 m 1,197,198
 193.85546875 300.5 193.85546875 300.5 212.10546875 232.5 c 128,-1,199
 230.35546875 164.5 230.35546875 164.5 240.10546875 121.75 c 128,-1,200
 249.85546875 79 249.85546875 79 253.35546875 73.5 c 0,201,202
 256.85546875 67.5 256.85546875 67.5 268.85546875 59.75 c 128,-1,203
 280.85546875 52 280.85546875 52 298.10546875 42 c 128,-1,204
 315.35546875 32 315.35546875 32 326.35546875 23 c 1,205,206
 316.85546875 66 316.85546875 66 295.60546875 126.25 c 128,-1,207
 274.35546875 186.5 274.35546875 186.5 240.35546875 254.25 c 128,-1,208
 206.35546875 322 206.35546875 322 173.85546875 355.5 c 1,197,198
425.35546875 488 m 1,209,210
 398.85546875 458 398.85546875 458 353.35546875 427.5 c 128,-1,211
 307.85546875 397 307.85546875 397 250.35546875 378 c 1,212,213
 306.35546875 326.5 306.35546875 326.5 331.35546875 304.5 c 128,-1,214
 356.35546875 282.5 356.35546875 282.5 405.60546875 241.5 c 128,-1,215
 454.85546875 200.5 454.85546875 200.5 497.60546875 172.75 c 128,-1,216
 540.35546875 145 540.35546875 145 585.35546875 123 c 0,217,218
 603.85546875 114 603.85546875 114 621.85546875 104.5 c 128,-1,219
 639.85546875 95 639.85546875 95 661.35546875 82.75 c 128,-1,220
 682.85546875 70.5 682.85546875 70.5 695.85546875 63 c 128,-1,221
 708.85546875 55.5 708.85546875 55.5 734.10546875 39.75 c 128,-1,222
 759.35546875 24 759.35546875 24 767.60546875 19 c 128,-1,223
 775.85546875 14 775.85546875 14 805.85546875 -4.75 c 128,-1,224
 835.85546875 -23.5 835.85546875 -23.5 840.35546875 -26.5 c 1,225,226
 828.35546875 -12 828.35546875 -12 773.60546875 67.5 c 128,-1,227
 718.85546875 147 718.85546875 147 663.60546875 225.5 c 128,-1,228
 608.35546875 304 608.35546875 304 539.85546875 382.75 c 128,-1,229
 471.35546875 461.5 471.35546875 461.5 425.35546875 488 c 1,209,210
286.85546875 9 m 1,230,231
 279.35546875 -28.5 279.35546875 -28.5 258.60546875 -66.75 c 128,-1,232
 237.85546875 -105 237.85546875 -105 235.85546875 -110.5 c 1,233,-1
 238.35546875 -110.5 l 2,234,235
 244.85546875 -110.5 244.85546875 -110.5 258.85546875 -113.75 c 128,-1,236
 272.85546875 -117 272.85546875 -117 279.35546875 -117 c 0,237,238
 291.85546875 -117 291.85546875 -117 297.35546875 -107.5 c 1,239,240
 305.85546875 -99.5 305.85546875 -99.5 312.85546875 -88.25 c 128,-1,241
 319.85546875 -77 319.85546875 -77 323.35546875 -68.5 c 128,-1,242
 326.85546875 -60 326.85546875 -60 332.10546875 -45.5 c 128,-1,243
 337.35546875 -31 337.35546875 -31 340.35546875 -24 c 1,244,245
 328.85546875 -19.5 328.85546875 -19.5 309.10546875 -6 c 128,-1,246
 289.35546875 7.5 289.35546875 7.5 286.85546875 9 c 1,230,231
324.35546875 529 m 1,247,-1
 293.35546875 500.5 l 1,248,249
 276.35546875 481 276.35546875 481 250.35546875 481 c 0,250,251
 234.85546875 481 234.85546875 481 221.85546875 489.5 c 1,252,253
 215.35546875 489.5 215.35546875 489.5 204.60546875 500.5 c 128,-1,254
 193.85546875 511.5 193.85546875 511.5 190.35546875 511.5 c 128,-1,255
 186.85546875 511.5 186.85546875 511.5 185.35546875 505.5 c 0,256,257
 172.85546875 482.5 172.85546875 482.5 138.35546875 482.5 c 0,258,259
 125.35546875 482.5 125.35546875 482.5 110.35546875 486 c 0,260,261
 108.85546875 487 108.85546875 487 108.35546875 487.5 c 0,262,263
 107.85546875 487.5 107.85546875 487.5 109.85546875 484.75 c 128,-1,264
 111.85546875 482 111.85546875 482 116.35546875 477 c 128,-1,265
 120.85546875 472 120.85546875 472 124.10546875 468.5 c 128,-1,266
 127.35546875 465 127.35546875 465 132.35546875 459 c 2,267,-1
 137.85546875 453.5 l 1,268,269
 197.85546875 389.5 197.85546875 389.5 245.10546875 313.75 c 128,-1,270
 292.35546875 238 292.35546875 238 316.35546875 177 c 128,-1,271
 340.35546875 116 340.35546875 116 351.85546875 71.25 c 128,-1,272
 363.35546875 26.5 363.35546875 26.5 360.35546875 8.5 c 1,273,274
 366.85546875 7 366.85546875 7 389.35546875 -2.75 c 128,-1,275
 411.85546875 -12.5 411.85546875 -12.5 420.35546875 -12.5 c 0,276,277
 429.85546875 -12.5 429.85546875 -12.5 432.35546875 -5 c 0,278,279
 453.85546875 35.5 453.85546875 35.5 458.85546875 96.5 c 0,280,281
 458.35546875 107 458.35546875 107 463.60546875 113 c 128,-1,282
 468.85546875 119 468.85546875 119 476.35546875 119 c 0,283,284
 484.35546875 119 484.35546875 119 490.85546875 113.25 c 128,-1,285
 497.35546875 107.5 497.35546875 107.5 497.85546875 98 c 0,286,287
 498.35546875 97 498.35546875 97 499.85546875 97 c 0,288,289
 501.85546875 97 501.85546875 97 509.10546875 100.5 c 128,-1,290
 516.35546875 104 516.35546875 104 520.35546875 104 c 0,291,292
 527.35546875 104 527.35546875 104 530.35546875 96.5 c 0,293,294
 533.85546875 86.5 533.85546875 86.5 550.35546875 30.75 c 128,-1,295
 566.85546875 -25 566.85546875 -25 581.85546875 -65 c 128,-1,296
 596.85546875 -105 596.85546875 -105 610.35546875 -119.5 c 0,297,298
 622.35546875 -132.5 622.35546875 -132.5 647.10546875 -140.25 c 128,-1,299
 671.85546875 -148 671.85546875 -148 699.85546875 -148 c 0,300,301
 720.85546875 -148 720.85546875 -148 738.85546875 -143.5 c 0,302,303
 752.35546875 -140 752.35546875 -140 776.10546875 -132 c 128,-1,304
 799.85546875 -124 799.85546875 -124 807.35546875 -121.5 c 1,305,306
 796.85546875 -100.5 796.85546875 -100.5 782.60546875 -79 c 128,-1,307
 768.35546875 -57.5 768.35546875 -57.5 748.10546875 -30.75 c 128,-1,308
 727.85546875 -4 727.85546875 -4 718.85546875 9.5 c 1,309,310
 690.85546875 27.5 690.85546875 27.5 658.10546875 46 c 128,-1,311
 625.35546875 64.5 625.35546875 64.5 584.85546875 86 c 128,-1,312
 544.35546875 107.5 544.35546875 107.5 522.85546875 119.5 c 0,313,314
 497.85546875 133 497.85546875 133 471.10546875 150.75 c 128,-1,315
 444.35546875 168.5 444.35546875 168.5 425.60546875 182 c 128,-1,316
 406.85546875 195.5 406.85546875 195.5 377.10546875 220.75 c 128,-1,317
 347.35546875 246 347.35546875 246 335.35546875 256.5 c 128,-1,318
 323.35546875 267 323.35546875 267 289.35546875 297.75 c 128,-1,319
 255.35546875 328.5 255.35546875 328.5 247.35546875 335.5 c 2,320,-1
 239.85546875 343 l 2,321,322
 188.35546875 395.5 188.35546875 395.5 213.85546875 399.5 c 0,323,324
 257.35546875 407.5 257.35546875 407.5 314.35546875 442.25 c 128,-1,325
 371.35546875 477 371.35546875 477 386.85546875 498 c 1,326,327
 393.35546875 503 393.35546875 503 395.10546875 506.5 c 128,-1,328
 396.85546875 510 396.85546875 510 393.10546875 512.25 c 128,-1,329
 389.35546875 514.5 389.35546875 514.5 385.60546875 515.75 c 128,-1,330
 381.85546875 517 381.85546875 517 374.35546875 519 c 0,331,332
 371.35546875 519.5 371.35546875 519.5 366.85546875 520.75 c 128,-1,333
 362.35546875 522 362.35546875 522 359.35546875 523.25 c 128,-1,334
 356.35546875 524.5 356.35546875 524.5 354.35546875 526 c 1,335,336
 341.35546875 519.5 341.35546875 519.5 336.85546875 519.5 c 0,337,338
 329.35546875 519.5 329.35546875 519.5 324.35546875 529 c 1,247,-1
266.85546875 819.5 m 1,339,340
 306.85546875 795.5 306.85546875 795.5 332.85546875 741 c 128,-1,341
 358.85546875 686.5 358.85546875 686.5 363.85546875 638.5 c 0,342,343
 365.85546875 629.5 365.85546875 629.5 368.35546875 598.5 c 128,-1,344
 370.85546875 567.5 370.85546875 567.5 376.35546875 553.5 c 1,345,346
 418.35546875 542.5 418.35546875 542.5 453.35546875 511.5 c 1,347,348
 486.85546875 487.5 486.85546875 487.5 528.85546875 443.25 c 128,-1,349
 570.85546875 399 570.85546875 399 606.35546875 355.75 c 128,-1,350
 641.85546875 312.5 641.85546875 312.5 692.35546875 243.5 c 128,-1,351
 742.85546875 174.5 742.85546875 174.5 771.60546875 133 c 128,-1,352
 800.35546875 91.5 800.35546875 91.5 851.60546875 16.5 c 128,-1,353
 902.85546875 -58.5 902.85546875 -58.5 918.85546875 -81.5 c 0,354,355
 927.85546875 -92.5 927.85546875 -92.5 922.35546875 -101.25 c 128,-1,356
 916.85546875 -110 916.85546875 -110 905.85546875 -110 c 0,357,358
 893.35546875 -110 893.35546875 -110 889.35546875 -96.5 c 1,359,-1
 792.85546875 -36 l 1,360,-1
 792.85546875 -36 l 1,361,362
 833.35546875 -87 833.35546875 -87 848.35546875 -129.5 c 0,363,364
 851.85546875 -138.5 851.85546875 -138.5 847.10546875 -142.5 c 128,-1,365
 842.35546875 -146.5 842.35546875 -146.5 823.85546875 -151.5 c 128,-1,366
 805.35546875 -156.5 805.35546875 -156.5 793.35546875 -161.5 c 0,367,368
 751.35546875 -180 751.35546875 -180 698.35546875 -180 c 0,369,370
 657.35546875 -180 657.35546875 -180 624.60546875 -167.75 c 128,-1,371
 591.85546875 -155.5 591.85546875 -155.5 577.35546875 -132.5 c 0,372,373
 562.35546875 -108 562.35546875 -108 537.10546875 -36.75 c 128,-1,374
 511.85546875 34.5 511.85546875 34.5 506.35546875 45.5 c 0,375,376
 504.35546875 50 504.35546875 50 495.85546875 50 c 0,377,378
 486.35546875 50 486.35546875 50 485.85546875 45 c 0,379,380
 463.85546875 -35 463.85546875 -35 445.35546875 -47.5 c 0,381,382
 441.35546875 -50.5 441.35546875 -50.5 433.85546875 -50.5 c 0,383,384
 425.35546875 -50.5 425.35546875 -50.5 408.35546875 -44.5 c 128,-1,385
 391.35546875 -38.5 391.35546875 -38.5 387.35546875 -37.5 c 1,386,387
 372.85546875 -82.5 372.85546875 -82.5 343.85546875 -134 c 1,388,389
 337.85546875 -149 337.85546875 -149 314.60546875 -157 c 128,-1,390
 291.35546875 -165 291.35546875 -165 260.35546875 -165 c 0,391,392
 233.35546875 -165 233.35546875 -165 209.35546875 -159 c 1,393,394
 213.85546875 -150.5 213.85546875 -150.5 211.35546875 -150.5 c 2,395,-1
 208.35546875 -151.5 l 1,396,-1
 203.35546875 -154 l 2,397,398
 200.35546875 -155.5 200.35546875 -155.5 198.35546875 -156 c 0,399,400
 187.35546875 -157.5 187.35546875 -157.5 165.35546875 -157.5 c 0,401,402
 152.35546875 -157.5 152.35546875 -157.5 128.60546875 -156.5 c 128,-1,403
 104.85546875 -155.5 104.85546875 -155.5 97.35546875 -155.5 c 0,404,405
 94.35546875 -154.5 94.35546875 -154.5 81.85546875 -154.5 c 0,406,407
 72.85546875 -154.5 72.85546875 -154.5 68.85546875 -154 c 0,408,409
 55.35546875 -153 55.35546875 -153 61.35546875 -146.5 c 1,410,-1
 61.35546875 -146.5 l 1,411,412
 52.85546875 -148 52.85546875 -148 42.10546875 -157.75 c 128,-1,413
 31.35546875 -167.5 31.35546875 -167.5 24.35546875 -178.5 c 1,414,415
 17.35546875 -175 17.35546875 -175 21.60546875 -154 c 128,-1,416
 25.85546875 -133 25.85546875 -133 36.85546875 -126 c 0,417,418
 54.35546875 -115.5 54.35546875 -115.5 105.85546875 -115.5 c 2,419,-1
 115.35546875 -115.5 l 2,420,421
 142.35546875 -115.5 142.35546875 -115.5 158.60546875 -112.75 c 128,-1,422
 174.85546875 -110 174.85546875 -110 181.85546875 -100.5 c 0,423,424
 199.85546875 -76 199.85546875 -76 219.60546875 -20.75 c 128,-1,425
 239.35546875 34.5 239.35546875 34.5 225.85546875 47.5 c 1,426,427
 222.35546875 60.5 222.35546875 60.5 205.60546875 123.25 c 128,-1,428
 188.85546875 186 188.85546875 186 174.60546875 237.5 c 128,-1,429
 160.35546875 289 160.35546875 289 142.60546875 346.75 c 128,-1,430
 124.85546875 404.5 124.85546875 404.5 113.35546875 430.5 c 1,431,432
 71.85546875 474 71.85546875 474 54.35546875 505.25 c 128,-1,433
 36.85546875 536.5 36.85546875 536.5 33.10546875 572.75 c 128,-1,434
 29.35546875 609 29.35546875 609 33.35546875 659.5 c 0,435,436
 37.35546875 725.5 37.35546875 725.5 95.35546875 808.5 c 1,437,438
 103.35546875 814 103.35546875 814 114.85546875 814 c 0,439,440
 123.85546875 814 123.85546875 814 143.10546875 809 c 128,-1,441
 162.35546875 804 162.35546875 804 171.85546875 804 c 0,442,443
 176.85546875 804 176.85546875 804 179.35546875 804.5 c 0,444,445
 183.35546875 804 183.35546875 804 191.35546875 804 c 0,446,447
 230.85546875 804 230.85546875 804 266.85546875 819.5 c 1,339,340
EndSplineSet
Validated: 3109
EndChar

StartChar: f
Encoding: 102 102 20
Width: 484
Flags: W
LayerCount: 2
Fore
SplineSet
384.5 231.5 m 1,0,-1
 156 231.5 l 1,1,-1
 156 17 l 1,2,-1
 100 17 l 1,3,-1
 100 474 l 1,4,-1
 128 502 l 1,5,-1
 384.5 502 l 1,6,-1
 384.5 446 l 1,7,-1
 156 446 l 1,8,-1
 156 287.5 l 1,9,-1
 384.5 287.5 l 1,10,-1
 384.5 231.5 l 1,0,-1
EndSplineSet
Validated: 1
Substitution2: "'ss04' Egyptian Hieroform Latin" u13191
Substitution2: "'ss03' Egyptian Hieratic Latin" f.hier
Substitution2: "'ss02' Egyptian Transliteration Latin" f.tran
Substitution2: "'ss01' Hierography-bopomofo" u13191
EndChar

StartChar: u13191
Encoding: 78225 78225 21
Width: 1005
Flags: W
LayerCount: 2
Fore
SplineSet
107.5 -47.5 m 0,0,1
 123.5 -47.5 123.5 -47.5 142 -61.5 c 1,2,3
 125.5 -77 125.5 -77 103 -79.5 c 0,4,5
 99.5 -80 99.5 -80 97 -80 c 0,6,7
 80.5 -80 80.5 -80 78.5 -69 c 0,8,9
 76 -55.5 76 -55.5 96.5 -49 c 0,10,11
 101.5 -47.5 101.5 -47.5 107.5 -47.5 c 0,0,1
117.5 -35.5 m 2,12,-1
 115.5 -35.5 l 2,13,14
 72.5 -36.5 72.5 -36.5 59.5 -69 c 1,15,16
 57 -92.5 57 -92.5 80 -94 c 1,17,18
 105.5 -87 105.5 -87 130.5 -87 c 0,19,20
 186.5 -87 186.5 -87 239 -122.5 c 1,21,22
 292.5 -147 292.5 -147 353 -147 c 0,23,24
 373 -147 373 -147 394 -144 c 0,25,26
 477 -133.5 477 -133.5 542 -121 c 0,27,28
 574.5 -114.5 574.5 -114.5 610 -114.5 c 128,-1,29
 645.5 -114.5 645.5 -114.5 684 -121 c 0,30,31
 760.5 -133.5 760.5 -133.5 816.5 -133.5 c 0,32,33
 873 -133.5 873 -133.5 931.5 -127.5 c 1,34,35
 840.5 -122.5 840.5 -122.5 798.5 -116.5 c 0,36,37
 757 -110.5 757 -110.5 693.5 -89.5 c 0,38,39
 651.5 -76 651.5 -76 603.5 -76 c 0,40,41
 578.5 -76 578.5 -76 552 -79.5 c 0,42,43
 474.5 -90.5 474.5 -90.5 404 -104.5 c 0,44,45
 376 -110 376 -110 350 -110 c 0,46,47
 296 -110 296 -110 251 -86.5 c 0,48,49
 161 -35.5 161 -35.5 117.5 -35.5 c 2,12,-1
149.5 86.5 m 2,50,-1
 150.5 86.5 l 2,51,52
 176.5 85.5 176.5 85.5 179.5 61 c 128,-1,53
 182.5 36.5 182.5 36.5 135 -0.5 c 1,54,55
 192 -21 192 -21 243.5 -52 c 1,56,57
 293.5 -77.5 293.5 -77.5 357 -77.5 c 0,58,59
 404 -77.5 404 -77.5 457.5 -64 c 0,60,61
 541.5 -46 541.5 -46 605.5 -46 c 0,62,63
 669 -46 669 -46 713 -64 c 0,64,65
 801 -100 801 -100 907.5 -101 c 1,66,67
 957.5 -109.5 957.5 -109.5 985 -134.5 c 1,68,69
 985 -151.5 985 -151.5 883.5 -153.5 c 0,70,71
 863.5 -155.5 863.5 -155.5 838.5 -155.5 c 0,72,73
 783.5 -155.5 783.5 -155.5 705.5 -146.5 c 0,74,75
 674 -143 674 -143 642 -143 c 0,76,77
 558 -143 558 -143 468.5 -168 c 1,78,79
 396 -180 396 -180 342.5 -180 c 0,80,81
 262 -180 262 -180 225 -153 c 0,82,83
 182 -121.5 182 -121.5 133 -121.5 c 0,84,85
 112.5 -121.5 112.5 -121.5 90.5 -127.5 c 1,86,87
 20 -122.5 20 -122.5 20 -80.5 c 0,88,89
 20 -39 20 -39 68 -11.5 c 1,90,91
 8 53 8 53 44 76 c 0,92,93
 48.5 77.5 48.5 77.5 53 77.5 c 0,94,95
 82.5 77.5 82.5 77.5 101.5 8 c 1,96,97
 123.5 86.5 123.5 86.5 149.5 86.5 c 2,50,-1
EndSplineSet
Validated: 2081
EndChar

StartChar: d
Encoding: 100 100 22
Width: 590
Flags: W
LayerCount: 2
Fore
SplineSet
490 259.5 m 128,-1,1
 490 119.5 490 119.5 396 62 c 0,2,3
 322 16.5 322 16.5 173 16.5 c 2,4,-1
 128 16.5 l 1,5,-1
 100 44.5 l 1,6,-1
 100 474 l 1,7,-1
 128 502 l 1,8,-1
 173 502 l 2,9,10
 322 502 322 502 396 457 c 0,11,0
 490 399.5 490 399.5 490 259.5 c 128,-1,1
434 259.5 m 0,12,13
 434 379 434 379 348 419.5 c 0,14,15
 292 446 292 446 156 446 c 1,16,-1
 156 72.5 l 1,17,-1
 173 72.5 l 2,18,19
 299 72.5 299 72.5 355.5 103 c 0,20,21
 434 145 434 145 434 259.5 c 0,12,13
EndSplineSet
Validated: 1
Substitution2: "'ss04' Egyptian Hieroform Latin" u130A7
Substitution2: "'ss03' Egyptian Hieratic Latin" d.hier
Substitution2: "'ss02' Egyptian Transliteration Latin" d.tran
Substitution2: "'ss01' Hierography-bopomofo" u130A7
EndChar

StartChar: u130A7
Encoding: 77991 77991 23
Width: 1458
Flags: W
LayerCount: 2
Fore
SplineSet
729.5 236.5 m 1,0,1
 534.5 200 534.5 200 471 200 c 1,2,-1
 419 202 l 1,3,-1
 419 202 l 1,4,5
 419 153 419 153 466 151.5 c 0,6,7
 495 151.5 495 151.5 733 170.5 c 0,8,9
 741 172 741 172 748.5 172 c 0,10,11
 797.5 172 797.5 172 844.5 110 c 1,12,13
 425.5 97.5 425.5 97.5 126 71.5 c 1,14,15
 75.5 52 75.5 52 75.5 -50 c 0,16,17
 75.5 -109 75.5 -109 160.5 -109 c 1,18,19
 222 -117 222 -117 366.25 -121.5 c 128,-1,20
 510.5 -126 510.5 -126 650 -126 c 0,21,22
 737.5 -126 737.5 -126 1026.5 -84.5 c 0,23,24
 1120 -72.5 1120 -72.5 1186.5 -69 c 1,25,26
 1255.5 -69 1255.5 -69 1382.5 -91.5 c 1,27,-1
 1382.5 120.5 l 1,28,29
 1302 110 1302 110 1228 110 c 0,30,31
 1052.5 110 1052.5 110 931 172.5 c 0,32,33
 805.5 236.5 805.5 236.5 729.5 236.5 c 1,0,1
750.5 287 m 1,34,35
 834 287 834 287 959 223 c 0,36,37
 1060.5 170.5 1060.5 170.5 1170.5 170.5 c 0,38,39
 1194 170.5 1194 170.5 1212.5 172.5 c 1,40,41
 1301.5 172.5 1301.5 172.5 1438 183 c 1,42,-1
 1438 -149 l 1,43,44
 1264 -122.5 1264 -122.5 1183 -122.5 c 0,45,46
 1096.5 -122.5 1096.5 -122.5 797.5 -169.5 c 0,47,48
 753.5 -177 753.5 -177 658.5 -180 c 1,49,50
 445.5 -180 445.5 -180 273.75 -169 c 128,-1,51
 102 -158 102 -158 56.5 -138.5 c 1,52,53
 20 -105 20 -105 20 -39.5 c 0,54,55
 20 53.5 20 53.5 70.5 110 c 1,56,57
 80 115 80 115 166 124 c 0,58,59
 176.5 125 176.5 125 270 127.5 c 128,-1,60
 363.5 130 363.5 130 386 131 c 1,61,62
 368.5 147 368.5 147 368.5 172.5 c 0,63,64
 368.5 242 368.5 242 408.5 257.5 c 1,65,66
 451 247 451 247 476 247 c 0,67,68
 530.5 247 530.5 247 750.5 287 c 1,34,35
EndSplineSet
Validated: 5
EndChar

StartChar: t
Encoding: 116 116 24
Width: 638
Flags: W
LayerCount: 2
Fore
SplineSet
538 446 m 1,0,-1
 347 446 l 1,1,-1
 347 17 l 1,2,-1
 291 17 l 1,3,-1
 291 446 l 1,4,-1
 100 446 l 1,5,-1
 100 502 l 1,6,-1
 538 502 l 1,7,-1
 538 446 l 1,0,-1
EndSplineSet
Validated: 1
Substitution2: "'ss04' Egyptian Hieroform Latin" u133CF
Substitution2: "'ss03' Egyptian Hieratic Latin" t.hier
Substitution2: "'ss02' Egyptian Transliteration Latin" t.tran
Substitution2: "'ss01' Hierography-bopomofo" u133CF
EndChar

StartChar: u133CF
Encoding: 78799 78799 25
Width: 519
Flags: W
LayerCount: 2
Fore
SplineSet
259.5 30 m 0,0,1
 216 30 216 30 168 10.75 c 128,-1,2
 120 -8.5 120 -8.5 93 -36 c 0,3,4
 72 -57 72 -57 64.75 -84 c 128,-1,5
 57.5 -111 57.5 -111 56.5 -147 c 1,6,-1
 464.5 -147 l 1,7,8
 463.5 -111.5 463.5 -111.5 456.25 -84.25 c 128,-1,9
 449 -57 449 -57 428 -36 c 0,10,11
 401 -8.5 401 -8.5 352.25 10.75 c 128,-1,12
 303.5 30 303.5 30 259.5 30 c 0,0,1
259.5 63 m 128,-1,14
 311.5 63 311.5 63 364.25 41.5 c 128,-1,15
 417 20 417 20 450.5 -13.5 c 0,16,17
 471.5 -34.5 471.5 -34.5 483 -63.25 c 128,-1,18
 494.5 -92 494.5 -92 496.75 -113 c 128,-1,19
 499 -134 499 -134 499 -162.5 c 2,20,-1
 499 -180 l 1,21,-1
 20 -180 l 1,22,-1
 20 -162.5 l 2,23,24
 20 -63.5 20 -63.5 70.5 -13.5 c 0,25,26
 104 20.5 104 20.5 155.75 41.75 c 128,-1,13
 207.5 63 207.5 63 259.5 63 c 128,-1,14
EndSplineSet
Validated: 1
EndChar

StartChar: n
Encoding: 110 110 26
Width: 552
Flags: W
LayerCount: 2
Fore
SplineSet
452 62 m 1,0,-1
 401.5 45 l 1,1,-1
 156 373 l 1,2,-1
 156 17 l 1,3,-1
 100 17 l 1,4,-1
 100 457 l 1,5,-1
 150.5 474 l 1,6,-1
 396 146 l 1,7,-1
 396 502 l 1,8,-1
 452 502 l 1,9,-1
 452 62 l 1,0,-1
EndSplineSet
Validated: 1
Substitution2: "'ss04' Egyptian Hieroform Latin" u13216
Substitution2: "'ss03' Egyptian Hieratic Latin" n.hier
Substitution2: "'ss02' Egyptian Transliteration Latin" n.tran
Substitution2: "'ss01' Hierography-bopomofo" u13216
EndChar

StartChar: u13216
Encoding: 78358 78358 27
Width: 1052
Flags: W
LayerCount: 2
Fore
SplineSet
117 54.5 m 5,0,-1
 140 11 l 5,1,-1
 162.5 -32.5 l 5,2,-1
 185 11 l 5,3,-1
 207.5 52.5 l 5,4,-1
 228.5 11 l 5,5,-1
 251 -32.5 l 5,6,-1
 273.5 11 l 5,7,-1
 294.5 52.5 l 5,8,-1
 317 11 l 5,9,-1
 339.5 -32.5 l 5,10,-1
 362 11 l 5,11,-1
 383 52.5 l 5,12,-1
 405.5 11 l 5,13,-1
 428 -30.5 l 5,14,-1
 450.5 11 l 5,15,-1
 471.5 52.5 l 5,16,-1
 492 11 l 5,17,-1
 516.5 -32.5 l 5,18,-1
 539 11 l 5,19,-1
 560 52.5 l 5,20,-1
 581 11 l 5,21,-1
 603.5 -32.5 l 5,22,-1
 627.5 11 l 5,23,-1
 648.5 52.5 l 5,24,-1
 669.5 11 l 5,25,-1
 693.5 -32.5 l 5,26,-1
 716 11 l 5,27,-1
 737 52.5 l 5,28,-1
 758 11 l 5,29,-1
 780.5 -32.5 l 5,30,-1
 804.5 11 l 5,31,-1
 824 51 l 5,32,-1
 846.5 11 l 5,33,-1
 870.5 -34 l 5,34,-1
 896.5 11 l 5,35,-1
 917.5 49 l 5,36,-1
 938.5 12.5 l 5,37,-1
 1021.5 -136.5 l 5,38,-1
 1032 -157.5 l 5,39,-1
 990.5 -180 l 5,40,-1
 978.5 -159 l 5,41,-1
 917.5 -50 l 5,42,-1
 893.5 -96.5 l 5,43,-1
 870.5 -135 l 5,44,-1
 850 -96.5 l 5,45,-1
 825.5 -51.5 l 5,46,-1
 803 -95 l 5,47,-1
 780.5 -136.5 l 5,48,-1
 759.5 -95 l 5,49,-1
 737 -51.5 l 5,50,-1
 714.5 -95 l 5,51,-1
 692 -136.5 l 5,52,-1
 671 -95 l 5,53,-1
 648.5 -51.5 l 5,54,-1
 626 -95 l 5,55,-1
 605 -136.5 l 5,56,-1
 582.5 -95 l 5,57,-1
 560 -51.5 l 5,58,-1
 537.5 -95 l 5,59,-1
 516.5 -136.5 l 5,60,-1
 494 -95 l 5,61,-1
 471.5 -51.5 l 5,62,-1
 449 -95 l 5,63,-1
 428 -136.5 l 5,64,-1
 405.5 -95 l 5,65,-1
 383 -53.5 l 5,66,-1
 360.5 -95 l 5,67,-1
 339.5 -136.5 l 5,68,-1
 318.5 -95 l 5,69,-1
 294.5 -51.5 l 5,70,-1
 271.5 -95 l 5,71,-1
 251 -136.5 l 5,72,-1
 230 -95 l 5,73,-1
 207.5 -51.5 l 5,74,-1
 183 -95 l 5,75,-1
 162.5 -136.5 l 5,76,-1
 141.5 -95 l 5,77,-1
 119 -55 l 5,78,-1
 74 -157.5 l 5,79,-1
 63.5 -180 l 5,80,-1
 20 -159 l 5,81,-1
 30.5 -138.5 l 5,82,-1
 96.5 9 l 5,83,-1
 117 54.5 l 5,0,-1
EndSplineSet
Validated: 1
EndChar

StartChar: l
Encoding: 108 108 28
Width: 537
Flags: W
LayerCount: 2
Fore
SplineSet
437 17 m 1,0,-1
 128 17 l 1,1,-1
 100 45 l 1,2,-1
 100 502 l 1,3,-1
 156 502 l 1,4,-1
 156 73 l 1,5,-1
 437 73 l 1,6,-1
 437 17 l 1,0,-1
EndSplineSet
Validated: 1
Substitution2: "'ss04' Egyptian Hieroform Latin" u130ED
Substitution2: "'ss03' Egyptian Hieratic Latin" l.hier
Substitution2: "'ss02' Egyptian Transliteration Latin" l.tran
Substitution2: "'ss01' Hierography-bopomofo" u130ED
EndChar

StartChar: u130ED
Encoding: 78061 78061 29
Width: 1100
Flags: W
LayerCount: 2
Fore
SplineSet
369.0625 250 m 4,0,1
 360.5625 250 360.5625 250 352.0625 233 c 5,2,3
 334.0625 216 334.0625 216 334.0625 208.5 c 5,4,5
 338.5625 199 338.5625 199 350.0625 198 c 6,6,-1
 350.5625 198 l 6,7,8
 362.0625 198 362.0625 198 364.0625 223 c 4,9,10
 366.0625 237 366.0625 237 377.5625 237 c 4,11,12
 383.0625 237 383.0625 237 391.0625 234 c 5,13,14
 385.0625 250 385.0625 250 369.0625 250 c 4,0,1
386.5625 228 m 6,15,-1
 385.0625 228 l 5,16,-1
 383.5625 228 l 6,17,18
 375.0625 228 375.0625 228 374.0625 211 c 5,19,-1
 369.0625 200 l 5,20,-1
 369.0625 197.5 l 5,21,-1
 372.0625 197.5 l 6,22,23
 388.5625 197.5 388.5625 197.5 391.0625 222 c 4,24,25
 391.0625 228 391.0625 228 386.5625 228 c 6,15,-1
278.5625 214.5 m 4,26,27
 281.0625 214.5 281.0625 214.5 283.5625 214 c 6,28,-1
 297.5625 212 l 5,29,30
 297.5625 208.5 297.5625 208.5 283.5625 208.5 c 132,-1,31
 269.5625 208.5 269.5625 208.5 263.5625 200.5 c 132,-1,32
 257.5625 192.5 257.5625 192.5 256.0625 180.5 c 5,33,-1
 251.5625 180.5 l 5,34,35
 246.5625 200 246.5625 200 258.0625 208 c 4,36,37
 267.5625 214.5 267.5625 214.5 278.5625 214.5 c 4,26,27
278.0625 203.5 m 132,-1,39
 292.5625 203.5 292.5625 203.5 301.0625 196.5 c 5,40,41
 291.5625 184 291.5625 184 270.5625 179.5 c 5,42,43
 270.0625 175.5 270.0625 175.5 265.5625 175.5 c 4,44,45
 264.5625 175.5 264.5625 175.5 263.5625 176 c 6,46,-1
 263.5625 183 l 6,47,38
 263.5625 203.5 263.5625 203.5 278.0625 203.5 c 132,-1,39
256.0625 172 m 5,48,-1
 261.0625 169.5 l 5,49,50
 254.0625 142 254.0625 142 324.0625 137 c 5,51,-1
 315.5625 133.5 l 5,52,53
 260.0625 138 260.0625 138 255.0625 151 c 4,54,55
 250.0625 163.5 250.0625 163.5 256.0625 172 c 5,48,-1
335.0625 230.5 m 5,56,57
 306.0625 223 306.0625 223 284.0625 220 c 4,58,59
 262.5625 217 262.5625 217 244.5625 202 c 4,60,61
 227.0625 186.5 227.0625 186.5 200.5625 169.5 c 5,62,63
 196.5625 160 196.5625 160 209.0625 146.5 c 5,64,65
 204.0625 129.5 204.0625 129.5 224.5625 126 c 5,66,67
 234.5625 128.5 234.5625 128.5 243.5625 132.5 c 4,68,69
 246.0625 134 246.0625 134 249.0625 134 c 4,70,71
 255.0625 134 255.0625 134 261.0625 127 c 5,72,73
 247.5625 122.5 247.5625 122.5 243.0625 118.5 c 4,74,75
 238.0625 115 238.0625 115 226.0625 114 c 5,76,77
 227.0625 94 227.0625 94 238.0625 94 c 4,78,79
 239.5625 94 239.5625 94 241.5625 94.5 c 4,80,81
 245.0625 93 245.0625 93 248.0625 93 c 4,82,83
 254.5625 93 254.5625 93 260.0625 101 c 4,84,85
 266.5625 111.5 266.5625 111.5 281.5625 111.5 c 6,86,-1
 284.5625 111.5 l 6,87,88
 302.5625 110 302.5625 110 308.5625 95.5 c 5,89,90
 348.5625 120 348.5625 120 346.0625 165 c 5,91,92
 348.5625 185.5 348.5625 185.5 337.5625 190.5 c 4,93,94
 325.5625 195 325.5625 195 323.0625 202.5 c 4,95,96
 319.5625 219.5 319.5625 219.5 335.0625 230.5 c 5,56,57
406.5625 241.5 m 5,97,98
 443.0625 189 443.0625 189 397.0625 180.5 c 5,99,100
 376.5625 172 376.5625 172 381.0625 147 c 4,101,102
 386.0625 122.5 386.0625 122.5 346.0625 86 c 5,103,104
 324.0625 35 324.0625 35 329.0625 -16 c 5,105,106
 449.0625 41 449.0625 41 514.5625 137 c 5,107,108
 508.5625 172 508.5625 172 473.5625 205.5 c 4,109,110
 438.0625 239 438.0625 239 406.5625 241.5 c 5,97,98
852.0625 36.5 m 4,111,112
 816.5625 36.5 816.5625 36.5 831.5625 -8.5 c 5,113,114
 865.0625 -63.5 865.0625 -63.5 992.5625 -116.5 c 5,115,116
 1023.0625 -116.5 1023.0625 -116.5 1019.5625 -110.5 c 4,117,118
 1000.0625 -52.5 1000.0625 -52.5 955.0625 -13 c 132,-1,119
 910.0625 26.5 910.0625 26.5 855.5625 36 c 4,120,121
 853.5625 36.5 853.5625 36.5 852.0625 36.5 c 4,111,112
528.0625 97 m 5,122,123
 454.0625 0 454.0625 0 334.0625 -53.5 c 5,124,125
 319.5625 -75.5 319.5625 -75.5 370.0625 -136 c 5,126,127
 373.5625 -81.5 373.5625 -81.5 428.5625 -81.5 c 4,128,129
 438.0625 -81.5 438.0625 -81.5 449.5625 -83.5 c 4,130,131
 503.0625 -91.5 503.0625 -91.5 553.0625 -91.5 c 4,132,133
 574.0625 -91.5 574.0625 -91.5 594.5625 -90 c 4,134,135
 664.0625 -85 664.0625 -85 784.0625 -31.5 c 5,136,137
 784.0625 27.5 784.0625 27.5 766.5625 27.5 c 4,138,139
 764.5625 27.5 764.5625 27.5 762.0625 26.5 c 4,140,141
 741.0625 24.5 741.0625 24.5 720.5625 24.5 c 4,142,143
 603.5625 24.5 603.5625 24.5 528.0625 97 c 5,122,123
380.0625 273.5 m 6,144,145
 432.0625 273.5 432.0625 273.5 477.0625 242 c 4,146,147
 524.5625 208.5 524.5625 208.5 558.5625 122.5 c 5,148,149
 620.0625 62.5 620.0625 62.5 714.0625 62.5 c 4,150,151
 757.0625 62.5 757.0625 62.5 807.0625 75 c 5,152,153
 848.0625 126 848.0625 126 898.5625 131.5 c 4,154,155
 901.5625 132 901.5625 132 905.0625 132 c 4,156,157
 952.0625 132 952.0625 132 995.0625 54.5 c 5,158,159
 988.5625 42 988.5625 42 979.0625 42 c 4,160,161
 965.5625 42 965.5625 42 946.5625 67 c 4,162,163
 928.0625 91 928.0625 91 908.0625 91 c 4,164,165
 892.0625 91 892.0625 91 875.0625 76.5 c 5,166,167
 940.5625 41 940.5625 41 995.0625 -2 c 132,-1,168
 1049.5625 -45 1049.5625 -45 1072.5625 -93 c 132,-1,169
 1095.5625 -141 1095.5625 -141 1055.5625 -177.5 c 5,170,-1
 661.5625 -177.5 l 5,171,172
 641.0625 -153 641.0625 -153 664.0625 -135.5 c 4,173,174
 675.0625 -127 675.0625 -127 697.0625 -127 c 4,175,176
 721.5625 -127 721.5625 -127 759.5625 -137.5 c 4,177,178
 782.5625 -143.5 782.5625 -143.5 800.5625 -143.5 c 4,179,180
 839.5625 -143.5 839.5625 -143.5 855.5625 -114 c 5,181,182
 848.0625 -92.5 848.0625 -92.5 812.5625 -84 c 4,183,184
 799.5625 -81 799.5625 -81 787.5625 -81 c 4,185,186
 766.5625 -81 766.5625 -81 748.0625 -90.5 c 4,187,188
 719.5625 -105.5 719.5625 -105.5 625.5625 -123.5 c 4,189,190
 560.5625 -135.5 560.5625 -135.5 513.0625 -135.5 c 4,191,192
 492.0625 -135.5 492.0625 -135.5 474.0625 -133 c 4,193,194
 462.5625 -131.5 462.5625 -131.5 454.0625 -131.5 c 4,195,196
 419.5625 -131.5 419.5625 -131.5 432.5625 -157.5 c 4,197,198
 444.5625 -180 444.5625 -180 262.5625 -180 c 4,199,200
 186.5625 -180 186.5625 -180 78.0625 -176 c 5,201,-1
 30.5625 -176 l 5,202,203
 11.0625 -156.5 11.0625 -156.5 27.5625 -130.5 c 4,204,205
 36.0625 -117 36.0625 -117 63.5625 -117 c 4,206,207
 89.0625 -117 89.0625 -117 131.0625 -129 c 5,208,209
 150.5625 -131 150.5625 -131 167.5625 -131 c 4,210,211
 222.5625 -131 222.5625 -131 254.0625 -110 c 4,212,213
 295.0625 -82.5 295.0625 -82.5 286.0625 -61 c 4,214,215
 277.0625 -39 277.0625 -39 286.0625 7 c 132,-1,216
 295.0625 53 295.0625 53 300.0625 71.5 c 5,217,218
 294.0625 89.5 294.0625 89.5 281.5625 91.5 c 5,219,-1
 278.0625 91.5 l 6,220,221
 268.5625 91.5 268.5625 91.5 262.5625 83 c 4,222,223
 255.0625 72.5 255.0625 72.5 230.5625 69 c 5,224,225
 211.5625 78.5 211.5625 78.5 208.5625 99.5 c 4,226,227
 205.0625 120 205.0625 120 203.0625 120 c 4,228,229
 190.5625 128.5 190.5625 128.5 190.5625 142 c 5,230,231
 173.5625 157.5 173.5625 157.5 180.0625 171 c 4,232,233
 183.5625 179.5 183.5625 179.5 203.5625 191 c 132,-1,234
 223.5625 202.5 223.5625 202.5 240.0625 217 c 4,235,236
 256.0625 231.5 256.0625 231.5 275.0625 237 c 132,-1,237
 294.0625 242.5 294.0625 242.5 315.5625 251 c 5,238,239
 319.5625 271.5 319.5625 271.5 374.5625 273.5 c 5,240,-1
 380.0625 273.5 l 6,144,145
EndSplineSet
Validated: 2081
EndChar

StartChar: g
Encoding: 103 103 30
Width: 614
Flags: W
LayerCount: 2
Fore
SplineSet
514.5 478.5 m 1,0,-1
 493 427 l 1,1,2
 425 455.5 425 455.5 375 455.5 c 0,3,4
 288.5 455.5 288.5 455.5 224 401.5 c 0,5,6
 156 344.5 156 344.5 156 259.5 c 128,-1,7
 156 174.5 156 174.5 224 117.5 c 0,8,9
 288.5 63.5 288.5 63.5 375 63.5 c 0,10,11
 413.5 63.5 413.5 63.5 450 75.5 c 1,12,-1
 450 197.5 l 1,13,-1
 347 197.5 l 1,14,-1
 347 253.5 l 1,15,-1
 478 253.5 l 1,16,-1
 506 225.5 l 1,17,-1
 506 56 l 1,18,-1
 489 30 l 1,19,20
 435 7.5 435 7.5 375 7.5 c 0,21,22
 265 7.5 265 7.5 184.5 78 c 0,23,24
 100 151.5 100 151.5 100 259.5 c 128,-1,25
 100 367.5 100 367.5 184.5 441 c 0,26,27
 265 511.5 265 511.5 375 511.5 c 0,28,29
 435.5 511.5 435.5 511.5 514.5 478.5 c 1,0,-1
EndSplineSet
Validated: 1
Substitution2: "'ss04' Egyptian Hieroform Latin" u133BC
Substitution2: "'ss03' Egyptian Hieratic Latin" g.hier
Substitution2: "'ss02' Egyptian Transliteration Latin" g.tran
Substitution2: "'ss01' Hierography-bopomofo" u133BC
EndChar

StartChar: u133BC
Encoding: 78780 78780 31
Width: 556
Flags: W
LayerCount: 2
Fore
SplineSet
278 90 m 5,0,-1
 226 -31.5 l 5,1,2
 252 -40 252 -40 278 -40 c 132,-1,3
 304 -40 304 -40 330 -31.5 c 5,4,-1
 278 90 l 5,0,-1
278 185.5 m 5,5,-1
 392 -64 l 5,6,7
 339 -88 339 -88 278 -88 c 4,8,9
 217.5 -88 217.5 -88 164 -64 c 5,10,-1
 278 185.5 l 5,5,-1
432 265.5 m 5,11,-1
 124 265.5 l 5,12,13
 115.5 86.5 115.5 86.5 73 -72.5 c 5,14,15
 125 -131 125 -131 278 -131 c 132,-1,16
 431 -131 431 -131 483 -72.5 c 5,17,18
 440.5 86.5 440.5 86.5 432 265.5 c 5,11,-1
59 313.5 m 6,19,-1
 497 313.5 l 6,20,21
 523 313.5 523 313.5 523 289.5 c 132,-1,22
 523 265.5 523 265.5 497 265.5 c 5,23,24
 490.5 260 490.5 260 476.5 253.5 c 5,25,26
 485 95.5 485 95.5 536 -102 c 5,27,28
 440.5 -180 440.5 -180 278 -180 c 132,-1,29
 115.5 -180 115.5 -180 20 -102 c 5,30,31
 71 95.5 71 95.5 79.5 253.5 c 5,32,33
 65.5 260 65.5 260 59 265.5 c 5,34,35
 33 265.5 33 265.5 33 289.5 c 132,-1,36
 33 313.5 33 313.5 59 313.5 c 6,19,-1
EndSplineSet
Validated: 2049
EndChar

StartChar: k
Encoding: 107 107 32
Width: 528
Flags: W
LayerCount: 2
Fore
SplineSet
428.5 104.5 m 1,0,-1
 395 60 l 1,1,-1
 156 241 l 1,2,-1
 156 17 l 1,3,-1
 100 17 l 1,4,-1
 100 502 l 1,5,-1
 156 502 l 1,6,-1
 156 304 l 1,7,-1
 395 486 l 1,8,-1
 428.5 441.5 l 1,9,-1
 207 272.5 l 1,10,-1
 428.5 104.5 l 1,0,-1
EndSplineSet
Validated: 1
Substitution2: "'ss04' Egyptian Hieroform Latin" u133A1
Substitution2: "'ss03' Egyptian Hieratic Latin" k.hier
Substitution2: "'ss02' Egyptian Transliteration Latin" k.tran
Substitution2: "'ss01' Hierography-bopomofo" u133A1
EndChar

StartChar: u133A1
Encoding: 78753 78753 33
Width: 1047
Flags: W
LayerCount: 2
Fore
SplineSet
972.0234375 0.5 m 1,0,1
 974.5234375 -17 974.5234375 -17 974.5234375 -50 c 0,2,3
 974.5234375 -50.5 974.5234375 -50.5 974.7734375 -60.75 c 128,-1,4
 975.0234375 -71 975.0234375 -71 975.0234375 -74.5 c 128,-1,5
 975.0234375 -78 975.0234375 -78 976.0234375 -87.25 c 128,-1,6
 977.0234375 -96.5 977.0234375 -96.5 978.5234375 -101.25 c 128,-1,7
 980.0234375 -106 980.0234375 -106 982.7734375 -112.25 c 128,-1,8
 985.5234375 -118.5 985.5234375 -118.5 989.0234375 -122 c 1,9,10
 991.0234375 -117.5 991.0234375 -117.5 992.0234375 -112 c 128,-1,11
 993.0234375 -106.5 993.0234375 -106.5 993.2734375 -102.5 c 128,-1,12
 993.5234375 -98.5 993.5234375 -98.5 994.0234375 -91.5 c 128,-1,13
 994.5234375 -84.5 994.5234375 -84.5 994.5234375 -81.5 c 0,14,15
 991.5234375 -27 991.5234375 -27 972.0234375 0.5 c 1,0,1
73.5234375 23 m 1,16,17
 156.0234375 -66.5 156.0234375 -66.5 247.5234375 -106.75 c 128,-1,18
 339.0234375 -147 339.0234375 -147 472.5234375 -147 c 0,19,20
 605.0234375 -147 605.0234375 -147 703.0234375 -106.25 c 128,-1,21
 801.0234375 -65.5 801.0234375 -65.5 893.5234375 22 c 1,22,-1
 73.5234375 23 l 1,16,17
36.5234375 56 m 1,23,-1
 36.5234375 56 l 1,24,-1
 941.0234375 55 l 2,25,26
 977.5234375 55 977.5234375 55 1004.0234375 12 c 0,27,28
 1027.5234375 -28.5 1027.5234375 -28.5 1027.5234375 -81.5 c 0,29,30
 1027.5234375 -94 1027.5234375 -94 1027.0234375 -100 c 128,-1,31
 1026.5234375 -106 1026.5234375 -106 1024.7734375 -117.5 c 128,-1,32
 1023.0234375 -129 1023.0234375 -129 1019.5234375 -135.25 c 128,-1,33
 1016.0234375 -141.5 1016.0234375 -141.5 1009.0234375 -147.5 c 128,-1,34
 1002.0234375 -153.5 1002.0234375 -153.5 992.0234375 -155.5 c 1,35,36
 963.0234375 -153 963.0234375 -153 951.5234375 -123.5 c 0,37,38
 943.0234375 -103 943.0234375 -103 941.5234375 -50 c 0,39,40
 941.5234375 -3.5 941.5234375 -3.5 935.0234375 16 c 1,41,42
 867.5234375 -50.5 867.5234375 -50.5 800.5234375 -92.5 c 128,-1,43
 733.5234375 -134.5 733.5234375 -134.5 651.7734375 -157.25 c 128,-1,44
 570.0234375 -180 570.0234375 -180 472.5234375 -180 c 0,45,46
 324.5234375 -180 324.5234375 -180 220.5234375 -129.75 c 128,-1,47
 116.5234375 -79.5 116.5234375 -79.5 24.0234375 28.5 c 0,48,49
 17.5234375 36.5 17.5234375 36.5 21.5234375 46.5 c 0,50,51
 26.0234375 56 26.0234375 56 36.5234375 56 c 1,23,-1
EndSplineSet
Validated: 2053
EndChar

StartChar: h
Encoding: 104 104 34
Width: 566
Flags: W
LayerCount: 2
Fore
SplineSet
466.5 17 m 1,0,-1
 410.5 17 l 1,1,-1
 410.5 231.5 l 1,2,-1
 156 231.5 l 1,3,-1
 156 17 l 1,4,-1
 100 17 l 1,5,-1
 100 502 l 1,6,-1
 156 502 l 1,7,-1
 156 287.5 l 1,8,-1
 410.5 287.5 l 1,9,-1
 410.5 502 l 1,10,-1
 466.5 502 l 1,11,-1
 466.5 17 l 1,0,-1
EndSplineSet
Validated: 1
Substitution2: "'ss04' Egyptian Hieroform Latin" u13254
Substitution2: "'ss03' Egyptian Hieratic Latin" h.hier
Substitution2: "'ss02' Egyptian Transliteration Latin" h.tran
Substitution2: "'ss01' Hierography-bopomofo" u13254
EndChar

StartChar: u13254
Encoding: 78420 78420 35
Width: 630
Flags: W
LayerCount: 2
Fore
SplineSet
20 380 m 5,0,-1
 610.5 380 l 5,1,-1
 610.5 -180 l 5,2,-1
 321 -180 l 5,3,-1
 321 183 l 5,4,-1
 370 183 l 5,5,-1
 371 -131 l 5,6,-1
 562.5 -130 l 5,7,-1
 562.5 332 l 5,8,-1
 67 332 l 5,9,-1
 67 -180 l 5,10,-1
 20 -180 l 5,11,-1
 20 380 l 5,0,-1
EndSplineSet
Validated: 1
EndChar

StartChar: j
Encoding: 106 106 36
Width: 453
Flags: W
LayerCount: 2
Fore
SplineSet
353.5 89.5 m 2,0,1
 353.5 -94.5 353.5 -94.5 128 -94.5 c 2,2,-1
 100 -94.5 l 1,3,-1
 100 -38.5 l 1,4,-1
 128 -38.5 l 2,5,6
 297.5 -38.5 297.5 -38.5 297.5 89.5 c 2,7,-1
 297.5 502 l 1,8,-1
 353.5 502 l 1,9,-1
 353.5 89.5 l 2,0,1
EndSplineSet
Validated: 1
Substitution2: "'ss03' Egyptian Hieratic Latin" I.hier
Substitution2: "'ss02' Egyptian Transliteration Latin" I.tran
Substitution2: "'ss04' Egyptian Hieroform Latin" u133ED
Substitution2: "'ss01' Hierography-bopomofo" u1339B
EndChar

StartChar: u1339B
Encoding: 78747 78747 37
Width: 319
Flags: W
LayerCount: 2
Fore
SplineSet
159 780 m 128,-1,1
 107.5 780 107.5 780 107.5 712 c 0,2,3
 107.5 652.5 107.5 652.5 159 594 c 1,4,5
 210.5 652.5 210.5 652.5 210.5 712 c 0,6,0
 210.5 780 210.5 780 159 780 c 128,-1,1
159 519 m 0,7,8
 123 519 123 519 123 441 c 0,9,10
 123 396.5 123 396.5 159 359 c 1,11,12
 195.5 396.5 195.5 396.5 195.5 441 c 0,13,14
 195.5 519 195.5 519 159 519 c 0,7,8
159 283 m 0,15,16
 123 283 123 283 123 204.5 c 0,17,18
 123 160 123 160 159 123 c 1,19,20
 195.5 160 195.5 160 195.5 204.5 c 0,21,22
 195.5 283 195.5 283 159 283 c 0,15,16
159 818.5 m 0,23,24
 254 818.5 254 818.5 254 712 c 0,25,26
 254 645.5 254 645.5 222.5 607.5 c 0,27,28
 190.5 569.5 190.5 569.5 194 556.5 c 1,29,30
 234 508.5 234 508.5 234 441 c 0,31,32
 234 384.5 234 384.5 189.5 320.5 c 1,33,34
 234 272.5 234 272.5 234 204.5 c 0,35,36
 234 148.5 234 148.5 187 85.5 c 1,37,38
 180 70 180 70 220.5 14 c 128,-1,39
 261 -42 261 -42 299.5 -180 c 1,40,-1
 247 -180 l 1,41,42
 221 -89 221 -89 202 -49.5 c 0,43,44
 182.5 -10.5 182.5 -10.5 159 14 c 1,45,46
 137 -10.5 137 -10.5 117 -49.5 c 0,47,48
 97 -89 97 -89 71.5 -180 c 1,49,-1
 20 -180 l 1,50,51
 61 -42 61 -42 99.5 14 c 128,-1,52
 138 70 138 70 132 85.5 c 1,53,54
 84.5 148.5 84.5 148.5 84.5 204.5 c 0,55,56
 84.5 272.5 84.5 272.5 132 320.5 c 1,57,58
 84.5 384.5 84.5 384.5 84.5 441 c 0,59,60
 84.5 508.5 84.5 508.5 125 556.5 c 1,61,62
 128.5 569.5 128.5 569.5 96.5 607.5 c 128,-1,63
 64.5 645.5 64.5 645.5 65.5 712 c 0,64,65
 65.5 818.5 65.5 818.5 159 818.5 c 0,23,24
EndSplineSet
Validated: 2081
EndChar

StartChar: q
Encoding: 113 113 38
Width: 750
Flags: W
LayerCount: 2
Fore
SplineSet
650.5 259.5 m 0,0,1
 650.5 189.5 650.5 189.5 612.5 131.5 c 0,2,3
 577 76.5 577 76.5 516 43.5 c 1,4,-1
 633 -68 l 1,5,-1
 594.5 -108.5 l 1,6,-1
 459.5 20 l 1,7,8
 417.5 7.5 417.5 7.5 375 7.5 c 0,9,10
 265 7.5 265 7.5 184.5 78 c 0,11,12
 100 151.5 100 151.5 100 259.5 c 128,-1,13
 100 367.5 100 367.5 184.5 441 c 0,14,15
 265 511.5 265 511.5 375 511.5 c 128,-1,16
 485 511.5 485 511.5 566 441 c 0,17,18
 650.5 367.5 650.5 367.5 650.5 259.5 c 0,0,1
594.5 259.5 m 0,19,20
 594.5 344.5 594.5 344.5 526 401.5 c 0,21,22
 461.5 455.5 461.5 455.5 375 455.5 c 128,-1,23
 288.5 455.5 288.5 455.5 224 401.5 c 0,24,25
 156 344.5 156 344.5 156 259.5 c 128,-1,26
 156 174.5 156 174.5 224 117.5 c 0,27,28
 288.5 63.5 288.5 63.5 375 63.5 c 0,29,30
 394 63.5 394 63.5 410.5 66 c 1,31,-1
 341 132.5 l 1,32,-1
 379.5 173 l 1,33,-1
 472.5 84.5 l 1,34,35
 527 108.5 527 108.5 559.5 153 c 0,36,37
 594.5 201 594.5 201 594.5 259.5 c 0,19,20
EndSplineSet
Validated: 1
Substitution2: "'ss04' Egyptian Hieroform Latin" u1320E
Substitution2: "'ss03' Egyptian Hieratic Latin" q.hier
Substitution2: "'ss02' Egyptian Transliteration Latin" q.tran
Substitution2: "'ss01' Hierography-bopomofo" u1320E
EndChar

StartChar: u1320E
Encoding: 78350 78350 39
Width: 503
Flags: W
LayerCount: 2
Fore
SplineSet
388 248 m 0,0,1
 372.5 248 372.5 248 358.5 239.5 c 0,2,3
 333 223.5 333 223.5 284.5 131.5 c 0,4,5
 235.5 39.5 235.5 39.5 104.5 -140.5 c 1,6,-1
 444 -140.5 l 1,7,-1
 444 40.5 l 2,8,9
 444 229.5 444 229.5 414 242.5 c 0,10,11
 400.5 248 400.5 248 388 248 c 0,0,1
373.5 286.5 m 2,12,13
 418.5 286.5 418.5 286.5 447 271 c 0,14,15
 477.5 254 477.5 254 482.5 80.5 c 1,16,-1
 483.5 -180 l 1,17,-1
 20 -180 l 1,18,19
 199 52 199 52 259.5 168.5 c 0,20,21
 320 285.5 320 285.5 368 286.5 c 2,22,-1
 373.5 286.5 l 2,12,13
EndSplineSet
Validated: 1
EndChar

StartChar: x
Encoding: 120 120 40
Width: 660
Flags: W
LayerCount: 2
Fore
SplineSet
560.5 42.5 m 1,0,-1
 518.5 5.5 l 1,1,-1
 330.5 217.5 l 1,2,-1
 142 5.5 l 1,3,-1
 100 42.5 l 1,4,-1
 293 259.5 l 1,5,-1
 100 476.5 l 1,6,-1
 142 513.5 l 1,7,-1
 330.5 301.5 l 1,8,-1
 518.5 513.5 l 1,9,-1
 560.5 476.5 l 1,10,-1
 367.5 259.5 l 1,11,-1
 560.5 42.5 l 1,0,-1
EndSplineSet
Validated: 1
Substitution2: "'ss04' Egyptian Hieroform Latin" u1340D
Substitution2: "'ss03' Egyptian Hieratic Latin" x.hier
Substitution2: "'ss02' Egyptian Transliteration Latin" x.tran
Substitution2: "'ss01' Hierography-bopomofo" u13121
EndChar

StartChar: u13121
Encoding: 78113 78113 41
Width: 1040
Flags: W
LayerCount: 2
Fore
SplineSet
238 37 m 4,0,1
 178 37 178 37 126 6 c 5,2,3
 164 -16 164 -16 238 -16 c 4,4,5
 336.5 -16 336.5 -16 376 -1.5 c 5,6,7
 304.5 37 304.5 37 238 37 c 4,0,1
876.5 -4 m 6,8,-1
 867.5 -4 l 6,9,10
 816 -5.5 816 -5.5 719.25 -19.25 c 132,-1,11
 622.5 -33 622.5 -33 607.5 -34.5 c 5,12,13
 655 -39.5 655 -39.5 726.5 -52 c 5,14,15
 825.5 -66 825.5 -66 876.5 -66 c 4,16,17
 900 -66 900 -66 918.5 -64 c 4,18,19
 955.5 -60 955.5 -60 972.5 -43.5 c 4,20,21
 980 -35 980 -35 974 -28.5 c 4,22,23
 967 -17 967 -17 941 -10 c 4,24,25
 918 -4 918 -4 876.5 -4 c 6,8,-1
238 -53 m 4,26,27
 164 -53 164 -53 126 -75 c 5,28,29
 178 -106 178 -106 238 -106 c 4,30,31
 304.5 -106 304.5 -106 376 -67.5 c 5,32,33
 336.5 -53 336.5 -53 238 -53 c 4,26,27
238 110 m 5,34,35
 273 105.5 273 105.5 273 72 c 5,36,-1
 310.5 65 l 5,37,38
 320 89 320 89 343 89 c 4,39,40
 351 89 351 89 357.5 87 c 4,41,42
 388 69.5 388 69.5 375.5 38 c 5,43,-1
 376 38 l 5,44,45
 422.5 11 422.5 11 475 -7 c 5,46,47
 556.5 -7 556.5 -7 696 13.5 c 4,48,49
 832.5 33.5 832.5 33.5 895.5 33.5 c 4,50,51
 957 33.5 957 33.5 988.5 12.5 c 4,52,53
 1020.5 -8.5 1020.5 -8.5 1020.5 -34.5 c 4,54,55
 1020.5 -61.5 1020.5 -61.5 988.5 -82.5 c 4,56,57
 957 -103.5 957 -103.5 895.5 -103.5 c 4,58,59
 832.5 -103.5 832.5 -103.5 696 -83.5 c 4,60,61
 556.5 -63 556.5 -63 475 -63 c 5,62,63
 419.5 -83 419.5 -83 376 -108 c 5,64,65
 388.5 -138.5 388.5 -138.5 357.5 -156.5 c 4,66,67
 351 -158.5 351 -158.5 343 -158.5 c 4,68,69
 320.5 -158.5 320.5 -158.5 310.5 -135 c 5,70,-1
 273 -142 l 5,71,72
 273 -175.5 273 -175.5 238 -180 c 5,73,74
 203 -175.5 203 -175.5 203 -142 c 5,75,76
 174 -137 174 -137 153 -129 c 5,77,78
 142 -149 142 -149 123 -149 c 4,79,80
 115 -149 115 -149 104 -145 c 5,81,82
 75.5 -124 75.5 -124 91 -95.5 c 5,83,84
 73.5 -86.5 73.5 -86.5 20 -34.5 c 5,85,86
 72 16 72 16 91 25 c 5,87,88
 75 54.5 75 54.5 104 75.5 c 5,89,90
 115 79.5 115 79.5 123 79.5 c 4,91,92
 141.5 79.5 141.5 79.5 153 59 c 5,93,94
 175.5 68 175.5 68 202 72.5 c 5,95,96
 202 105.5 202 105.5 238 110 c 5,34,35
EndSplineSet
Validated: 2081
EndChar

StartChar: Z
Encoding: 90 90 42
Width: 620
Flags: W
LayerCount: 2
Fore
SplineSet
520 17 m 1,0,-1
 128 17 l 1,1,-1
 103.5 59 l 1,2,-1
 443.5 648 l 1,3,-1
 100 648 l 1,4,-1
 100 704 l 1,5,-1
 492 704 l 1,6,-1
 516.5 662 l 1,7,-1
 176.5 73 l 1,8,-1
 520 73 l 1,9,-1
 520 17 l 1,0,-1
EndSplineSet
Validated: 1
Substitution2: "'ss01' Hierography-bopomofo" u13193
EndChar

StartChar: u13193
Encoding: 78227 78227 43
Width: 958
Flags: W
LayerCount: 2
Fore
SplineSet
111.254882812 768 m 1,0,-1
 111.254882812 767.5 l 1,1,2
 114.254882812 767.5 114.254882812 767.5 120.254882812 762.5 c 0,3,4
 133.754882812 753 133.754882812 753 118.754882812 753 c 0,5,6
 114.754882812 753 114.754882812 753 107.254882812 753.5 c 128,-1,7
 99.7548828125 754 99.7548828125 754 97.7548828125 754 c 2,8,-1
 95.2548828125 754 l 2,9,10
 81.2548828125 755 81.2548828125 755 90.2548828125 761 c 0,11,12
 100.754882812 768 100.754882812 768 111.254882812 768 c 1,0,-1
115.254882812 777 m 1,13,14
 105.754882812 777 105.754882812 777 89.2548828125 773 c 0,15,16
 50.2548828125 764.5 50.2548828125 764.5 67.2548828125 749.5 c 0,17,18
 82.2548828125 736.5 82.2548828125 736.5 104.254882812 736.5 c 0,19,20
 109.754882812 736.5 109.754882812 736.5 120.004882812 737.5 c 128,-1,21
 130.254882812 738.5 130.254882812 738.5 133.754882812 738.5 c 0,22,23
 135.754882812 738.5 135.754882812 738.5 147.504882812 739.5 c 128,-1,24
 159.254882812 740.5 159.254882812 740.5 165.754882812 740.5 c 0,25,26
 194.254882812 740.5 194.254882812 740.5 200.254882812 720.5 c 0,27,28
 206.254882812 699.5 206.254882812 699.5 193.254882812 662.75 c 128,-1,29
 180.254882812 626 180.254882812 626 179.254882812 614.5 c 0,30,31
 177.254882812 593.5 177.254882812 593.5 190.254882812 573.25 c 128,-1,32
 203.254882812 553 203.254882812 553 222.754882812 549.5 c 0,33,34
 237.754882812 546.5 237.754882812 546.5 262.754882812 546.5 c 0,35,36
 293.754882812 546.5 293.754882812 546.5 395.004882812 553.25 c 128,-1,37
 496.254882812 560 496.254882812 560 548.754882812 560 c 0,38,39
 619.754882812 560 619.754882812 560 658.254882812 550.5 c 0,40,41
 716.754882812 535.5 716.754882812 535.5 759.504882812 515.25 c 128,-1,42
 802.254882812 495 802.254882812 495 829.254882812 459 c 0,43,44
 852.254882812 429 852.254882812 429 867.004882812 393.75 c 128,-1,45
 881.754882812 358.5 881.754882812 358.5 888.254882812 330.25 c 128,-1,46
 894.754882812 302 894.754882812 302 896.254882812 263.5 c 128,-1,47
 897.754882812 225 897.754882812 225 896.504882812 203.5 c 128,-1,48
 895.254882812 182 895.254882812 182 891.754882812 144.25 c 128,-1,49
 888.254882812 106.5 888.254882812 106.5 887.754882812 95 c 1,50,51
 890.254882812 111 890.254882812 111 894.754882812 140.75 c 128,-1,52
 899.254882812 170.5 899.254882812 170.5 901.504882812 185.75 c 128,-1,53
 903.754882812 201 903.754882812 201 906.754882812 227.75 c 128,-1,54
 909.754882812 254.5 909.754882812 254.5 910.504882812 270 c 128,-1,55
 911.254882812 285.5 911.254882812 285.5 911.504882812 309.25 c 128,-1,56
 911.754882812 333 911.754882812 333 909.254882812 349.25 c 128,-1,57
 906.754882812 365.5 906.754882812 365.5 902.504882812 387 c 128,-1,58
 898.254882812 408.5 898.254882812 408.5 891.254882812 425.75 c 128,-1,59
 884.254882812 443 884.254882812 443 873.754882812 462.25 c 128,-1,60
 863.254882812 481.5 863.254882812 481.5 849.754882812 500 c 0,61,62
 810.754882812 553.5 810.754882812 553.5 748.004882812 571.75 c 128,-1,63
 685.254882812 590 685.254882812 590 573.254882812 590 c 0,64,65
 532.254882812 590 532.254882812 590 425.254882812 587 c 128,-1,66
 318.254882812 584 318.254882812 584 249.754882812 583.5 c 2,67,-1
 240.254882812 583.5 l 2,68,69
 195.254882812 583.5 195.254882812 583.5 190.254882812 608 c 0,70,71
 186.754882812 624 186.754882812 624 190.754882812 641.25 c 128,-1,72
 194.754882812 658.5 194.754882812 658.5 203.254882812 679.5 c 128,-1,73
 211.754882812 700.5 211.754882812 700.5 214.254882812 712 c 0,74,75
 215.754882812 719.5 215.754882812 719.5 213.504882812 725.25 c 128,-1,76
 211.254882812 731 211.254882812 731 207.754882812 734.5 c 128,-1,77
 204.254882812 738 204.254882812 738 197.004882812 741.25 c 128,-1,78
 189.754882812 744.5 189.754882812 744.5 185.754882812 745.75 c 128,-1,79
 181.754882812 747 181.754882812 747 173.754882812 749 c 0,80,81
 163.754882812 752 163.754882812 752 145.254882812 763 c 128,-1,82
 126.754882812 774 126.754882812 774 116.254882812 776.5 c 1,83,-1
 115.254882812 777 l 1,13,14
118.754882812 809.5 m 0,84,85
 132.754882812 809.5 132.754882812 809.5 153.754882812 796 c 128,-1,86
 174.754882812 782.5 174.754882812 782.5 184.254882812 780 c 0,87,88
 210.254882812 773 210.254882812 773 227.504882812 762 c 128,-1,89
 244.754882812 751 244.754882812 751 247.254882812 730.5 c 0,90,91
 249.254882812 713 249.254882812 713 245.504882812 695.5 c 128,-1,92
 241.754882812 678 241.754882812 678 233.004882812 654.75 c 128,-1,93
 224.254882812 631.5 224.254882812 631.5 221.254882812 621 c 1,94,95
 258.254882812 617.5 258.254882812 617.5 307.254882812 617.5 c 0,96,97
 347.754882812 617.5 347.754882812 617.5 436.754882812 621.25 c 128,-1,98
 525.754882812 625 525.754882812 625 570.254882812 625 c 0,99,100
 699.254882812 625 699.254882812 625 769.254882812 599.5 c 0,101,102
 906.254882812 550.5 906.254882812 550.5 933.254882812 377.5 c 0,103,104
 942.254882812 319 942.254882812 319 936.754882812 224.5 c 0,105,106
 935.254882812 196 935.254882812 196 926.004882812 136.75 c 128,-1,107
 916.754882812 77.5 916.754882812 77.5 915.754882812 46 c 0,108,109
 914.754882812 7.5 914.754882812 7.5 923.754882812 -63 c 128,-1,110
 932.754882812 -133.5 932.754882812 -133.5 934.254882812 -165.5 c 0,111,112
 934.754882812 -177 934.754882812 -177 929.254882812 -183.5 c 128,-1,113
 923.754882812 -190 923.754882812 -190 915.754882812 -190 c 0,114,115
 908.754882812 -190 908.754882812 -190 902.254882812 -184.5 c 128,-1,116
 895.754882812 -179 895.754882812 -179 893.754882812 -169.5 c 0,117,118
 889.754882812 -154 889.754882812 -154 878.754882812 -114.75 c 128,-1,119
 867.754882812 -75.5 867.754882812 -75.5 861.504882812 -46.75 c 128,-1,120
 855.254882812 -18 855.254882812 -18 853.254882812 9.5 c 0,121,122
 850.254882812 25 850.254882812 25 851.504882812 61.25 c 128,-1,123
 852.754882812 97.5 852.754882812 97.5 854.004882812 113.25 c 128,-1,124
 855.254882812 129 855.254882812 129 858.504882812 165.25 c 128,-1,125
 861.754882812 201.5 861.754882812 201.5 863.254882812 217 c 0,126,127
 869.254882812 288 869.254882812 288 835.254882812 384.5 c 0,128,129
 827.254882812 407.5 827.254882812 407.5 807.254882812 431 c 128,-1,130
 787.254882812 454.5 787.254882812 454.5 754.504882812 477.5 c 128,-1,131
 721.754882812 500.5 721.754882812 500.5 670.504882812 515 c 128,-1,132
 619.254882812 529.5 619.254882812 529.5 558.254882812 529.5 c 2,133,-1
 549.754882812 529.5 l 2,134,135
 507.754882812 529 507.754882812 529 418.254882812 521.25 c 128,-1,136
 328.754882812 513.5 328.754882812 513.5 282.254882812 513.5 c 0,137,138
 253.754882812 513.5 253.754882812 513.5 231.254882812 515.5 c 0,139,140
 203.254882812 517.5 203.254882812 517.5 182.004882812 536.5 c 128,-1,141
 160.754882812 555.5 160.754882812 555.5 150.754882812 583 c 1,142,143
 144.254882812 607.5 144.254882812 607.5 149.504882812 624.75 c 128,-1,144
 154.754882812 642 154.754882812 642 162.754882812 666 c 128,-1,145
 170.754882812 690 170.754882812 690 168.754882812 704 c 0,146,147
 168.254882812 710 168.254882812 710 155.254882812 710 c 0,148,149
 147.254882812 710 147.254882812 710 113.254882812 703.5 c 0,150,151
 106.754882812 702 106.754882812 702 100.754882812 702 c 0,152,153
 77.2548828125 702 77.2548828125 702 44.7548828125 725.5 c 0,154,155
 34.7548828125 733 34.7548828125 733 27.5048828125 743 c 128,-1,156
 20.2548828125 753 20.2548828125 753 20.0048828125 765 c 128,-1,157
 19.7548828125 777 19.7548828125 777 32.2548828125 784 c 0,158,159
 72.2548828125 807.5 72.2548828125 807.5 116.254882812 809 c 0,160,161
 117.254882812 809.5 117.254882812 809.5 118.754882812 809.5 c 0,84,85
EndSplineSet
Validated: 2081
EndChar

StartChar: C
Encoding: 67 67 44
Width: 731
Flags: W
LayerCount: 2
Fore
SplineSet
631.5 47 m 1,0,1
 539 3 539 3 457.5 3 c 0,2,3
 309.5 3 309.5 3 204.75 107.75 c 128,-1,4
 100 212.5 100 212.5 100 360.5 c 128,-1,5
 100 508.5 100 508.5 204.75 613.25 c 128,-1,6
 309.5 718 309.5 718 457.5 718 c 0,7,8
 537.5 718 537.5 718 631.5 674.5 c 1,9,-1
 608.5 623.5 l 1,10,11
 525.5 662 525.5 662 457.5 662 c 0,12,13
 332.5 662 332.5 662 244.25 573.5 c 128,-1,14
 156 485 156 485 156 360.5 c 128,-1,15
 156 236 156 236 244.5 147.5 c 128,-1,16
 333 59 333 59 457.5 59 c 0,17,18
 525 59 525 59 608.5 98 c 1,19,-1
 631.5 47 l 1,0,1
EndSplineSet
Validated: 1
Substitution2: "'ss01' Hierography-bopomofo" u1337F
EndChar

StartChar: u1337F
Encoding: 78719 78719 45
Width: 1041
Flags: W
LayerCount: 2
Fore
SplineSet
95.5 147.5 m 6,0,1
 56 147.5 56 147.5 57.5 112 c 5,2,3
 56 75 56 75 96.5 75 c 4,4,5
 100.5 75 100.5 75 102.5 75.5 c 4,6,7
 148 77.5 148 77.5 203.5 112 c 5,8,9
 150 143.5 150 143.5 102.5 147.5 c 5,10,-1
 95.5 147.5 l 6,0,1
95.5 -71 m 4,11,12
 56 -71 56 -71 57.5 -106.5 c 5,13,14
 56 -143.5 56 -143.5 96.5 -143.5 c 4,15,16
 100.5 -143.5 100.5 -143.5 102.5 -143 c 4,17,18
 148 -141 148 -141 203.5 -106.5 c 5,19,20
 149.5 -74.5 149.5 -74.5 102.5 -71.5 c 4,21,22
 100 -71 100 -71 95.5 -71 c 4,11,12
91.5 183.5 m 6,23,24
 149.5 183.5 149.5 183.5 239.5 144 c 5,25,-1
 839.5 144 l 5,26,-1
 849.5 144 l 6,27,28
 959 144 959 144 1000 75 c 4,29,30
 1043.5 2 1043.5 2 1000 -70 c 4,31,32
 958 -140.5 958 -140.5 846 -140.5 c 6,33,-1
 839.5 -140.5 l 5,34,-1
 239.5 -140.5 l 5,35,36
 138.5 -179.5 138.5 -179.5 84 -180 c 6,37,-1
 82.5 -180 l 6,38,39
 29 -180 29 -180 20 -106.5 c 5,40,41
 27 -37 27 -37 85.5 -35 c 5,42,-1
 91.5 -35 l 6,43,44
 149.5 -35 149.5 -35 239.5 -74.5 c 5,45,-1
 874.5 -74.5 l 5,46,47
 953.5 -60 953.5 -60 953 5.5 c 4,48,49
 952.5 71.5 952.5 71.5 874.5 78 c 5,50,-1
 239.5 78 l 5,51,52
 140.5 40 140.5 40 84 38.5 c 6,53,-1
 82.5 38.5 l 6,54,55
 29 38.5 29 38.5 20 112 c 5,56,57
 26.5 181.5 26.5 181.5 85.5 183.5 c 5,58,-1
 91.5 183.5 l 6,23,24
EndSplineSet
Validated: 2081
EndChar

StartChar: S
Encoding: 83 83 46
Width: 688
Flags: W
LayerCount: 2
Fore
SplineSet
588 641.5 m 1,0,-1
 560.5 593 l 1,1,2
 440 662 440 662 347.5 662 c 0,3,4
 272 662 272 662 222.5 633.5 c 0,5,6
 161.5 598 161.5 598 161.5 528 c 0,7,8
 161.5 437.5 161.5 437.5 270.5 407.5 c 1,9,-1
 473.5 360.5 l 1,10,11
 582.5 317.5 582.5 317.5 582.5 196 c 0,12,13
 582.5 104 582.5 104 505 50.5 c 0,14,15
 436.5 3 436.5 3 340.5 3 c 0,16,17
 237.5 3 237.5 3 100 56 c 1,18,-1
 120 108 l 1,19,20
 245 59 245 59 340.5 59 c 0,21,22
 412 59 412 59 464.5 91 c 0,23,24
 526.5 129 526.5 129 526.5 196 c 0,25,26
 526.5 289 526.5 289 417.5 320 c 1,27,28
 316 343.5 316 343.5 214.5 366.5 c 1,29,30
 105.5 408.5 105.5 408.5 105.5 528 c 0,31,32
 105.5 623 105.5 623 182 674 c 0,33,34
 248 718 248 718 347.5 718 c 0,35,36
 454 718 454 718 588 641.5 c 1,0,-1
EndSplineSet
Validated: 1
Substitution2: "'ss04' Egyptian Hieroform Latin" u13219
Substitution2: "'ss03' Egyptian Hieratic Latin" S.hier
Substitution2: "'ss02' Egyptian Transliteration Latin" S.tran
Substitution2: "'ss01' Hierography-bopomofo" u13219
EndChar

StartChar: u13219
Encoding: 78361 78361 47
Width: 1017
Flags: W
LayerCount: 2
Fore
SplineSet
20 61 m 5,0,-1
 997 61 l 5,1,-1
 997 -180 l 5,2,-1
 20 -180 l 5,3,-1
 20 61 l 5,0,-1
957 21 m 5,4,-1
 60 21 l 5,5,-1
 60 -140 l 5,6,-1
 957 -140 l 5,7,-1
 957 21 l 5,4,-1
EndSplineSet
Validated: 1
EndChar

StartChar: r
Encoding: 114 114 48
Width: 547
Flags: W
LayerCount: 2
Fore
SplineSet
447 56.5 m 1,0,-1
 416 9.5 l 1,1,-1
 156 181.5 l 1,2,-1
 156 17 l 1,3,-1
 100 17 l 1,4,-1
 100 474 l 1,5,-1
 130 502 l 1,6,7
 446 482 446 482 446 349.5 c 0,8,9
 446 235 446 235 221 205 c 1,10,-1
 447 56.5 l 1,0,-1
390 349.5 m 0,11,12
 390 425.5 390 425.5 156 444 c 1,13,-1
 156 254.5 l 1,14,15
 390 274 390 274 390 349.5 c 0,11,12
EndSplineSet
Validated: 1
Substitution2: "'ss04' Egyptian Hieroform Latin" u1308B
Substitution2: "'ss03' Egyptian Hieratic Latin" r.hier
Substitution2: "'ss02' Egyptian Transliteration Latin" r.tran
Substitution2: "'ss01' Hierography-bopomofo" u1308B
EndChar

StartChar: u1308B
Encoding: 77963 77963 49
Width: 1008
Flags: W
LayerCount: 2
Fore
SplineSet
504 34 m 0,0,1
 334.5 34 334.5 34 142.5 -48.5 c 1,2,3
 334.5 -128.5 334.5 -128.5 504 -128.5 c 0,4,5
 674.5 -128.5 674.5 -128.5 866 -48.5 c 1,6,7
 674.5 34 674.5 34 504 34 c 0,0,1
504 86.5 m 0,8,9
 716 86.5 716 86.5 988 -47 c 1,10,11
 714.5 -180 714.5 -180 504 -180 c 128,-1,12
 293.5 -180 293.5 -180 20 -47 c 1,13,14
 293.5 86.5 293.5 86.5 504 86.5 c 0,8,9
EndSplineSet
Validated: 1
EndChar

StartChar: z
Encoding: 122 122 50
Width: 510
Flags: W
LayerCount: 2
Fore
SplineSet
410 459.5 m 1,0,-1
 174 73 l 1,1,-1
 399 73 l 1,2,-1
 399 17 l 1,3,-1
 124 17 l 1,4,-1
 100 59.5 l 1,5,-1
 336 446 l 1,6,-1
 111 446 l 1,7,-1
 111 502 l 1,8,-1
 386 502 l 1,9,-1
 410 459.5 l 1,0,-1
EndSplineSet
Validated: 1
Substitution2: "'ss04' Egyptian Hieroform Latin" u13283
Substitution2: "'ss03' Egyptian Hieratic Latin" z.hier
Substitution2: "'ss02' Egyptian Transliteration Latin" z.tran
Substitution2: "'ss01' Hierography-bopomofo" u13283
EndChar

StartChar: u13283
Encoding: 78467 78467 51
Width: 1060
Flags: W
LayerCount: 2
Fore
SplineSet
454 -43.5 m 0,0,1
 467 -43.5 467 -43.5 476.5 -46 c 0,2,3
 499 -52 499 -52 521.5 -71.5 c 1,4,-1
 535.5 -71.5 l 1,5,6
 557 -52 557 -52 580.5 -46 c 0,7,8
 590 -43.5 590 -43.5 603.5 -43.5 c 0,9,10
 616.5 -43.5 616.5 -43.5 626.5 -46 c 0,11,12
 649.5 -52 649.5 -52 675.5 -71.5 c 1,13,-1
 1040 -71.5 l 1,14,-1
 1040 -151.5 l 1,15,-1
 675.5 -151.5 l 1,16,17
 649.5 -171.5 649.5 -171.5 626.5 -177 c 0,18,19
 614.5 -180 614.5 -180 603.5 -180 c 0,20,21
 592 -180 592 -180 580.5 -177 c 0,22,23
 557 -172 557 -172 535.5 -151.5 c 1,24,-1
 521.5 -151.5 l 1,25,26
 499 -172 499 -172 476.5 -177 c 0,27,28
 465 -180 465 -180 454 -180 c 0,29,30
 442 -180 442 -180 431 -177 c 0,31,32
 408 -172 408 -172 381 -151.5 c 1,33,-1
 20 -151.5 l 1,34,-1
 20 -71.5 l 1,35,-1
 381 -71.5 l 1,36,37
 408 -52 408 -52 431 -46 c 0,38,39
 440.5 -43.5 440.5 -43.5 454 -43.5 c 0,0,1
EndSplineSet
Validated: 1
EndChar

StartChar: c
Encoding: 99 99 52
Width: 614
Flags: W
LayerCount: 2
Fore
SplineSet
514.5 41 m 1,0,1
 436.5 7.5 436.5 7.5 375 7.5 c 0,2,3
 265 7.5 265 7.5 184.5 78 c 0,4,5
 100 151.5 100 151.5 100 259.5 c 128,-1,6
 100 367.5 100 367.5 184.5 441 c 0,7,8
 265 511.5 265 511.5 375 511.5 c 0,9,10
 435.5 511.5 435.5 511.5 514.5 478.5 c 1,11,-1
 493 427 l 1,12,13
 425 455.5 425 455.5 375 455.5 c 0,14,15
 288.5 455.5 288.5 455.5 224 401.5 c 0,16,17
 156 344.5 156 344.5 156 259.5 c 128,-1,18
 156 174.5 156 174.5 224 117.5 c 0,19,20
 288.5 63.5 288.5 63.5 375 63.5 c 0,21,22
 424 63.5 424 63.5 493 92.5 c 1,23,-1
 514.5 41 l 1,0,1
EndSplineSet
Validated: 1
Substitution2: "'ss01' Hierography-bopomofo" u1340D
EndChar

StartChar: u1340D
Encoding: 78861 78861 53
Width: 520
Flags: W
LayerCount: 2
Fore
SplineSet
260 267 m 0,0,1
 212 267 212 267 169.75 246.25 c 128,-1,2
 127.5 225.5 127.5 225.5 99 189.5 c 1,3,-1
 421.5 189.5 l 1,4,5
 392.5 226 392.5 226 350.5 246.5 c 128,-1,6
 308.5 267 308.5 267 260 267 c 0,0,1
443.5 156.5 m 1,7,-1
 77 156.5 l 1,8,9
 57.5 119.5 57.5 119.5 54 78 c 1,10,-1
 466.5 78 l 1,11,12
 463 119.5 463 119.5 443.5 156.5 c 1,7,-1
466.5 45 m 1,13,-1
 54 45 l 1,14,15
 57 3.5 57 3.5 75.5 -33.5 c 1,16,-1
 445 -33.5 l 1,17,18
 463.5 3.5 463.5 3.5 466.5 45 c 1,13,-1
423.5 -66.5 m 1,19,-1
 96.5 -66.5 l 1,20,21
 125.5 -104 125.5 -104 168.25 -125.25 c 128,-1,22
 211 -146.5 211 -146.5 260 -146.5 c 128,-1,23
 309 -146.5 309 -146.5 352 -125.25 c 128,-1,24
 395 -104 395 -104 423.5 -66.5 c 1,19,-1
260 300.5 m 128,-1,26
 325 300.5 325 300.5 380.5 268.25 c 128,-1,27
 436 236 436 236 468.25 180.5 c 128,-1,28
 500.5 125 500.5 125 500.5 60 c 128,-1,29
 500.5 -5 500.5 -5 468.25 -60.25 c 128,-1,30
 436 -115.5 436 -115.5 380.5 -147.75 c 128,-1,31
 325 -180 325 -180 260 -180 c 128,-1,32
 195 -180 195 -180 139.75 -147.75 c 128,-1,33
 84.5 -115.5 84.5 -115.5 52.25 -60.25 c 128,-1,34
 20 -5 20 -5 20 60 c 128,-1,35
 20 125 20 125 52.25 180.5 c 128,-1,36
 84.5 236 84.5 236 139.75 268.25 c 128,-1,25
 195 300.5 195 300.5 260 300.5 c 128,-1,26
EndSplineSet
Validated: 2049
EndChar

StartChar: s
Encoding: 115 115 54
Width: 583
Flags: W
LayerCount: 2
Fore
SplineSet
483.5 455.5 m 1,0,-1
 458 406 l 1,1,2
 362.5 455.5 362.5 455.5 294 455.5 c 0,3,4
 243.5 455.5 243.5 455.5 208.5 439.5 c 0,5,6
 161.5 418 161.5 418 161.5 373.5 c 0,7,8
 161.5 317.5 161.5 317.5 243.5 298.5 c 0,9,10
 319.5 282.5 319.5 282.5 395.5 266 c 1,11,12
 477.5 234.5 477.5 234.5 477.5 147.5 c 0,13,14
 477.5 79 477.5 79 415 40.5 c 0,15,16
 362 7.5 362 7.5 289 7.5 c 0,17,18
 210 7.5 210 7.5 100 46 c 1,19,-1
 118 99 l 1,20,21
 218 63.5 218 63.5 289 63.5 c 0,22,23
 336.5 63.5 336.5 63.5 374 81.5 c 0,24,25
 421.5 105 421.5 105 421.5 147.5 c 0,26,27
 421.5 205.5 421.5 205.5 339.5 224.5 c 0,28,29
 263.5 241 263.5 241 187.5 257 c 1,30,31
 105.5 288 105.5 288 105.5 373.5 c 0,32,33
 105.5 444 105.5 444 167.5 481 c 0,34,35
 218.5 511.5 218.5 511.5 294 511.5 c 0,36,37
 375.5 511.5 375.5 511.5 483.5 455.5 c 1,0,-1
EndSplineSet
Validated: 1
Substitution2: "'ss04' Egyptian Hieroform Latin" u132F4
Substitution2: "'ss03' Egyptian Hieratic Latin" s.hier
Substitution2: "'ss02' Egyptian Transliteration Latin" s.tran
Substitution2: "'ss01' Hierography-bopomofo" u132F4
EndChar

StartChar: u132F4
Encoding: 78580 78580 55
Width: 235
Flags: W
LayerCount: 2
Fore
SplineSet
117 820 m 0,0,1
 155 820 155 820 185.25 791.25 c 128,-1,2
 215.5 762.5 215.5 762.5 215.5 726 c 2,3,-1
 215.5 125.5 l 1,4,-1
 152.5 125.5 l 1,5,-1
 152.5 726 l 2,6,7
 152.5 745.5 152.5 745.5 141.25 755.25 c 128,-1,8
 130 765 130 765 117.5 765 c 128,-1,9
 105 765 105 765 94 757 c 128,-1,10
 83 749 83 749 83 733 c 2,11,-1
 83 -180 l 1,12,-1
 20 -180 l 1,13,-1
 20 733 l 2,14,15
 20 769.5 20 769.5 49 794.75 c 128,-1,16
 78 820 78 820 117 820 c 0,0,1
EndSplineSet
Validated: 1
EndChar

StartChar: N
Encoding: 78 78 56
Width: 670
Flags: W
LayerCount: 2
Fore
SplineSet
570 45 m 1,0,-1
 518.5 29.5 l 1,1,-1
 156 582.5 l 1,2,-1
 156 17 l 1,3,-1
 100 17 l 1,4,-1
 100 676 l 1,5,-1
 151.5 691.5 l 1,6,-1
 514 138.5 l 1,7,-1
 514 704 l 1,8,-1
 570 704 l 1,9,-1
 570 45 l 1,0,-1
EndSplineSet
Validated: 1
Substitution2: "'ss04' Egyptian Hieroform Latin" u132D4
Substitution2: "'ss03' Egyptian Hieratic Latin" N.hier
Substitution2: "'ss02' Egyptian Transliteration Latin" N.tran
Substitution2: "'ss01' Hierography-bopomofo" u132D4
EndChar

StartChar: u132D4
Encoding: 78548 78548 57
Width: 800
Flags: W
LayerCount: 2
Fore
SplineSet
728.5546875 755 m 1,0,-1
 477.5546875 282 l 1,1,-1
 81.0546875 282 l 1,2,3
 106.0546875 142 106.0546875 142 113.5546875 77.5 c 1,4,5
 184.5546875 77.5 184.5546875 77.5 236.5546875 46.5 c 1,6,7
 261.0546875 63 261.0546875 63 281.0546875 63 c 0,8,9
 309.0546875 63 309.0546875 63 329.5546875 33 c 0,10,11
 338.5546875 20 338.5546875 20 340.5546875 7.5 c 128,-1,12
 342.5546875 -5 342.5546875 -5 337.3046875 -18 c 128,-1,13
 332.0546875 -31 332.0546875 -31 327.0546875 -38.75 c 128,-1,14
 322.0546875 -46.5 322.0546875 -46.5 311.5546875 -60.5 c 0,15,16
 307.0546875 -66.5 307.0546875 -66.5 301.3046875 -74 c 128,-1,17
 295.5546875 -81.5 295.5546875 -81.5 293.5546875 -84.5 c 128,-1,18
 291.5546875 -87.5 291.5546875 -87.5 289.0546875 -91.5 c 128,-1,19
 286.5546875 -95.5 286.5546875 -95.5 285.8046875 -97.75 c 128,-1,20
 285.0546875 -100 285.0546875 -100 285.0546875 -103 c 1,21,22
 289.5546875 -108 289.5546875 -108 298.5546875 -114.5 c 128,-1,23
 307.5546875 -121 307.5546875 -121 315.5546875 -125.75 c 128,-1,24
 323.5546875 -130.5 323.5546875 -130.5 332.3046875 -135.25 c 128,-1,25
 341.0546875 -140 341.0546875 -140 342.0546875 -140.5 c 1,26,-1
 742.0546875 749.5 l 1,27,-1
 728.5546875 755 l 1,0,-1
727.5546875 798.5 m 0,28,29
 761.0546875 798.5 761.0546875 798.5 780.5546875 769.5 c 1,30,-1
 357.5546875 -200 l 1,31,-1
 233.5546875 -120 l 1,32,33
 238.5546875 -101.5 238.5546875 -101.5 249.5546875 -83 c 128,-1,34
 260.5546875 -64.5 260.5546875 -64.5 277.3046875 -41.5 c 128,-1,35
 294.0546875 -18.5 294.0546875 -18.5 300.5546875 -8 c 1,36,37
 300.0546875 13 300.0546875 13 280.5546875 13 c 0,38,39
 260.5546875 13 260.5546875 13 244.5546875 -9 c 1,40,41
 166.5546875 37.5 166.5546875 37.5 89.0546875 37.5 c 0,42,43
 82.0546875 37.5 82.0546875 37.5 69.0546875 36.5 c 1,44,45
 61.5546875 120.5 61.5546875 120.5 25.5546875 324 c 1,46,-1
 310.0546875 324 l 2,47,48
 311.0546875 324 311.0546875 324 313.0546875 323.75 c 128,-1,49
 315.0546875 323.5 315.0546875 323.5 315.5546875 323.5 c 0,50,51
 320.5546875 323.5 320.5546875 323.5 322.3046875 325.25 c 128,-1,52
 324.0546875 327 324.0546875 327 323.0546875 330.5 c 1,53,-1
 164.0546875 445 l 2,54,55
 80.5546875 504.5 80.5546875 504.5 48.0546875 564.5 c 0,56,57
 16.0546875 623.5 16.0546875 623.5 20.5546875 673.5 c 0,58,59
 26.0546875 723 26.0546875 723 57.5546875 744.5 c 0,60,61
 83.5546875 762 83.5546875 762 108.5546875 762 c 0,62,63
 112.5546875 762 112.5546875 762 120.5546875 761 c 0,64,65
 152.5546875 755.5 152.5546875 755.5 169.0546875 737 c 0,66,67
 185.5546875 718 185.5546875 718 185.5546875 692.5 c 128,-1,68
 185.5546875 667 185.5546875 667 173.5546875 648.5 c 0,69,70
 161.0546875 629 161.0546875 629 130.0546875 627 c 1,71,-1
 125.5546875 627 l 2,72,73
 98.0546875 627 98.0546875 627 88.0546875 654 c 0,74,75
 76.5546875 683 76.5546875 683 98.0546875 690.5 c 1,76,77
 109.0546875 690.5 109.0546875 690.5 119.0546875 670 c 0,78,79
 124.0546875 659.5 124.0546875 659.5 130.5546875 659.5 c 128,-1,80
 137.0546875 659.5 137.0546875 659.5 144.5546875 670 c 0,81,82
 160.5546875 690.5 160.5546875 690.5 146.0546875 711 c 0,83,84
 136.0546875 725.5 136.0546875 725.5 114.5546875 725.5 c 0,85,86
 105.0546875 725.5 105.0546875 725.5 93.0546875 722.5 c 0,87,88
 53.0546875 714 53.0546875 714 55.5546875 651.5 c 0,89,90
 57.5546875 589.5 57.5546875 589.5 118.0546875 527.5 c 1,91,92
 378.5546875 323 378.5546875 323 435.5546875 323 c 2,93,-1
 438.5546875 323 l 2,94,95
 453.0546875 323 453.0546875 323 466.5546875 345 c 2,96,-1
 720.5546875 798 l 2,97,98
 723.0546875 798.5 723.0546875 798.5 727.5546875 798.5 c 0,28,29
EndSplineSet
Validated: 33
EndChar

StartChar: R
Encoding: 82 82 58
Width: 630
Flags: W
LayerCount: 2
Fore
SplineSet
530 492.5 m 0,0,1
 530 325.5 530 325.5 213.5 289 c 1,2,-1
 526 55.5 l 1,3,-1
 492.5 11 l 1,4,-1
 156 261.5 l 1,5,-1
 156 17 l 1,6,-1
 100 17 l 1,7,-1
 100 676 l 1,8,-1
 130 704 l 1,9,10
 530 676 530 676 530 492.5 c 0,0,1
474 492.5 m 0,11,12
 474 619 474 619 156 645.5 c 1,13,-1
 156 339.5 l 1,14,15
 474 364.5 474 364.5 474 492.5 c 0,11,12
EndSplineSet
Validated: 1
Substitution2: "'ss04' Egyptian Hieroform Latin" u13090
Substitution2: "'ss03' Egyptian Hieratic Latin" R.hier
Substitution2: "'ss02' Egyptian Transliteration Latin" R.tran
Substitution2: "'ss01' Hierography-bopomofo" u13090
EndChar

StartChar: u13090
Encoding: 77968 77968 59
Width: 1077
Flags: W
LayerCount: 2
Fore
SplineSet
753.5 587.5 m 1,0,1
 742 576 742 576 742 550.5 c 128,-1,2
 742 525 742 525 750.5 507 c 1,3,4
 760 501 760 501 833 501 c 2,5,-1
 839 501 l 1,6,-1
 844.25 501 l 2,7,8
 846.5 501 846.5 501 848.25 501.25 c 128,-1,9
 850 501.5 850 501.5 851 501.5 c 2,10,-1
 852 501.5 l 2,11,12
 855.5 501.5 855.5 501.5 858 500 c 0,13,14
 868 495 868 495 867 480 c 0,15,16
 866 467 866 467 856.5 467 c 0,17,18
 855 467 855 467 854.5 467.5 c 0,19,20
 849.5 465.5 849.5 465.5 828.5 465.5 c 2,21,-1
 812.5 465.5 l 2,22,23
 762 465.5 762 465.5 752 454 c 1,24,25
 741.5 446.5 741.5 446.5 743.5 418.75 c 128,-1,26
 745.5 391 745.5 391 755 384 c 0,27,28
 758 383 758 383 759 383 c 0,29,30
 764 383 764 383 780.5 397 c 128,-1,31
 797 411 797 411 809 416.5 c 0,32,33
 813 418.5 813 418.5 823.5 418.5 c 0,34,35
 830.5 418.5 830.5 418.5 857.25 416.75 c 128,-1,36
 884 415 884 415 900.5 415 c 0,37,38
 923 415 923 415 940.5 417.75 c 128,-1,39
 958 420.5 958 420.5 974.5 427.25 c 128,-1,40
 991 434 991 434 999.75 448 c 128,-1,41
 1008.5 462 1008.5 462 1008 482 c 128,-1,42
 1007.5 502 1007.5 502 996.5 515.5 c 128,-1,43
 985.5 529 985.5 529 966.25 535.75 c 128,-1,44
 947 542.5 947 542.5 926.75 545 c 128,-1,45
 906.5 547.5 906.5 547.5 880.5 547.5 c 0,46,47
 862 547.5 862 547.5 810.5 545 c 1,48,49
 798.5 549 798.5 549 779.25 566.5 c 128,-1,50
 760 584 760 584 753.5 587.5 c 1,0,1
751.5 659 m 0,51,52
 754 659 754 659 765.5 647 c 128,-1,53
 777 635 777 635 793.75 619 c 128,-1,54
 810.5 603 810.5 603 824 595.5 c 1,55,56
 841.5 594 841.5 594 873.25 593.25 c 128,-1,57
 905 592.5 905 592.5 926.75 591.75 c 128,-1,58
 948.5 591 948.5 591 975.25 585.25 c 128,-1,59
 1002 579.5 1002 579.5 1018.25 569 c 128,-1,60
 1034.5 558.5 1034.5 558.5 1046 536.75 c 128,-1,61
 1057.5 515 1057.5 515 1057.5 483.5 c 0,62,63
 1057.5 452.5 1057.5 452.5 1051.5 431.5 c 128,-1,64
 1045.5 410.5 1045.5 410.5 1033.25 399 c 128,-1,65
 1021 387.5 1021 387.5 1006.25 381.5 c 128,-1,66
 991.5 375.5 991.5 375.5 969.25 373.75 c 128,-1,67
 947 372 947 372 926.5 371.75 c 128,-1,68
 906 371.5 906 371.5 877.5 370 c 128,-1,69
 849 368.5 849 368.5 825.5 364.5 c 0,70,71
 821.5 362 821.5 362 807.5 353.75 c 128,-1,72
 793.5 345.5 793.5 345.5 788.75 342.5 c 128,-1,73
 784 339.5 784 339.5 774.25 333 c 128,-1,74
 764.5 326.5 764.5 326.5 758.25 321.25 c 128,-1,75
 752 316 752 316 746 310 c 1,76,77
 744.5 311.5 744.5 311.5 738 317 c 128,-1,78
 731.5 322.5 731.5 322.5 729.75 324.25 c 128,-1,79
 728 326 728 326 722.5 331.75 c 128,-1,80
 717 337.5 717 337.5 715.25 340.75 c 128,-1,81
 713.5 344 713.5 344 709.5 351.25 c 128,-1,82
 705.5 358.5 705.5 358.5 704.25 364.5 c 128,-1,83
 703 370.5 703 370.5 701 380.25 c 128,-1,84
 699 390 699 390 698.75 400 c 128,-1,85
 698.5 410 698.5 410 698.5 423.5 c 128,-1,86
 698.5 437 698.5 437 700 452 c 1,87,-1
 658.5 466.5 l 1,88,-1
 612.5 411.5 l 1,89,-1
 542.5 427.5 l 1,90,-1
 498 377 l 1,91,-1
 436 380.5 l 1,92,-1
 417.5 313.5 l 1,93,-1
 322 307 l 1,94,-1
 310 226 l 1,95,-1
 207.5 204.5 l 1,96,-1
 206 113 l 1,97,-1
 133.5 90 l 1,98,-1
 138 16 l 1,99,-1
 82 -42.5 l 1,100,-1
 117.5 -107.5 l 1,101,-1
 114.5 -178.5 l 1,102,-1
 61 -180 l 1,103,-1
 61 -180 l 1,104,-1
 65.5 -117.5 l 1,105,-1
 20 -37.5 l 1,106,-1
 87.5 45.5 l 1,107,-1
 81.5 126 l 1,108,-1
 158 161 l 1,109,-1
 161 254 l 1,110,-1
 262 274.5 l 1,111,-1
 279.5 353.5 l 1,112,-1
 375.5 360.5 l 1,113,-1
 401 436.5 l 1,114,-1
 476 436.5 l 1,115,-1
 524 489 l 1,116,-1
 595 475 l 1,117,-1
 639.5 530 l 1,118,-1
 698.5 514 l 1,119,120
 692.5 581.5 692.5 581.5 710 620.25 c 128,-1,121
 727.5 659 727.5 659 751.5 659 c 0,51,52
EndSplineSet
Validated: 37
EndChar

StartChar: K
Encoding: 75 75 60
Width: 593
Flags: W
LayerCount: 2
Fore
SplineSet
493 76.5 m 1,0,-1
 455 35.5 l 1,1,-1
 156 315.5 l 1,2,-1
 156 17 l 1,3,-1
 100 17 l 1,4,-1
 100 704 l 1,5,-1
 156 704 l 1,6,-1
 156 405.5 l 1,7,-1
 455 685.5 l 1,8,-1
 493 644.5 l 1,9,-1
 190 360.5 l 1,10,-1
 493 76.5 l 1,0,-1
EndSplineSet
Validated: 1
Substitution2: "'ss04' Egyptian Hieroform Latin" uniE200
Substitution2: "'ss03' Egyptian Hieratic Latin" K.hier
Substitution2: "'ss02' Egyptian Transliteration Latin" K.tran
Substitution2: "'ss01' Hierography-bopomofo" uniE200
EndChar

StartChar: u132D1
Encoding: 78545 78545 61
Width: 688
Flags: W
LayerCount: 2
Fore
SplineSet
613.5 769 m 1,0,1
 596.5 761 596.5 761 586.75 752.25 c 128,-1,2
 577 743.5 577 743.5 570.5 732.75 c 128,-1,3
 564 722 564 722 557 708.5 c 128,-1,4
 550 695 550 695 534 674.5 c 128,-1,5
 518 654 518 654 494 629.25 c 128,-1,6
 470 604.5 470 604.5 424.75 567.5 c 128,-1,7
 379.5 530.5 379.5 530.5 318.5 487.5 c 1,8,9
 93.5 249.5 93.5 249.5 75.5 94.5 c 1,10,11
 77.5 87 77.5 87 95 75.25 c 128,-1,12
 112.5 63.5 112.5 63.5 141 45.25 c 128,-1,13
 169.5 27 169.5 27 188.5 11.5 c 0,14,15
 189 10.5 189 10.5 192.5 10.5 c 0,16,17
 195 10.5 195 10.5 206 12.25 c 128,-1,18
 217 14 217 14 224 14 c 0,19,20
 262 14 262 14 259.5 -30.5 c 0,21,22
 258.5 -45 258.5 -45 248.25 -73 c 128,-1,23
 238 -101 238 -101 225.5 -117 c 1,24,25
 235.5 -143 235.5 -143 260.5 -143 c 0,26,27
 262 -143 262 -143 264.5 -142.75 c 128,-1,28
 267 -142.5 267 -142.5 268 -142.5 c 0,29,30
 318.5 -110.5 318.5 -110.5 355.5 -27.5 c 1,31,32
 377 6.5 377 6.5 403.75 62 c 128,-1,33
 430.5 117.5 430.5 117.5 459 188.5 c 128,-1,34
 487.5 259.5 487.5 259.5 508.75 341 c 128,-1,35
 530 422.5 530 422.5 534 490 c 1,36,37
 544.5 535 544.5 535 557.5 574.5 c 128,-1,38
 570.5 614 570.5 614 581.25 637 c 128,-1,39
 592 660 592 660 601.5 680.75 c 128,-1,40
 611 701.5 611 701.5 615.75 714.5 c 128,-1,41
 620.5 727.5 620.5 727.5 620.5 741 c 128,-1,42
 620.5 754.5 620.5 754.5 613.5 769 c 1,0,1
604.5 810 m 0,43,44
 636 810 636 810 655.25 789.5 c 128,-1,45
 674.5 769 674.5 769 665 729 c 0,46,47
 664.5 726.5 664.5 726.5 650.5 699.5 c 128,-1,48
 636.5 672.5 636.5 672.5 617.5 623.5 c 128,-1,49
 598.5 574.5 598.5 574.5 586.5 520.5 c 0,50,51
 586 519 586 519 578.25 451 c 128,-1,52
 570.5 383 570.5 383 560 346 c 0,53,54
 549 309.5 549 309.5 526.5 247.75 c 128,-1,55
 504 186 504 186 468 98.75 c 128,-1,56
 432 11.5 432 11.5 387.75 -63 c 128,-1,57
 343.5 -137.5 343.5 -137.5 304.5 -165.5 c 0,58,59
 298.5 -169.5 298.5 -169.5 291.75 -176.5 c 128,-1,60
 285 -183.5 285 -183.5 280.25 -186.75 c 128,-1,61
 275.5 -190 275.5 -190 270 -190 c 0,62,63
 262.5 -190 262.5 -190 256 -188 c 0,64,65
 253 -186 253 -186 238 -180.75 c 128,-1,66
 223 -175.5 223 -175.5 210.25 -169.75 c 128,-1,67
 197.5 -164 197.5 -164 186.75 -151.25 c 128,-1,68
 176 -138.5 176 -138.5 177 -122 c 0,69,70
 177 -120.5 177 -120.5 184.25 -111.75 c 128,-1,71
 191.5 -103 191.5 -103 199.5 -91.75 c 128,-1,72
 207.5 -80.5 207.5 -80.5 213.75 -68.25 c 128,-1,73
 220 -56 220 -56 218 -45.75 c 128,-1,74
 216 -35.5 216 -35.5 203.5 -30.5 c 0,75,76
 200.5 -29.5 200.5 -29.5 199 -29.5 c 0,77,78
 190.5 -29.5 190.5 -29.5 175.5 -43.25 c 128,-1,79
 160.5 -57 160.5 -57 155.5 -57 c 128,-1,80
 150.5 -57 150.5 -57 147 -50 c 0,81,82
 139 -35 139 -35 123.5 -20.25 c 128,-1,83
 108 -5.5 108 -5.5 91 5 c 128,-1,84
 74 15.5 74 15.5 58.5 23.5 c 128,-1,85
 43 31.5 43 31.5 31.5 36.5 c 2,86,-1
 20 41.5 l 1,87,88
 20.5 76.5 20.5 76.5 29.5 111.5 c 128,-1,89
 38.5 146.5 38.5 146.5 56.5 195 c 0,90,91
 77 251 77 251 130.25 329 c 128,-1,92
 183.5 407 183.5 407 259.5 484.75 c 128,-1,93
 335.5 562.5 335.5 562.5 405.5 602.5 c 1,94,95
 438 628 438 628 465.25 657.25 c 128,-1,96
 492.5 686.5 492.5 686.5 509.25 711.75 c 128,-1,97
 526 737 526 737 535 753.25 c 128,-1,98
 544 769.5 544 769.5 549 782 c 0,99,100
 554 795 554 795 569.75 802.5 c 128,-1,101
 585.5 810 585.5 810 604.5 810 c 0,43,44
EndSplineSet
Validated: 33
EndChar

StartChar: a
Encoding: 97 97 62
Width: 673
Flags: W
LayerCount: 2
Fore
SplineSet
573.5 31.5 m 1,0,-1
 523 8 l 1,1,-1
 447 171.5 l 1,2,-1
 227 171.5 l 1,3,-1
 150.5 8 l 1,4,-1
 100 31.5 l 1,5,-1
 311.5 486 l 1,6,-1
 362.5 486 l 1,7,-1
 573.5 31.5 l 1,0,-1
421 227.5 m 1,8,-1
 337 407.5 l 1,9,-1
 253 227.5 l 1,10,-1
 421 227.5 l 1,8,-1
EndSplineSet
Validated: 1
Substitution2: "'ss04' Egyptian Hieroform Latin" u1309D
Substitution2: "'ss03' Egyptian Hieratic Latin" a.hier
Substitution2: "'ss02' Egyptian Transliteration Latin" a.tran
Substitution2: "'ss01' Hierography-bopomofo" u1313F
EndChar

StartChar: u1313F
Encoding: 78143 78143 63
Width: 1155
Flags: W
LayerCount: 2
Fore
SplineSet
369.5 345.5 m 1,0,1
 392 303 392 303 432.75 242.25 c 128,-1,2
 473.5 181.5 473.5 181.5 504.75 128.25 c 128,-1,3
 536 75 536 75 552 24 c 1,4,5
 553 26 553 26 556.75 30.75 c 128,-1,6
 560.5 35.5 560.5 35.5 561.75 37.75 c 128,-1,7
 563 40 563 40 565.25 44.25 c 128,-1,8
 567.5 48.5 567.5 48.5 567.5 51.5 c 128,-1,9
 567.5 54.5 567.5 54.5 566.75 58.25 c 128,-1,10
 566 62 566 62 563 65.5 c 0,11,12
 466 237 466 237 369.5 345.5 c 1,13,-1
 369.5 345.5 l 1,0,1
296 773.5 m 1,14,15
 261.5 769.5 261.5 769.5 232 764.5 c 1,16,-1
 233 764.5 l 2,17,18
 251 764.5 251 764.5 261 749.5 c 1,19,20
 261.5 743 261.5 743 254.25 739.25 c 128,-1,21
 247 735.5 247 735.5 236 735.5 c 0,22,23
 224.5 735.5 224.5 735.5 216.75 740 c 128,-1,24
 209 744.5 209 744.5 209.5 753 c 1,25,26
 215.5 761.5 215.5 761.5 227 764 c 1,27,-1
 227 764 l 1,28,29
 225.5 764 225.5 764 115.5 749 c 1,30,31
 132 745.5 132 745.5 179.25 727.25 c 128,-1,32
 226.5 709 226.5 709 255.5 707.5 c 1,33,34
 255 697 255 697 253.75 673 c 128,-1,35
 252.5 649 252.5 649 252 637 c 128,-1,36
 251.5 625 251.5 625 251.5 602.5 c 128,-1,37
 251.5 580 251.5 580 252.75 567 c 128,-1,38
 254 554 254 554 257 534.25 c 128,-1,39
 260 514.5 260 514.5 265 501.5 c 128,-1,40
 270 488.5 270 488.5 277.75 472 c 128,-1,41
 285.5 455.5 285.5 455.5 295.75 443.5 c 128,-1,42
 306 431.5 306 431.5 320.5 419.5 c 128,-1,43
 335 407.5 335 407.5 353 398 c 1,44,-1
 353.5 398 l 1,45,46
 336 430.5 336 430.5 336 465 c 0,47,48
 336 495 336 495 353.5 521 c 128,-1,49
 371 547 371 547 394.5 561.5 c 128,-1,50
 418 576 418 576 438.5 584.25 c 128,-1,51
 459 592.5 459 592.5 468.5 592.5 c 0,52,53
 471.5 592.5 471.5 592.5 472 591.5 c 0,54,55
 473 589.5 473 589.5 463.25 582.5 c 128,-1,56
 453.5 575.5 453.5 575.5 438.25 565 c 128,-1,57
 423 554.5 423 554.5 407.75 541.5 c 128,-1,58
 392.5 528.5 392.5 528.5 381.75 511.75 c 128,-1,59
 371 495 371 495 371 479 c 0,60,61
 371 462 371 462 374 447 c 0,62,63
 385 386 385 386 448.5 341 c 0,64,65
 471.5 324.5 471.5 324.5 544.5 285 c 0,66,67
 562.5 275 562.5 275 626.25 240.75 c 128,-1,68
 690 206.5 690 206.5 714.5 193 c 128,-1,69
 739 179.5 739 179.5 793 148.75 c 128,-1,70
 847 118 847 118 879.5 97.75 c 128,-1,71
 912 77.5 912 77.5 955.25 48.75 c 128,-1,72
 998.5 20 998.5 20 1035.5 -7.5 c 1,73,-1
 931.5 120.5 l 1,74,-1
 625.5 494 l 1,75,76
 545.5 572 545.5 572 417.5 622 c 0,77,78
 404.5 626 404.5 626 399.25 642 c 128,-1,79
 394 658 394 658 392.5 680.25 c 128,-1,80
 391 702.5 391 702.5 388.5 709.5 c 0,81,82
 383 739 383 739 371.75 755.5 c 128,-1,83
 360.5 772 360.5 772 334.5 773.5 c 1,84,85
 331.5 747 331.5 747 314.25 721 c 128,-1,86
 297 695 297 695 276 685 c 1,87,-1
 268.5 700.5 l 1,88,89
 285 708 285 708 293 729.5 c 128,-1,90
 301 751 301 751 296 773.5 c 1,14,15
508.5 35 m 1,91,92
 499.5 -0.5 499.5 -0.5 489.5 -33.5 c 0,93,94
 467 -104 467 -104 510.5 -104 c 0,95,96
 561.5 -104 561.5 -104 580.5 -1 c 1,97,-1
 580.5 -1 l 1,98,99
 564 -21 564 -21 531 -47.5 c 1,100,101
 518.5 11 518.5 11 508.5 35 c 1,91,92
462 289.5 m 1,102,103
 468.5 280.5 468.5 280.5 495.25 243.25 c 128,-1,104
 522 206 522 206 533.25 189.25 c 128,-1,105
 544.5 172.5 544.5 172.5 562.75 143.25 c 128,-1,106
 581 114 581 114 593 89 c 1,107,108
 597.5 92 597.5 92 605 97.25 c 128,-1,109
 612.5 102.5 612.5 102.5 615.5 104.5 c 1,110,-1
 685.5 20.5 l 2,111,112
 688.5 19 688.5 19 690.5 19 c 0,113,114
 695.5 19 695.5 19 697.75 24.5 c 128,-1,115
 700 30 700 30 699.75 38.75 c 128,-1,116
 699.5 47.5 699.5 47.5 698.75 55.75 c 128,-1,117
 698 64 698 64 696.75 72.5 c 128,-1,118
 695.5 81 695.5 81 695.5 83 c 2,119,-1
 689 145 l 1,120,-1
 728.5 97 l 2,121,122
 743 78.5 743 78.5 764 47.5 c 128,-1,123
 785 16.5 785 16.5 799.75 -5.5 c 128,-1,124
 814.5 -27.5 814.5 -27.5 837 -53.75 c 128,-1,125
 859.5 -80 859.5 -80 880.75 -96.25 c 128,-1,126
 902 -112.5 902 -112.5 932 -124.5 c 128,-1,127
 962 -136.5 962 -136.5 995 -137.5 c 1,128,129
 1047 -133.5 1047 -133.5 1067 -103 c 1,130,131
 1030 -51.5 1030 -51.5 970.5 -4.5 c 1,132,133
 860 69 860 69 742 136 c 128,-1,134
 624 203 624 203 462 289.5 c 1,135,-1
 462 289.5 l 1,102,103
312.5 809.5 m 0,136,137
 352.5 809.5 352.5 809.5 381 798.5 c 1,138,139
 398.5 789.5 398.5 789.5 410 765 c 128,-1,140
 421.5 740.5 421.5 740.5 425.5 715.5 c 0,141,142
 434 663 434 663 438 653.5 c 1,143,144
 568.5 602 568.5 602 651.5 520 c 1,145,146
 727.5 436.5 727.5 436.5 872.5 251.25 c 128,-1,147
 1017.5 66 1017.5 66 1100 -23 c 0,148,149
 1110 -33.5 1110 -33.5 1118.25 -45.25 c 128,-1,150
 1126.5 -57 1126.5 -57 1132.75 -71.25 c 128,-1,151
 1139 -85.5 1139 -85.5 1132.75 -95.25 c 128,-1,152
 1126.5 -105 1126.5 -105 1106 -106 c 1,153,154
 1097.5 -138 1097.5 -138 1065.25 -155.25 c 128,-1,155
 1033 -172.5 1033 -172.5 995 -174 c 1,156,157
 949 -169.5 949 -169.5 910.25 -153 c 128,-1,158
 871.5 -136.5 871.5 -136.5 840 -107.75 c 128,-1,159
 808.5 -79 808.5 -79 785 -48.25 c 128,-1,160
 761.5 -17.5 761.5 -17.5 735.5 25.5 c 1,161,162
 729.5 -17.5 729.5 -17.5 693.5 -20 c 1,163,164
 670.5 -18.5 670.5 -18.5 636.5 11.5 c 1,165,166
 635 -6.5 635 -6.5 630.75 -25 c 128,-1,167
 626.5 -43.5 626.5 -43.5 623.25 -54 c 128,-1,168
 620 -64.5 620 -64.5 612.75 -84.5 c 128,-1,169
 605.5 -104.5 605.5 -104.5 603.5 -111 c 1,170,171
 605 -110.5 605 -110.5 609 -110.5 c 0,172,173
 630 -110.5 630 -110.5 661.5 -119 c 128,-1,174
 693 -127.5 693 -127.5 724.25 -146.75 c 128,-1,175
 755.5 -166 755.5 -166 762 -190 c 1,176,-1
 187 -185.5 l 1,177,178
 196 -178 196 -178 213.5 -158.5 c 128,-1,179
 231 -139 231 -139 244.75 -127.75 c 128,-1,180
 258.5 -116.5 258.5 -116.5 270.5 -116.5 c 0,181,182
 271 -116.5 271 -116.5 272 -116.75 c 128,-1,183
 273 -117 273 -117 273.5 -117 c 0,184,185
 293 -118.5 293 -118.5 314 -118.5 c 0,186,187
 365.5 -118.5 365.5 -118.5 415 -110 c 1,188,189
 427 -75 427 -75 446.75 3.75 c 128,-1,190
 466.5 82.5 466.5 82.5 471 111 c 1,191,192
 454.5 139 454.5 139 422.25 187.5 c 128,-1,193
 390 236 390 236 362.25 282 c 128,-1,194
 334.5 328 334.5 328 314 373.5 c 1,195,196
 262.5 415.5 262.5 415.5 235 470.25 c 128,-1,197
 207.5 525 207.5 525 213.5 585.5 c 0,198,199
 214 591 214 591 216.75 625 c 128,-1,200
 219.5 659 219.5 659 219.5 675 c 1,201,202
 200 680 200 680 171 691 c 128,-1,203
 142 702 142 702 118.5 708.5 c 128,-1,204
 95 715 95 715 72 715 c 0,205,206
 46.5 715 46.5 715 20 706 c 1,207,208
 21 708.5 21 708.5 26 720 c 128,-1,209
 31 731.5 31 731.5 32.75 735 c 128,-1,210
 34.5 738.5 34.5 738.5 39.75 747.5 c 128,-1,211
 45 756.5 45 756.5 49 760.5 c 128,-1,212
 53 764.5 53 764.5 59.75 769.75 c 128,-1,213
 66.5 775 66.5 775 74 778.5 c 0,214,215
 95 786 95 786 138 787.25 c 128,-1,216
 181 788.5 181 788.5 203.5 799.5 c 1,217,218
 213.5 800.5 213.5 800.5 236.75 803.5 c 128,-1,219
 260 806.5 260 806.5 278 808 c 128,-1,220
 296 809.5 296 809.5 312.5 809.5 c 0,136,137
EndSplineSet
Validated: 2085
EndChar

StartChar: o
Encoding: 111 111 64
Width: 708
Flags: W
LayerCount: 2
Fore
SplineSet
608.5 259.5 m 128,-1,1
 608.5 159.5 608.5 159.5 530.5 91.5 c 0,2,3
 455.5 26.5 455.5 26.5 354 26.5 c 128,-1,4
 252.5 26.5 252.5 26.5 178 91.5 c 0,5,6
 100 159.5 100 159.5 100 259.5 c 128,-1,7
 100 359.5 100 359.5 178 427.5 c 0,8,9
 252.5 492.5 252.5 492.5 354 492.5 c 128,-1,10
 455.5 492.5 455.5 492.5 530.5 427.5 c 0,11,0
 608.5 359.5 608.5 359.5 608.5 259.5 c 128,-1,1
552.5 259.5 m 128,-1,13
 552.5 336 552.5 336 490.5 387.5 c 0,14,15
 432 436.5 432 436.5 354 436.5 c 128,-1,16
 276 436.5 276 436.5 217.5 387.5 c 0,17,18
 156 336 156 336 156 259.5 c 128,-1,19
 156 183 156 183 217.5 131.5 c 0,20,21
 276 82.5 276 82.5 354 82.5 c 128,-1,22
 432 82.5 432 82.5 490.5 131.5 c 0,23,12
 552.5 183 552.5 183 552.5 259.5 c 128,-1,13
EndSplineSet
Validated: 1
Substitution2: "'ss01' Hierography-bopomofo" u1309D
EndChar

StartChar: u1309D
Encoding: 77981 77981 65
Width: 1294
Flags: W
LayerCount: 2
Fore
SplineSet
1207 165.5 m 0,0,1
 1181 165.5 1181 165.5 1179.5 149 c 2,2,-1
 1153.5 -73 l 1,3,-1
 1233.5 -73 l 1,4,-1
 1233.5 138 l 2,5,6
 1233.5 165.5 1233.5 165.5 1207 165.5 c 0,0,1
1208.5 199 m 0,7,8
 1273 199 1273 199 1274.5 138 c 2,9,-1
 1274.5 -166.5 l 1,10,-1
 1085 -164 l 1,11,-1
 409 -167.5 l 1,12,-1
 290.5 -180 l 1,13,14
 23.5 -179 23.5 -179 20 -140 c 1,15,16
 20 -97.5 20 -97.5 56 -97.5 c 1,17,18
 129.5 -120 129.5 -120 226 -122.5 c 0,19,20
 232.5 -123 232.5 -123 239 -123 c 0,21,22
 323.5 -123 323.5 -123 348 -92.5 c 1,23,24
 334 -75.5 334 -75.5 313 -75.5 c 0,25,26
 307 -75 307 -75 300 -75 c 0,27,28
 261 -75 261 -75 188.5 -86.5 c 1,29,30
 146 -86.5 146 -86.5 146 -59 c 0,31,32
 146 -39 146 -39 161 -39 c 0,33,34
 182 -39 182 -39 288 -19 c 1,35,36
 308 -20.5 308 -20.5 327 -21.5 c 0,37,38
 379 -21.5 379 -21.5 446.5 -92.5 c 1,39,-1
 506.5 -95 l 1,40,-1
 1085 -74 l 2,41,42
 1115 -73 1115 -73 1141 163 c 0,43,44
 1145 199 1145 199 1208.5 199 c 0,7,8
EndSplineSet
Validated: 1
EndChar

StartChar: e
Encoding: 101 101 66
Width: 484
Flags: W
LayerCount: 2
Fore
SplineSet
384.5 17 m 1,0,-1
 128 17 l 1,1,-1
 100 45 l 1,2,-1
 100 474 l 1,3,-1
 128 502 l 1,4,-1
 384.5 502 l 1,5,-1
 384.5 446 l 1,6,-1
 156 446 l 1,7,-1
 156 287.5 l 1,8,-1
 384.5 287.5 l 1,9,-1
 384.5 231.5 l 1,10,-1
 156 231.5 l 1,11,-1
 156 73 l 1,12,-1
 384.5 73 l 1,13,-1
 384.5 17 l 1,0,-1
EndSplineSet
Validated: 1
Substitution2: "'ss01' Hierography-bopomofo" u133ED
EndChar

StartChar: u133ED
Encoding: 78829 78829 67
Width: 554
Flags: W
LayerCount: 2
Fore
SplineSet
261.5 203 m 1,0,-1
 335.5 203 l 1,1,-1
 534.5 -179 l 1,2,-1
 459.5 -179 l 1,3,-1
 260.5 202 l 1,4,-1
 261.5 203 l 1,0,-1
95 202 m 1,5,-1
 294 -179.5 l 1,6,-1
 219 -180 l 1,7,-1
 20 201.5 l 1,8,-1
 95 202 l 1,5,-1
EndSplineSet
Validated: 1
EndChar

StartChar: i
Encoding: 105 105 68
Width: 256
Flags: W
LayerCount: 2
Fore
SplineSet
156 17 m 1,0,-1
 100 17 l 1,1,-1
 100 502 l 1,2,-1
 156 502 l 1,3,-1
 156 17 l 1,0,-1
EndSplineSet
Validated: 1
Substitution2: "'ss04' Egyptian Hieroform Latin" u131CB
Substitution2: "'ss03' Egyptian Hieratic Latin" i.hier
Substitution2: "'ss02' Egyptian Transliteration Latin" i.tran
Substitution2: "'ss01' Hierography-bopomofo" u131CB
EndChar

StartChar: u131CB
Encoding: 78283 78283 69
Width: 270
Flags: W
LayerCount: 2
Fore
SplineSet
156 754 m 0,0,1
 147.5 754 147.5 754 143 748.5 c 1,2,-1
 73 262.5 l 1,3,4
 181 198.5 181 198.5 206.5 140.5 c 1,5,-1
 206.5 140.5 l 1,6,-1
 209 728 l 1,7,8
 203.5 740.5 203.5 740.5 188.25 747.25 c 128,-1,9
 173 754 173 754 156 754 c 0,0,1
206.5 140.5 m 1,10,-1
 206.5 140.5 l 1,11,-1
 206.5 140.5 l 1,12,-1
 206.5 140.5 l 1,13,-1
 206.5 140.5 l 1,10,-1
146 808.5 m 0,14,15
 226.5 808.5 226.5 808.5 250.5 744.5 c 1,16,-1
 250.5 -189 l 1,17,-1
 187 -190 l 1,18,-1
 186 37 l 2,19,20
 187.5 58 187.5 58 174.25 83 c 128,-1,21
 161 108 161 108 143.75 127 c 128,-1,22
 126.5 146 126.5 146 98.75 169.25 c 128,-1,23
 71 192.5 71 192.5 56.25 203 c 128,-1,24
 41.5 213.5 41.5 213.5 20 228 c 1,25,-1
 106.5 804 l 1,26,27
 124.5 808.5 124.5 808.5 146 808.5 c 0,14,15
EndSplineSet
Validated: 2085
EndChar

StartChar: u
Encoding: 117 117 70
Width: 651
Flags: W
LayerCount: 2
Fore
SplineSet
551.5 225.5 m 2,0,1
 551.5 126.5 551.5 126.5 488.25 67 c 128,-1,2
 425 7.5 425 7.5 325.5 7.5 c 128,-1,3
 226 7.5 226 7.5 163 67 c 128,-1,4
 100 126.5 100 126.5 100 225.5 c 2,5,-1
 100 502 l 1,6,-1
 156 502 l 1,7,-1
 156 225.5 l 2,8,9
 156 150 156 150 203.5 106 c 0,10,11
 249.5 63.5 249.5 63.5 325.5 63.5 c 128,-1,12
 401.5 63.5 401.5 63.5 448.5 106.75 c 128,-1,13
 495.5 150 495.5 150 495.5 225.5 c 2,14,-1
 495.5 502 l 1,15,-1
 551.5 502 l 1,16,-1
 551.5 225.5 l 2,0,1
EndSplineSet
Validated: 1
Substitution2: "'ss01' Hierography-bopomofo" u13171
EndChar

StartChar: u13171
Encoding: 78193 78193 71
Width: 830
Flags: W
LayerCount: 2
Fore
SplineSet
165.5 774 m 0,0,1
 187.5 774 187.5 774 187.5 752 c 128,-1,2
 187.5 730 187.5 730 165.5 729 c 0,3,4
 145 729 145 729 145 749.5 c 0,5,6
 145 774 145 774 165.5 774 c 0,0,1
85.5 758 m 1,7,8
 60 750.5 60 750.5 38 727.5 c 1,9,-1
 85.5 736 l 1,10,-1
 85.5 758 l 1,7,8
88 729 m 1,11,-1
 56.5 721.5 l 1,12,13
 69.5 706 69.5 706 97.5 696 c 1,14,15
 116 707 116 707 88 729 c 1,11,-1
173 784.5 m 0,16,17
 139 784.5 139 784.5 107.5 759 c 1,18,-1
 107.5 738.5 l 1,19,20
 136.5 719 136.5 719 129 697.5 c 0,21,22
 122 675.5 122 675.5 139.5 656.5 c 0,23,24
 157 638 157 638 156 598 c 0,25,26
 154.5 558 154.5 558 171 511 c 0,27,28
 187.5 464.5 187.5 464.5 247 358.5 c 0,29,30
 306.5 252 306.5 252 333.5 192 c 0,31,32
 361 132 361 132 368 80 c 0,33,34
 369.5 56 369.5 56 373 56 c 128,-1,35
 376.5 56 376.5 56 382.5 82.5 c 1,36,-1
 382.5 128.5 l 1,37,38
 488.5 91 488.5 91 488.5 49.5 c 0,39,40
 488.5 28.5 488.5 28.5 491.5 28.5 c 128,-1,41
 494.5 28.5 494.5 28.5 500.5 47 c 0,42,43
 512.5 86 512.5 86 472.5 121 c 1,44,-1
 472.5 121 l 1,45,46
 511.5 100.5 511.5 100.5 571 100.5 c 2,47,-1
 577.5 100.5 l 2,48,49
 641 101.5 641 101.5 709 134.5 c 1,50,51
 724.5 124 724.5 124 738 124 c 0,52,53
 742 124 742 124 745.5 125 c 0,54,55
 762.5 128.5 762.5 128.5 763.5 145.5 c 0,56,57
 762.5 163.5 762.5 163.5 704 202.5 c 1,58,59
 486 480 486 480 438.5 496 c 1,60,61
 437.5 473 437.5 473 399.5 463 c 1,62,63
 501.5 399 501.5 399 450.5 368 c 0,64,65
 416 347 416 347 392 347 c 0,66,67
 380.5 347 380.5 347 372 351.5 c 0,68,69
 284.5 416 284.5 416 254.5 458 c 0,70,71
 225 499.5 225 499.5 227 535 c 0,72,73
 228.5 570 228.5 570 264 588 c 0,74,75
 278 595.5 278 595.5 282 595.5 c 0,76,77
 287 595.5 287 595.5 270 579.5 c 0,78,79
 241 553 241 553 244.5 521.5 c 128,-1,80
 248 490 248 490 310 429 c 0,81,82
 356.5 383.5 356.5 383.5 391 383.5 c 0,83,84
 402.5 383.5 402.5 383.5 412.5 388.5 c 0,85,86
 453 408.5 453 408.5 404.5 439 c 128,-1,87
 356 469.5 356 469.5 351 490.5 c 0,88,89
 348 504 348 504 352.5 504 c 0,90,91
 355 504 355 504 360.5 499.5 c 0,92,93
 374 487.5 374 487.5 398.5 486.5 c 0,94,95
 399 486 399 486 400 486 c 0,96,97
 422.5 486 422.5 486 418 526.5 c 1,98,99
 389 588 389 588 300 606.5 c 1,100,101
 298 697.5 298 697.5 264 741 c 128,-1,102
 230 784.5 230 784.5 173 784.5 c 0,16,17
403.5 86 m 1,103,-1
 403.5 61.5 l 1,104,-1
 341.5 -127.5 l 1,105,-1
 341.5 -130 l 1,106,-1
 390 -130 l 2,107,108
 418 -130 418 -130 422.5 -103.5 c 1,109,-1
 463 46 l 1,110,111
 463 69 463 69 403.5 86 c 1,103,-1
177 809 m 2,112,113
 270.5 809 270.5 809 302 758 c 0,114,115
 334 706 334 706 335.5 634.5 c 1,116,117
 397.5 604 397.5 604 421 583.5 c 0,118,119
 444.5 562.5 444.5 562.5 461.5 527.5 c 1,120,121
 512.5 501 512.5 501 649.5 332 c 1,122,123
 716.5 243.5 716.5 243.5 790.5 169.5 c 1,124,125
 824.5 123.5 824.5 123.5 800 101.5 c 0,126,127
 784 87 784 87 757 87 c 0,128,129
 743.5 87 743.5 87 727 91 c 1,130,131
 640 57 640 57 522 53 c 1,132,-1
 483.5 -110.5 l 1,133,134
 517.5 -141 517.5 -141 526 -173.5 c 1,135,136
 526 -186 526 -186 516 -189.5 c 0,137,138
 514.5 -190 514.5 -190 513 -190 c 0,139,140
 505.5 -190 505.5 -190 501.5 -173.5 c 0,141,142
 499 -153 499 -153 470 -141 c 1,143,144
 466.5 -158 466.5 -158 436 -182 c 1,145,-1
 113.5 -182 l 2,146,147
 99 -182 99 -182 99 -166.5 c 0,148,149
 99 -139.5 99 -139.5 208 -136 c 1,150,151
 281 -131 281 -131 281 -122.5 c 1,152,153
 334 25.5 334 25.5 334 67.5 c 0,154,155
 334 95.5 334 95.5 276 217 c 1,156,157
 158.5 447.5 158.5 447.5 137.5 500 c 0,158,159
 117 553 117 553 116 633 c 1,160,161
 96.5 663.5 96.5 663.5 93 680.5 c 1,162,163
 60 689 60 689 20 725 c 1,164,165
 49 760.5 49 760.5 77 770 c 1,166,167
 125.5 809 125.5 809 173 809 c 2,168,-1
 177 809 l 2,112,113
EndSplineSet
Validated: 2081
EndChar

StartChar: y
Encoding: 121 121 72
Width: 656
Flags: W
LayerCount: 2
Fore
SplineSet
556 476.5 m 1,0,-1
 356 239 l 1,1,-1
 356 17 l 1,2,-1
 300 17 l 1,3,-1
 300 239 l 1,4,-1
 100 476.5 l 1,5,-1
 143 512.5 l 1,6,-1
 328 292.5 l 1,7,-1
 513 512.5 l 1,8,-1
 556 476.5 l 1,0,-1
EndSplineSet
Validated: 1
Substitution2: "'ss04' Egyptian Hieroform Latin" u131CC
Substitution2: "'ss03' Egyptian Hieratic Latin" y.hier
Substitution2: "'ss02' Egyptian Transliteration Latin" y.tran
Substitution2: "'ss01' Hierography-bopomofo" u133F2
EndChar

StartChar: u133F2
Encoding: 78834 78834 73
Width: 378
Flags: W
LayerCount: 2
Fore
SplineSet
177.607421875 260 m 0,0,1
 183.607421875 260 183.607421875 260 195.607421875 259 c 0,2,3
 250.607421875 255.5 250.607421875 255.5 288.607421875 211.75 c 128,-1,4
 326.607421875 168 326.607421875 168 322.607421875 113 c 1,5,6
 322.607421875 66 322.607421875 66 287.107421875 32.25 c 128,-1,7
 251.607421875 -1.5 251.607421875 -1.5 204.607421875 -1.5 c 0,8,9
 191.107421875 -1.5 191.107421875 -1.5 176.607421875 3 c 0,10,11
 135.607421875 13.5 135.607421875 13.5 114.607421875 52.75 c 128,-1,12
 93.607421875 92 93.607421875 92 109.607421875 131 c 0,13,14
 114.607421875 148 114.607421875 148 124.607421875 148 c 0,15,16
 136.107421875 148 136.107421875 148 157.607421875 125.5 c 1,17,18
 143.607421875 108.5 143.607421875 108.5 149.607421875 85.75 c 128,-1,19
 155.607421875 63 155.607421875 63 172.107421875 54 c 1,20,21
 186.107421875 43.5 186.107421875 43.5 205.607421875 43.5 c 0,22,23
 223.107421875 43.5 223.107421875 43.5 239.857421875 52.5 c 128,-1,24
 256.607421875 61.5 256.607421875 61.5 266.607421875 76 c 0,25,26
 287.607421875 107 287.607421875 107 276.107421875 146.25 c 128,-1,27
 264.607421875 185.5 264.607421875 185.5 234.107421875 200.5 c 1,28,29
 212.107421875 216 212.107421875 216 182.107421875 216 c 0,30,31
 143.607421875 216 143.607421875 216 111.607421875 192 c 0,32,33
 91.607421875 178 91.607421875 178 78.107421875 151.5 c 128,-1,34
 64.607421875 125 64.607421875 125 65.607421875 98.5 c 1,35,36
 63.607421875 61 63.607421875 61 81.607421875 32.75 c 128,-1,37
 99.607421875 4.5 99.607421875 4.5 134.107421875 -23.5 c 1,38,39
 173.607421875 -49.5 173.607421875 -49.5 210.607421875 -69 c 128,-1,40
 247.607421875 -88.5 247.607421875 -88.5 358.607421875 -140.5 c 1,41,-1
 337.607421875 -180 l 1,42,43
 289.607421875 -155.5 289.607421875 -155.5 254.107421875 -140 c 128,-1,44
 218.607421875 -124.5 218.607421875 -124.5 194.857421875 -111.75 c 128,-1,45
 171.107421875 -99 171.107421875 -99 112.107421875 -63 c 1,46,47
 92.107421875 -46.5 92.107421875 -46.5 79.857421875 -34.75 c 128,-1,48
 67.607421875 -23 67.607421875 -23 53.607421875 -6 c 128,-1,49
 39.607421875 11 39.607421875 11 31.857421875 30.75 c 128,-1,50
 24.107421875 50.5 24.107421875 50.5 22.107421875 73.5 c 0,51,52
 15.107421875 116 15.107421875 116 31.357421875 157.25 c 128,-1,53
 47.607421875 198.5 47.607421875 198.5 81.857421875 226.5 c 128,-1,54
 116.107421875 254.5 116.107421875 254.5 159.107421875 259 c 0,55,56
 172.107421875 260 172.107421875 260 177.607421875 260 c 0,0,1
EndSplineSet
Validated: 33
EndChar

StartChar: halfkana_WO
Encoding: 65382 65382 74
Width: 1024
LayerCount: 2
Fore
SplineSet
62.3271484375 -196 m 1,0,-1
 55 -185.5 l 1,1,2
 121.50390625 -124 121.50390625 -124 286.635742188 -8 c 128,-1,3
 451.767578125 108.000976562 451.767578125 108.000976562 507 132 c 1,4,5
 562.231933594 108 562.231933594 108 727.364257812 -8 c 128,-1,6
 892.49609375 -124.000976562 892.49609375 -124.000976562 959 -185.5 c 1,7,-1
 951.672851562 -196 l 1,8,9
 864.880859375 -167.5 864.880859375 -167.5 704.8203125 -125 c 0,10,11
 534.615722656 -79.4990234375 534.615722656 -79.4990234375 507 -79.5 c 128,-1,12
 479.383300781 -79.5 479.383300781 -79.5 309.1796875 -125 c 0,13,14
 149.120605469 -167.500976562 149.120605469 -167.500976562 62.3271484375 -196 c 1,0,-1
642 521 m 1,15,-1
 547.5 342 l 2,16,17
 532.000488281 312.499511719 532.000488281 312.499511719 531.5 290 c 2,18,-1
 527 156.25 l 2,19,20
 527 143.750488281 527 143.750488281 507 143.75 c 128,-1,21
 487.000488281 143.75 487.000488281 143.75 487 156.25 c 2,22,-1
 482.5 290 l 2,23,24
 482.000488281 312.5 482.000488281 312.5 466.5 342 c 2,25,-1
 372 521 l 1,26,27
 407.500488281 525.5 407.500488281 525.5 478.5 531.5 c 1,28,-1
 478 570 l 2,29,30
 477.500488281 601.000488281 477.500488281 601.000488281 466.5 622 c 2,31,-1
 372 801 l 1,32,33
 465 811.999511719 465 811.999511719 507 812 c 128,-1,34
 549 812 549 812 642 801 c 1,35,-1
 547.5 622 l 2,36,37
 536.500488281 601 536.500488281 601 536 570 c 2,38,-1
 535.5 531.5 l 1,39,40
 565.000488281 530 565.000488281 530 642 521 c 1,15,-1
EndSplineSet
Validated: 1
EndChar

StartChar: halfkana_ts
Encoding: 65391 65391 75
Width: 1024
LayerCount: 2
Fore
SplineSet
642 702 m 1,0,-1
 547.5 523 l 2,1,2
 536.5 502 536.5 502 536 471 c 2,3,-1
 527 -84.5 l 2,4,5
 527 -97 527 -97 507 -97 c 128,-1,6
 487 -97 487 -97 487 -84.5 c 2,7,-1
 478 471 l 2,8,9
 477.5 502 477.5 502 466.5 523 c 2,10,-1
 372 702 l 1,11,12
 465 713 465 713 507 713 c 128,-1,13
 549 713 549 713 642 702 c 1,0,-1
959 591 m 1,14,-1
 809 455 l 2,15,16
 791.5 439.5 791.5 439.5 780.5 410 c 2,17,-1
 591 -85 l 2,18,19
 588 -92.5 588 -92.5 579 -92.5 c 0,20,21
 552 -92.5 552 -92.5 552 -75 c 0,22,23
 552 -72.5 552 -72.5 552.5 -71 c 2,24,-1
 726 430 l 2,25,26
 733.5 451.5 733.5 451.5 733.5 473.5 c 0,27,28
 733.5 479.5 733.5 479.5 733 483 c 2,29,-1
 705.5 683.5 l 1,30,31
 749.5 673 749.5 673 836 647.5 c 1,32,33
 875.5 633 875.5 633 959 591 c 1,14,-1
55 591 m 1,34,35
 138.5 633 138.5 633 178 647.5 c 1,36,37
 264.5 673 264.5 673 308.5 683.5 c 1,38,-1
 281 483 l 2,39,40
 280.5 479.5 280.5 479.5 280.5 473.5 c 0,41,42
 280.5 451.5 280.5 451.5 288 430 c 2,43,-1
 461.5 -71 l 2,44,45
 462 -72.5 462 -72.5 462 -75 c 0,46,47
 462 -92.5 462 -92.5 435 -92.5 c 0,48,49
 426 -92.5 426 -92.5 423 -85 c 2,50,-1
 233.5 410 l 2,51,52
 222.5 439.5 222.5 439.5 205 455 c 2,53,-1
 55 591 l 1,34,35
EndSplineSet
Validated: 2049
EndChar

StartChar: uniFF70
Encoding: 65392 65392 76
Width: 1024
LayerCount: 2
Fore
SplineSet
298 337 m 2,0,-1
 716 337 l 2,1,2
 746.999023438 337.500976562 746.999023438 337.500976562 768 348.5 c 2,3,-1
 947 443 l 1,4,5
 958.000976562 350 958.000976562 350 958 308 c 128,-1,6
 958 266 958 266 947 173 c 1,7,-1
 768 267.5 l 2,8,9
 747 278.500976562 747 278.500976562 716 279 c 2,10,-1
 298 279 l 2,11,12
 267.000976562 278.499023438 267.000976562 278.499023438 246 267.5 c 2,13,-1
 67 173 l 1,14,15
 55.9990234375 266 55.9990234375 266 56 308 c 128,-1,16
 56 350 56 350 67 443 c 1,17,-1
 246 348.5 l 2,18,19
 267 337.499023438 267 337.499023438 298 337 c 2,0,-1
EndSplineSet
Validated: 33
EndChar

StartChar: halfkana_NN
Encoding: 65437 65437 77
Width: 1024
LayerCount: 2
Fore
SplineSet
507 713 m 128,-1,1
 549 713 549 713 642 702 c 1,2,-1
 547.5 523 l 2,3,4
 536.499023438 502 536.499023438 502 536 471 c 2,5,-1
 534 335 l 1,6,-1
 716 337 l 2,7,8
 746.999023438 337.500976562 746.999023438 337.500976562 768 348.5 c 2,9,-1
 947 443 l 1,10,11
 958.000976562 350 958.000976562 350 958 308 c 128,-1,12
 958 266 958 266 947 173 c 1,13,-1
 768 267.5 l 2,14,15
 747 278.500976562 747 278.500976562 716 279 c 2,16,-1
 533 281 l 1,17,-1
 527 -84.5 l 2,18,19
 527 -97.0009765625 527 -97.0009765625 507 -97 c 128,-1,20
 486.999023438 -97 486.999023438 -97 487 -84.5 c 2,21,-1
 481 281 l 1,22,-1
 298 279 l 2,23,24
 267.000976562 278.499023438 267.000976562 278.499023438 246 267.5 c 2,25,-1
 67 173 l 1,26,27
 55.9990234375 266 55.9990234375 266 56 308 c 128,-1,28
 56 350 56 350 67 443 c 1,29,-1
 246 348.5 l 2,30,31
 267 337.499023438 267 337.499023438 298 337 c 2,32,-1
 480 335 l 1,33,-1
 478 471 l 2,34,35
 477.499023438 501.999023438 477.499023438 501.999023438 466.5 523 c 2,36,-1
 372 702 l 1,37,0
 465 713.000976562 465 713.000976562 507 713 c 128,-1,1
EndSplineSet
Validated: 33
EndChar

StartChar: uniFF9E
Encoding: 65438 65438 78
Width: 512
Flags: W
LayerCount: 2
Fore
SplineSet
356 626.788085938 m 1,0,1
 338.646709921 621.330690824 338.646709921 621.330690824 266.038302299 598.845181733 c 128,-1,2
 193.429894677 576.359672642 193.429894677 576.359672642 154.428710938 563.73046875 c 0,3,4
 130.126671365 556.252918112 130.126671365 556.252918112 101.20703125 526.66796875 c 0,5,6
 94.932232761 520.672202574 94.932232761 520.672202574 70.1360444543 496.626785925 c 128,-1,7
 45.3398561476 472.581369276 45.3398561476 472.581369276 31.673828125 459.873046875 c 1,8,9
 20.7178955763 455.585056458 20.7178955763 455.585056458 9.40018905606 467.860958175 c 128,-1,10
 -1.91751746415 480.136859892 -1.91751746415 480.136859892 5.6865234375 490 c 0,11,12
 13.007608634 497.642551089 13.007608634 497.642551089 43.3318780566 528.935403149 c 128,-1,13
 73.6561474793 560.22825521 73.6561474793 560.22825521 89.7353515625 577.38671875 c 0,14,15
 98.8508494455 589.29034664 98.8508494455 589.29034664 104.838786459 603.236032792 c 128,-1,16
 110.826723473 617.181718944 110.826723473 617.181718944 117.262776041 639.300100021 c 128,-1,17
 123.698828608 661.418481097 123.698828608 661.418481097 125.995117188 668.043945312 c 0,18,19
 133.457519531 692.036621094 133.457519531 692.036621094 148.381835937 740.021972656 c 128,-1,20
 163.306152344 788.007324219 163.306152344 788.007324219 170.768554688 812 c 1,21,22
 270.733725603 732.829114545 270.733725603 732.829114545 311.177734375 682.010742188 c 0,23,24
 330.981936674 658.518799745 330.981936674 658.518799745 356 626.788085938 c 1,0,1
EndSplineSet
Validated: 1
EndChar

StartChar: uniFF9F
Encoding: 65439 65439 79
Width: 512
Flags: W
LayerCount: 2
Fore
SplineSet
170.788085938 459 m 1,0,1
 165.341271105 476.319647164 165.341271105 476.319647164 142.850898621 548.942644338 c 128,-1,2
 120.360526137 621.565641512 120.360526137 621.565641512 107.729492188 660.571289062 c 0,3,4
 100.252622609 684.873617493 100.252622609 684.873617493 70.66796875 713.79296875 c 0,5,6
 64.6765045922 720.063265013 64.6765045922 720.063265013 40.6291996469 744.86113823 c 128,-1,7
 16.5818947016 769.659011446 16.5818947016 769.659011446 3.873046875 783.326171875 c 1,8,9
 -0.414915461541 794.282032679 -0.414915461541 794.282032679 11.8608162725 805.599793825 c 128,-1,10
 24.1365480066 816.917554972 24.1365480066 816.917554972 33.9990234375 809.313476562 c 0,11,12
 41.6676330955 801.967674699 41.6676330955 801.967674699 72.9494923845 771.654312761 c 128,-1,13
 104.231351673 741.340950823 104.231351673 741.340950823 121.38671875 725.264648438 c 0,14,15
 133.290318479 716.149172119 133.290318479 716.149172119 147.23626307 710.16114664 c 128,-1,16
 161.182207662 704.173121161 161.182207662 704.173121161 183.299544221 697.73729086 c 128,-1,17
 205.416880781 691.301460559 205.416880781 691.301460559 212.04296875 689.004882812 c 2,18,-1
 356 644.231445312 l 1,19,20
 276.829114545 544.266274397 276.829114545 544.266274397 226.010742188 503.822265625 c 0,21,22
 202.494771561 483.99780706 202.494771561 483.99780706 170.788085938 459 c 1,0,1
EndSplineSet
Validated: 1
EndChar

StartChar: halfkana_WA
Encoding: 65436 65436 80
Width: 1024
LayerCount: 2
Fore
SplineSet
646.998046875 798.310546875 m 1,0,-1
 552.5 575.556640625 l 2,1,2
 544 556.265625 544 556.265625 541.5 523.911132812 c 1,3,4
 574 522.043945312 574 522.043945312 644.5 511.465820312 c 1,5,-1
 550 288.712890625 l 2,6,7
 538 260.7109375 538 260.7109375 536.999023438 220.265625 c 1,8,9
 563.500976562 219.022460938 563.500976562 219.022460938 642 207.200195312 c 1,10,-1
 547.5 -15.5537109375 l 2,11,12
 534 -47.9130859375 534 -47.9130859375 533.500976562 -70.310546875 c 2,13,-1
 532 -180.446289062 l 2,14,15
 532 -196 532 -196 512.000976562 -196 c 128,-1,16
 492 -196 492 -196 492 -180.446289062 c 2,17,-1
 490.499023438 -70.310546875 l 2,18,19
 490 -47.9111328125 490 -47.9111328125 476.5 -15.5556640625 c 2,20,-1
 382 207.200195312 l 1,21,22
 416.999023438 212.799804688 416.999023438 212.799804688 486.999023438 220.265625 c 1,23,24
 485.998046875 260.7109375 485.998046875 260.7109375 473.998046875 288.709960938 c 2,25,-1
 379.501953125 511.465820312 l 1,26,27
 414.001953125 516.444335938 414.001953125 516.444335938 482.501953125 523.911132812 c 1,28,29
 480.001953125 556.265625 480.001953125 556.265625 471.502929688 575.5546875 c 2,30,-1
 377 798.310546875 l 1,31,32
 470.000976562 812 470.000976562 812 512.000976562 812 c 128,-1,33
 554.000976562 812 554.000976562 812 647 798.313476562 c 1,34,-1
 646.998046875 798.310546875 l 1,0,-1
329.998046875 798.310546875 m 1,35,-1
 235.5 575.556640625 l 2,36,37
 227 556.265625 227 556.265625 224.5 523.911132812 c 1,38,39
 257 522.043945312 257 522.043945312 327.5 511.465820312 c 1,40,-1
 233 288.712890625 l 2,41,42
 221 260.7109375 221 260.7109375 219.999023438 220.265625 c 1,43,44
 246.500976562 219.022460938 246.500976562 219.022460938 324.999023438 207.200195312 c 1,45,-1
 230.5 -15.5537109375 l 2,46,47
 217 -47.9130859375 217 -47.9130859375 216.500976562 -70.310546875 c 2,48,-1
 215 -180.446289062 l 2,49,50
 215 -196 215 -196 195.000976562 -196 c 128,-1,51
 175 -196 175 -196 175 -180.446289062 c 2,52,-1
 173.499023438 -70.310546875 l 2,53,54
 173 -47.9111328125 173 -47.9111328125 159.5 -15.5556640625 c 2,55,-1
 65 207.200195312 l 1,56,57
 99.9990234375 212.799804688 99.9990234375 212.799804688 169.999023438 220.265625 c 1,58,59
 168.998046875 260.7109375 168.998046875 260.7109375 156.998046875 288.709960938 c 2,60,-1
 62.501953125 511.465820312 l 1,61,62
 97.001953125 516.444335938 97.001953125 516.444335938 165.501953125 523.911132812 c 1,63,64
 163.001953125 556.265625 163.001953125 556.265625 154.502929688 575.5546875 c 2,65,-1
 60 798.310546875 l 1,66,67
 153.000976562 812 153.000976562 812 195.000976562 812 c 128,-1,68
 237.000976562 812 237.000976562 812 330 798.313476562 c 1,69,-1
 329.998046875 798.310546875 l 1,35,-1
964 -187.829101562 m 1,70,-1
 953.499023438 -196 l 1,71,72
 892 -121.842773438 892 -121.842773438 775.999023438 62.287109375 c 128,-1,73
 660 246.4140625 660 246.4140625 636 308.001953125 c 1,74,75
 660 369.587890625 660 369.587890625 775.999023438 553.717773438 c 128,-1,76
 892 737.84765625 892 737.84765625 953.499023438 812 c 1,77,-1
 964 803.829101562 l 1,78,79
 935.499023438 707.053710938 935.499023438 707.053710938 893.001953125 528.579101562 c 0,80,81
 847.5 338.793945312 847.5 338.793945312 847.5 308.001953125 c 128,-1,82
 847.5 277.208007812 847.5 277.208007812 893 87.4208984375 c 0,83,84
 935.500976562 -91.048828125 935.500976562 -91.048828125 963.998046875 -187.829101562 c 1,85,-1
 964 -187.829101562 l 1,70,-1
EndSplineSet
Validated: 2049
EndChar

